<svg width="490" height="491" viewBox="0 0 490 491" fill="none" xmlns="http://www.w3.org/2000/svg">
<path fill-rule="evenodd" clip-rule="evenodd" d="M256.636 110.618L260.642 113.301L264.043 116.552L267.332 121.314L269.751 127.739L269.524 129.856L266.009 121.314L261.398 115.191L253.952 110.618L249.946 109.257L245.259 108.615L237.662 109.257L235.206 110.126L229.839 112.81L224.888 117.232L221.146 122.183L218.273 130.687L207.577 134.731L181.423 135.336L180.062 135.978L178.966 138.208L178.324 165.043L173.637 180.426L160.636 180.841L158.859 183.071L158.897 215.689L160.22 223.097L162.374 227.821L162.261 228.69L161.014 228.426L154.248 225.062L150.884 224.419L143.288 225.062L140.831 225.931L134.179 230.013L129.832 236.363L128.094 241.314V249.856L129.492 254.467L133.499 260.514L136.862 263.159L143.061 266.334L141.02 266.523L134.859 263.159L130.097 257.868L127.414 251.897L126.771 247.815V243.355L127.905 237.799L131.495 231.336L136.9 226.687L141.284 224.382L143.968 223.739H153.568L157.536 225.1L159.577 225.326L158.217 219.733L158.254 181.786L161.316 179.519L172.957 179.103L177.681 163.72L178.286 136.885L180.1 134.693L181.423 134.013L208.258 133.408L217.177 129.629L220.277 121.314L224.888 115.229L230.292 111.26L236.339 108.615L239.023 107.934L249.303 107.896L256.636 110.618Z" fill="#FFCF80"/>
<path fill-rule="evenodd" clip-rule="evenodd" d="M249.946 109.257L253.952 110.618L261.398 115.191L266.009 121.314L269.524 129.855L269.788 130.914L280.031 134.731L306.865 135.336L308.869 138.019L309.473 164.854L314.198 180.237L326.972 180.841L328.976 182.844L329.316 216.104L328.976 217.465L328.635 220.148L328.333 220.866L327.539 222.567L327.35 224.646L328.711 224.495L331.357 223.059L334.078 222.378H344.321L348.327 223.739L353.013 226.422L358.38 231.752L362.462 240.898L362.765 241.616L362.802 248.948L361.782 252.237L361.328 254.164L359.061 258.095L355.168 263.046L351.993 265.578L343.867 269.169L333.813 269.018L333.587 268.602L331.13 268.375L328.22 266.448L327.35 266.561L327.502 268.64L328.446 270.303L329.127 273.704L329.278 307.871L326.481 310.706L314.387 311.008L312.913 315.166L312.421 317.207L311.968 317.471L311.854 319.172L310.909 321.855L310.418 323.896L309.965 324.161L309.851 325.862L309.549 326.58L309.209 352.659L308.906 353.15L306.412 356.211L280.258 356.514L269.826 360.255L269.373 361.314L269.032 363.355L266.689 368.533L263.325 373.862L259.47 377.528L257.58 378.7L249.492 382.29L245.448 382.668H242.16L235.206 381.043L229.839 378.359L223.224 372.274L220.465 367.663L218.538 360.898L216.459 359.613L209.165 356.892L207.35 356.665L207.124 356.287L180.932 355.644L179.684 354.889L178.966 352.961L178.324 326.126L173.637 310.744L160.258 310.063L158.859 308.098L158.897 275.481L160.22 268.073L162.374 263.386L162.261 262.517L161.429 262.441L159.199 264.142L153.757 266.448L151.073 266.863H147.105L143.061 266.334L136.862 263.159L133.498 260.514L129.492 254.466L128.094 249.855V241.314L129.832 236.363L134.179 230.013L140.831 225.931L143.287 225.062L150.884 224.419L154.248 225.062L161.013 228.426L162.261 228.69L162.374 227.821L160.22 223.096L158.897 215.689L158.859 183.071L160.635 180.841L173.637 180.426L178.324 165.043L178.966 138.208L180.062 135.978L181.423 135.336L207.577 134.731L218.273 130.687L221.146 122.183L224.887 117.232L229.839 112.81L235.206 110.126L237.662 109.257L245.259 108.615L249.946 109.257Z" fill="#4C4C4C"/>
<path fill-rule="evenodd" clip-rule="evenodd" d="M251.949 115.304L256.636 117.95L260.718 122.599L263.326 127.361L264.686 134.013L278.028 139.418L303.502 140.022L304.107 164.854L310.154 184.923L323.609 185.528L323.571 218.599L322.702 221.055L319.338 227.745L314.236 233.339L313.934 236.022L323.345 235.758L326.293 232.016L331.395 228.388L336.044 227.065H342.318L347.647 229.106L352.296 232.507L355.13 236.363L357.058 241.125V250.082L355.697 254.051L352.825 257.906L348.819 261.232L342.809 263.915H335.59L330.979 262.517L324.97 257.83L322.967 255.109L313.934 255.185L314.236 257.868L316.277 259.796L320.208 264.558L323.571 272.57L323.609 305.641L310.154 306.246L304.107 326.315L303.502 351.147L278.482 351.525L264.686 357.156L264.006 361.843L262.003 366.529L258.375 371.594L253.65 374.92L247.754 377.037H239.855L235.168 375.714L229.234 371.632L225.795 367.021L223.83 360.974L223.187 356.929L209.127 351.562L184.107 351.147L183.691 326.126L177.682 306.7L177.077 305.981L164 305.641L164.226 273.44L166.721 265.881L171.332 259.796L173.713 258.17L173.675 255.147H161.997L159.653 257.49L155.987 259.871L152.019 261.232H145.518L141.512 259.871L136.863 256.47L134.86 253.824L133.423 249.893V241.314L135.162 237.043L138.601 233.112L143.288 230.391L145.971 229.748H151.527L154.249 230.391L158.255 232.432L161.581 235.758L173.675 236.022L173.713 233.036L169.669 229.711L166.23 224.419L164.226 217.729L164 185.528L177.455 184.923L183.691 165.043L184.107 140.022L209.619 139.418L223.187 134.24L224.472 127.512L226.891 122.561L230.33 118.63L235.66 115.266L240.346 113.944H247.263L251.949 115.304Z" fill="#FFCF80"/>
<path fill-rule="evenodd" clip-rule="evenodd" d="M333.814 269.698L331.811 269.169L333.814 269.018V269.698Z" fill="#E5BA73"/>
<path fill-rule="evenodd" clip-rule="evenodd" d="M251.949 116.627L255.275 118.63L259.319 122.674L262.683 129.326L263.288 134.088L264.044 135.336L278.028 140.74L302.179 141.383L302.784 164.854L309.322 186.435L322.929 186.888L322.891 213.232L322.248 218.599L321.379 221.055L318.204 227.292L312.875 232.659L312.61 237.345L324.025 237.118L327.54 232.621L331.357 229.71L336.044 228.388L341.637 228.425L345.681 229.748L351.804 233.641L355.017 239.122L356.415 245.169L355.017 252.048L351.804 257.528L346.097 261.194L342.129 262.555L335.59 262.592L330.941 261.194L326.217 257.225L323.647 253.786L312.61 253.824L312.875 258.511L315.596 261.156L319.565 265.918L322.248 272.57L322.891 277.937L322.929 304.281L309.322 304.734L302.784 326.315L302.179 349.824L278.481 350.202L264.422 355.569L263.288 357.081L262.683 361.881L261.322 365.169L258.714 369.288L253.65 373.597L247.754 375.676H239.892L235.281 374.277L229.914 370.271L227.231 366.945L225.152 362.334L224.51 356.249L209.127 350.24L185.429 349.824L185.014 326.126L178.324 304.734L165.36 304.281L165.549 272.759L167.968 266.485L172.012 261.156L174.96 258.737L174.998 253.824L161.316 253.786L156.025 258.548L152.018 259.909H145.518L142.796 259.266L137.543 255.147L135.464 251.859L134.784 249.855V241.314L137.203 236.362L141.965 232.432L145.971 231.109H151.527L156.894 233.074L160.938 237.118L174.998 237.345L174.96 232.432L170.349 228.35L167.666 224.344L165.549 218.41L165.36 186.888L178.324 186.435L185.014 165.043L185.429 141.383L209.618 140.778L224.51 134.92L225.152 128.873L227.533 123.922L231.653 119.31L237.171 116.136L240.346 115.304H247.262L251.949 116.627Z" fill="#1A1A1A"/>
<path fill-rule="evenodd" clip-rule="evenodd" d="M279.351 133.408L306.185 134.013L309.549 136.659L310.154 163.531L314.84 178.876L326.292 179.519L328.9 180.917L329.996 183.978V214.819L329.656 216.142L329.316 216.104L328.976 182.844L326.973 180.841L314.198 180.237L309.474 164.854L308.869 138.019L306.866 135.336L280.031 134.731L269.789 130.914L269.524 129.856L270.166 129.704L279.351 133.408Z" fill="#FFCF80"/>
<path fill-rule="evenodd" clip-rule="evenodd" d="M329.165 220.148H328.636L328.976 217.465L329.165 220.148Z" fill="#FFCF80"/>
<path fill-rule="evenodd" clip-rule="evenodd" d="M349.65 223.059L356.377 227.707L359.136 230.996L361.744 235.758L362.803 239.575L362.462 240.898L358.381 231.751L353.014 226.422L348.327 223.739L344.321 222.378H334.078L331.357 223.059L328.711 224.495L327.351 224.646L327.54 222.567L328.333 220.866L328.9 222.605L329.278 222.265L334.04 221.018H343.678L349.65 223.059Z" fill="#FFCF80"/>
<path fill-rule="evenodd" clip-rule="evenodd" d="M343.678 233.717L347.004 235.795L349.763 239.046L351.01 241.805V249.402L350.368 251.405L348.327 254.051L344.169 257.263L340.768 257.868H337.631L334.229 257.225L330.979 255.147L328.295 252.463L326.935 249.175L319.98 248.721V242.447L326.935 242.032L328.598 238.366L332.944 234.662L334.683 233.717L340.277 233.074L343.678 233.717Z" fill="#FFCF80"/>
<path fill-rule="evenodd" clip-rule="evenodd" d="M363.445 243.544V247.626L363.143 248.986L362.802 248.948L362.765 241.616L363.143 241.541L363.445 243.544Z" fill="#FFCF80"/>
<path fill-rule="evenodd" clip-rule="evenodd" d="M361.971 254.315L361.329 254.164L361.782 252.237L361.971 254.315Z" fill="#FFCF80"/>
<path fill-rule="evenodd" clip-rule="evenodd" d="M355.395 263.651L353.203 265.767L351.993 265.578L355.168 263.046L355.395 263.651Z" fill="#FFCF80"/>
<path fill-rule="evenodd" clip-rule="evenodd" d="M331.13 268.375L328.9 267.884L328.447 270.303L327.502 268.64L327.351 266.561L328.22 266.448L331.13 268.375Z" fill="#FFCF80"/>
<path fill-rule="evenodd" clip-rule="evenodd" d="M153.795 267.052L151.074 266.863L153.757 266.448L153.795 267.052Z" fill="#FFCF80"/>
<path fill-rule="evenodd" clip-rule="evenodd" d="M343.905 269.698H333.813V269.018L343.867 269.169L343.905 269.698Z" fill="#FFCF80"/>
<path fill-rule="evenodd" clip-rule="evenodd" d="M329.278 270.983L329.127 273.704L328.447 270.303H328.938L329.278 270.983Z" fill="#FFCF80"/>
<path fill-rule="evenodd" clip-rule="evenodd" d="M329.996 276.35V307.229L329.694 307.909L329.278 307.871L329.127 273.704L329.656 273.742L329.996 276.35Z" fill="#FFCF80"/>
<path fill-rule="evenodd" clip-rule="evenodd" d="M326.519 311.197L314.387 311.008L326.481 310.706L326.519 311.197Z" fill="#FFCF80"/>
<path fill-rule="evenodd" clip-rule="evenodd" d="M313.102 317.207H312.421L312.913 315.166L313.102 317.207Z" fill="#FFCF80"/>
<path fill-rule="evenodd" clip-rule="evenodd" d="M312.421 319.247L311.854 319.172L311.968 317.471L312.421 317.207V319.247Z" fill="#FFCF80"/>
<path fill-rule="evenodd" clip-rule="evenodd" d="M311.099 323.896H310.418L310.91 321.855L311.099 323.896Z" fill="#FFCF80"/>
<path fill-rule="evenodd" clip-rule="evenodd" d="M310.419 325.937L309.852 325.862L309.965 324.161L310.419 323.896V325.937Z" fill="#FFCF80"/>
<path fill-rule="evenodd" clip-rule="evenodd" d="M309.889 327.903L309.625 352.734L309.209 352.659L309.549 326.58L309.889 327.903Z" fill="#FFCF80"/>
<path fill-rule="evenodd" clip-rule="evenodd" d="M306.45 356.741L280.258 356.514L306.412 356.211L306.45 356.741Z" fill="#FFCF80"/>
<path fill-rule="evenodd" clip-rule="evenodd" d="M269.6 363.43L269.033 363.355L269.373 361.314L269.6 363.43Z" fill="#FFCF80"/>
<path fill-rule="evenodd" clip-rule="evenodd" d="M259.697 378.095L258.828 378.926L257.581 378.7L259.47 377.528L259.697 378.095Z" fill="#FFCF80"/>
<path fill-rule="evenodd" clip-rule="evenodd" d="M249.53 382.819L245.448 382.668L249.492 382.29L249.53 382.819Z" fill="#FFCF80"/>
<path fill-rule="evenodd" clip-rule="evenodd" d="M270.166 129.704L269.524 129.855L269.751 127.739L270.166 129.704Z" fill="#E5BA73"/>
<path fill-rule="evenodd" clip-rule="evenodd" d="M329.996 214.819V183.978L330.261 184.243L329.996 214.819Z" fill="#E5BA73"/>
<path fill-rule="evenodd" clip-rule="evenodd" d="M329.543 219.922L329.165 220.148L328.976 217.465L329.316 216.104L329.656 216.142L329.543 219.922Z" fill="#E5BA73"/>
<path fill-rule="evenodd" clip-rule="evenodd" d="M329.278 222.265L328.9 222.605L328.333 220.867L328.636 220.148H329.165L329.278 222.265Z" fill="#E5BA73"/>
<path fill-rule="evenodd" clip-rule="evenodd" d="M363.143 241.541L362.765 241.616L362.462 240.898L362.803 239.575L363.105 239.802L363.143 241.541Z" fill="#E5BA73"/>
<path fill-rule="evenodd" clip-rule="evenodd" d="M363.445 247.626V243.544L363.71 243.808L363.445 247.626Z" fill="#E5BA73"/>
<path fill-rule="evenodd" clip-rule="evenodd" d="M363.294 249.666L361.971 254.315L361.782 252.236L362.803 248.948L363.143 248.986L363.294 249.666Z" fill="#E5BA73"/>
<path fill-rule="evenodd" clip-rule="evenodd" d="M360.837 257.188L356.793 263.235L355.395 263.651L355.168 263.046L359.061 258.095L361.329 254.164L361.971 254.315L360.837 257.188Z" fill="#E5BA73"/>
<path fill-rule="evenodd" clip-rule="evenodd" d="M159.728 265.654L157.99 265.843L156.705 266.599L153.795 267.052L153.757 266.448L159.199 264.142L160.22 264.482L159.728 265.654Z" fill="#E5BA73"/>
<path fill-rule="evenodd" clip-rule="evenodd" d="M143.023 266.863L141.02 266.523L143.061 266.334L143.023 266.863Z" fill="#E5BA73"/>
<path fill-rule="evenodd" clip-rule="evenodd" d="M153.568 267.43L143.741 267.166L147.105 266.863H151.074L153.795 267.052L153.568 267.43Z" fill="#E5BA73"/>
<path fill-rule="evenodd" clip-rule="evenodd" d="M331.13 268.375L331.092 268.829L329.392 269.244L328.938 270.303H328.447L328.9 267.884L331.13 268.375Z" fill="#E5BA73"/>
<path fill-rule="evenodd" clip-rule="evenodd" d="M350.066 267.846L343.905 269.698L343.867 269.169L351.993 265.578L353.203 265.767L350.066 267.846Z" fill="#E5BA73"/>
<path fill-rule="evenodd" clip-rule="evenodd" d="M343.64 270.114H334.078L333.813 269.698H343.905L343.64 270.114Z" fill="#E5BA73"/>
<path fill-rule="evenodd" clip-rule="evenodd" d="M329.656 273.742L329.127 273.704L329.278 270.983L329.618 271.247L329.656 273.742Z" fill="#E5BA73"/>
<path fill-rule="evenodd" clip-rule="evenodd" d="M329.996 307.229V276.35L330.223 276.615L329.996 307.229Z" fill="#E5BA73"/>
<path fill-rule="evenodd" clip-rule="evenodd" d="M328.9 310.252L326.519 311.197L326.481 310.706L329.278 307.871L329.694 307.909L328.9 310.252Z" fill="#E5BA73"/>
<path fill-rule="evenodd" clip-rule="evenodd" d="M173.07 311.84L161.089 311.386L172.995 311.424L173.07 311.84Z" fill="#E5BA73"/>
<path fill-rule="evenodd" clip-rule="evenodd" d="M326.255 311.613L315.219 311.991L313.102 317.207L312.913 315.166L314.387 311.008L326.519 311.197L326.255 311.613Z" fill="#E5BA73"/>
<path fill-rule="evenodd" clip-rule="evenodd" d="M312.421 319.247V317.207H313.102L312.421 319.247Z" fill="#E5BA73"/>
<path fill-rule="evenodd" clip-rule="evenodd" d="M311.099 323.896L310.91 321.855L311.855 319.172L312.422 319.247L311.099 323.896Z" fill="#E5BA73"/>
<path fill-rule="evenodd" clip-rule="evenodd" d="M310.418 325.937V323.896H311.099L310.418 325.937Z" fill="#E5BA73"/>
<path fill-rule="evenodd" clip-rule="evenodd" d="M309.889 327.903L309.549 326.58L309.851 325.862L310.418 325.937L309.889 327.903Z" fill="#E5BA73"/>
<path fill-rule="evenodd" clip-rule="evenodd" d="M309.587 354.511L308.264 355.909L306.45 356.741L306.412 356.211L308.907 353.15L309.209 352.659L309.625 352.734L309.587 354.511Z" fill="#E5BA73"/>
<path fill-rule="evenodd" clip-rule="evenodd" d="M207.313 357.232L181.159 356.892L207.351 356.665L207.313 357.232Z" fill="#E5BA73"/>
<path fill-rule="evenodd" clip-rule="evenodd" d="M306.185 357.118L279.804 357.572L271.073 360.898L269.599 363.43L269.373 361.314L269.826 360.255L280.258 356.514L306.45 356.74L306.185 357.118Z" fill="#E5BA73"/>
<path fill-rule="evenodd" clip-rule="evenodd" d="M269.373 365.206L266.387 371.594L261.398 377.339L259.697 378.095L259.47 377.528L263.325 373.862L266.689 368.532L269.032 363.354L269.599 363.43L269.373 365.206Z" fill="#E5BA73"/>
<path fill-rule="evenodd" clip-rule="evenodd" d="M257.127 380.4L249.53 382.819L249.492 382.29L257.58 378.699L258.828 378.926L257.127 380.4Z" fill="#E5BA73"/>
<path fill-rule="evenodd" clip-rule="evenodd" d="M249.266 383.235L238.759 382.97L242.16 382.668H245.449L249.53 382.819L249.266 383.235Z" fill="#E5BA73"/>
<path fill-rule="evenodd" clip-rule="evenodd" d="M344.396 239.046L347.042 242.448V248.759L344.396 252.123L340.806 253.9H336.913L332.982 251.783L331.357 249.1L340.995 248.722V242.448L331.319 241.805L333.36 239.122L337.404 237.118H340.315L344.396 239.046Z" fill="#1A1A1A"/>
<path fill-rule="evenodd" clip-rule="evenodd" d="M250.589 121.314L255.389 125.244L257.997 130.687V137.604L256.636 141.61L254.368 144.709L250.702 147.052L245.675 148.829L239.212 148.111L235.244 146.032L231.2 141.421L229.801 138.095L229.839 130.876L230.973 127.323L235.282 122.259L240.308 119.953L246.582 119.991L250.589 121.314Z" fill="#FFCF80"/>
<path fill-rule="evenodd" clip-rule="evenodd" d="M213.134 146.75L218.463 148.753L223.187 152.079L225.946 155.367L229.197 161.452L230.519 168.86L230.557 186.473L210.45 186.246L206.406 185.603L201.115 183.525L195.105 178.158L193.064 175.512L190.985 170.221L190.381 166.819L190.116 146.07H208.447L213.134 146.75Z" fill="#FFCF80"/>
<path fill-rule="evenodd" clip-rule="evenodd" d="M254.67 194.221L260.717 200.91L263.363 206.277L264.006 210.359L263.363 217.276L261.02 222.303L256.371 227.707L251.76 230.429L246.393 231.751H241.253L235.886 230.429L230.557 227.027L226.588 222.303L224.472 217.729L223.603 211.72L224.963 204.992L226.891 200.873L233.58 193.54L243.974 183.525L254.67 194.221Z" fill="#FFCF80"/>
<path fill-rule="evenodd" clip-rule="evenodd" d="M297.455 167.046L296.85 170.448L295.452 173.736L293.184 177.477L288.497 182.164L281.883 185.603L277.159 186.246L257.732 186.473L257.959 164.362L260.415 157.446L264.724 152.381L269.789 148.753L274.437 146.712L279.162 146.07H297.493L297.455 167.046Z" fill="#FFCF80"/>
<path fill-rule="evenodd" clip-rule="evenodd" d="M183.653 192.256L191.704 194.939L197.07 198.303L202.475 203.594L207.086 210.359L209.77 219.733L209.807 232.016L186.337 231.752L182.293 231.109L176.359 227.707L172.957 223.739L170.916 219.733L170.274 217.049L170.047 191.575L177.644 191.613L183.653 192.256Z" fill="#FFCF80"/>
<path fill-rule="evenodd" clip-rule="evenodd" d="M317.562 217.238L316.882 219.959L315.332 223.059L311.25 227.707L305.316 231.109L301.272 231.752L277.801 232.016L278.066 220.602L279.2 215.046L281.467 209.301L285.814 202.914L291.445 197.849L297.455 194.485L303.918 192.256L309.965 191.613L317.562 191.575V217.238Z" fill="#FFCF80"/>
<path fill-rule="evenodd" clip-rule="evenodd" d="M306.148 243.166L307.546 246.038L307.924 235.078H310.872V256.092L307.962 256.054L303.464 243.77L302.822 256.129H300.592V235.078L302.897 235.002L306.148 243.166Z" fill="#FFCF80"/>
<path fill-rule="evenodd" clip-rule="evenodd" d="M155.609 238.403L158.028 242.032L167.628 242.448V248.722L158.028 249.175L155.949 252.463L152.018 255.222H146.16L142.91 253.786L140.188 251.14L139.47 249.213V241.994L140.869 239.386L144.648 236.438L146.614 235.758H151.565L155.609 238.403Z" fill="#FFCF80"/>
<path fill-rule="evenodd" clip-rule="evenodd" d="M256.371 237.345V235.077H264.686V238.025L259.697 252.728L264.686 253.144V256.092H255.729L255.918 252.69L261.284 237.685L256.371 237.345Z" fill="#FFCF80"/>
<path fill-rule="evenodd" clip-rule="evenodd" d="M216.875 237.345V235.077H226.551V237.345L223.603 237.761L223.187 256.092H220.239L219.861 237.761L216.875 237.345Z" fill="#FFCF80"/>
<path fill-rule="evenodd" clip-rule="evenodd" d="M187.055 241.389H184.787L184.371 237.761H180.063V252.766H184.371L184.787 249.099L187.055 249.137L186.828 255.903H177.606L177.417 235.077H187.055V241.389Z" fill="#FFCF80"/>
<path fill-rule="evenodd" clip-rule="evenodd" d="M286.797 237.345L281.165 237.761V243.392L285.436 243.77V246.756L281.165 247.134V252.766L286.759 253.144V256.092H277.801V235.077H286.797V237.345Z" fill="#FFCF80"/>
<path fill-rule="evenodd" clip-rule="evenodd" d="M242.614 256.092H239.666V235.077H242.614V256.092Z" fill="#FFCF80"/>
<path fill-rule="evenodd" clip-rule="evenodd" d="M203.76 256.129H201.53V235.077H203.76V256.129Z" fill="#FFCF80"/>
<path fill-rule="evenodd" clip-rule="evenodd" d="M304.863 259.833L310.192 262.555L312.913 265.163L315.559 268.564L317.562 273.931V299.594L309.512 299.367L303.464 298.725L295.527 295.966L289.48 291.959L284.075 285.988L280.712 280.659L278.671 274.649L278.066 270.567L277.801 259.191H300.819L304.863 259.833Z" fill="#FFCF80"/>
<path fill-rule="evenodd" clip-rule="evenodd" d="M249.303 259.871L255.313 262.555L259.395 266.485L262.645 271.928L264.006 277.937L263.363 284.892L262.003 288.218L259.319 292.224L244.314 307.418H243.294L228.591 292.602L226.551 289.956L224.472 284.665L223.603 278.656L224.472 273.44L227.647 267.241L232.522 262.744L238.343 259.871L241.706 259.229H245.902L249.303 259.871Z" fill="#FFCF80"/>
<path fill-rule="evenodd" clip-rule="evenodd" d="M159.199 264.142L161.429 262.441L162.261 262.517L162.374 263.386L160.22 268.073L158.897 275.481L158.859 308.098L160.258 310.063L173.637 310.744L178.324 326.126L178.966 352.961L179.684 354.888L180.932 355.644L207.124 356.287L207.351 356.665L181.159 356.892L179.042 355.569L178.286 354.284L177.681 327.449L173.6 314.788L173.07 311.84L172.995 311.424L161.089 311.386L158.255 309.383L158.217 271.436L159.729 265.654L160.22 264.482L159.199 264.142Z" fill="#FFCF80"/>
<path fill-rule="evenodd" clip-rule="evenodd" d="M147.105 266.863L143.741 267.166L143.023 266.863L143.061 266.334L147.105 266.863Z" fill="#FFCF80"/>
<path fill-rule="evenodd" clip-rule="evenodd" d="M333.814 269.018L331.81 269.169L331.092 268.829L331.13 268.375L333.587 268.602L333.814 269.018Z" fill="#FFCF80"/>
<path fill-rule="evenodd" clip-rule="evenodd" d="M209.77 271.474L207.578 279.298L204.214 285.307L198.469 291.619L192.837 295.361L186.374 298.271L178.097 299.367L170.047 299.594L170.274 274.12L171.634 270.152L174.356 265.503L178.324 262.101L182.746 259.833L186.79 259.191H209.807L209.77 271.474Z" fill="#FFCF80"/>
<path fill-rule="evenodd" clip-rule="evenodd" d="M281.43 305.339L286.078 307.418L290.16 310.668L293.448 314.107L296.85 320.759L297.455 324.123L297.493 345.137L278.708 344.873L274.022 344.23L267.332 340.866L262.041 336.142L259.962 332.854L257.959 326.844L257.732 304.696L276.705 304.734L281.43 305.339Z" fill="#FFCF80"/>
<path fill-rule="evenodd" clip-rule="evenodd" d="M247.943 342.869L253.31 345.553L256.031 348.803L257.997 353.566V360.52L255.691 365.584L250.589 369.855L247.074 370.989L239.855 371.027L235.282 368.91L231.275 364.224L230.482 363.014L229.839 360.293L229.801 353.074L232.22 348.161L236.34 344.192L239.628 342.832L245.222 342.189L247.943 342.869Z" fill="#FFCF80"/>
<path fill-rule="evenodd" clip-rule="evenodd" d="M230.519 322.347L229.197 329.717L227.193 333.723L223.867 338.41L220.882 340.791L215.137 343.739L208.9 344.873L190.116 345.137L190.381 324.35L191.704 318.983L193.404 315.355L198.847 309.421L201.53 307.38L206.859 305.377L210.904 304.734L230.557 304.696L230.519 322.347Z" fill="#FFCF80"/>
<path fill-rule="evenodd" clip-rule="evenodd" d="M216.459 359.613L218.538 360.898L220.466 367.663L223.225 372.274L229.839 378.359L235.206 381.043L242.16 382.668L238.759 382.97L233.845 381.723L227.911 378.284L223.225 374.277L219.785 369.024L217.178 361.578L207.313 357.232L207.351 356.665L209.165 356.892L216.459 359.613Z" fill="#FFCF80"/>
<path fill-rule="evenodd" clip-rule="evenodd" d="M255.35 95.8396L260.642 97.8806L270.771 104.495L276.705 111.26L281.391 119.953L304.824 120.633L309.511 121.314L315.558 123.997L318.28 126.605L322.248 132.652L322.891 136.054L323.533 162.17L324.213 164.174L325.499 166.252L329.618 166.819L335.628 169.503L338.349 172.111L340.995 175.512L342.96 180.879L343.602 207.714L351.691 209.641L358.38 213.005L365.751 218.334L370.513 224.306L375.124 233.755L376.484 242.032H369.492L367.754 234.435L364.465 228.35L358.456 221.622L349.007 216.331L343.64 215.046L336.724 214.592L336.27 184.243L334.947 179.556L332.34 176.117L328.938 174.189L319.338 173.055L316.163 162.851L315.558 135.336L312.913 131.292L308.869 128.646L306.147 128.003L280.673 127.361L275.873 125.509L271.413 116.551L267.332 111.26L261.322 106.573L254.632 103.21L248.51 102L247.716 101.433V94.479L255.35 95.8396Z" fill="white"/>
<path fill-rule="evenodd" clip-rule="evenodd" d="M255.35 95.8396L260.642 97.8806L270.771 104.495L276.705 111.26L281.391 119.953L304.824 120.633L309.511 121.314L315.558 123.997L318.28 126.605L322.248 132.652L322.891 136.054L323.533 162.17L324.213 164.174L325.499 166.252L329.618 166.819L335.628 169.503L338.349 172.111L340.995 175.512L342.96 180.879L343.602 207.714L351.691 209.641L358.38 213.005L365.751 218.334L370.513 224.306L375.124 233.755L376.484 242.032H369.492L367.754 234.435L364.465 228.35L358.456 221.622L349.007 216.331L343.64 215.046L336.724 214.592L336.27 184.243L334.947 179.556L332.34 176.117L328.938 174.189L319.338 173.055L316.163 162.851L315.558 135.336L312.913 131.292L308.869 128.646L306.147 128.003L280.673 127.361L275.873 125.509L271.413 116.551L267.332 111.26L261.322 106.573L254.632 103.21L248.51 102L247.716 101.433V94.479L255.35 95.8396Z" fill="white"/>
<path fill-rule="evenodd" clip-rule="evenodd" d="M122.047 254.542L125.411 261.232L131.496 267.846L135.54 270.492L142.797 273.289L151.565 273.893L152.17 310.782L153.606 313.389L156.894 316.111L160.901 317.471L168.271 318.114L171.634 328.81L172.277 355.645L174.356 359.537L178.286 362.334L181.65 362.939L206.444 363.619L211.849 365.585L215.175 372.955L218.538 377.604L223.905 382.971L232.485 387.771L235.886 388.375L239.893 389.736V396.69L231.842 395.103L224.51 391.739L219.181 388.337L213.852 383.651L209.09 377.037L205.839 370.914L182.33 370.309L175.603 369.024L170.349 365.585L167.59 362.296L165.549 358.29L164.945 354.246L164.264 329.49L162.904 325.522L161.656 324.728L157.537 324.161L151.603 321.402L147.521 316.791L145.48 312.785L144.838 310.101L144.271 281.226L143.59 280.545L135.464 278.618L128.17 274.574L122.16 269.207L117.398 261.874L115.357 257.906L114.072 251.859L113.808 249.137H120.762L122.047 254.542Z" fill="white"/>
<path fill-rule="evenodd" clip-rule="evenodd" d="M375.124 257.414L371.76 264.784L366.431 272.155L360.459 276.879L353.013 280.847L343.602 283.493L342.96 310.29L342.317 312.973L340.768 316.11L336.686 320.721L331.584 323.669L325.952 324.728L324.743 325.521L323.533 328.999L322.891 355.115L322.248 358.517L320.018 362.296L316.617 366.265L311.514 369.175L305.278 370.309L281.769 370.914L276.705 379.909L272.094 385.314L263.703 391.663L255.766 395.103L247.716 396.69V389.736L249.001 389.018L255.124 387.77L263.741 383.008L267.332 379.909L272.699 372.539L275.873 365.66L281.165 363.619L306.639 362.977L310.645 361.616L314.198 358.517L315.558 355.833L316.163 328.318L319.338 318.114L328.938 317.018L333.02 314.372L335.665 310.328L336.27 306.926L336.724 276.577L344.132 275.972L350.33 274.158L358.456 269.547L363.521 263.877L366.204 259.871L368.396 254.731L369.492 249.137H376.484L375.124 257.414Z" fill="white"/>
<path fill-rule="evenodd" clip-rule="evenodd" d="M239.88 101.453L239.086 102.02L232.926 103.23L226.274 106.631L220.453 111.469L215.767 117.516L212.214 125.34L206.922 127.419L182.129 128.023L178.727 128.666L175.326 130.631L172.264 135.583L171.622 162.379L168.258 173.075L161.341 173.529L158.658 174.209L154.916 176.477L152.157 180.408L151.552 217.296L143.275 217.712L138.778 219.261L133.448 221.945L127.137 227.69L123.206 233.775L120.749 242.052H113.795L115.156 233.775L120.145 224.704L125.209 219.072L130.576 215.028L137.946 211.702L143.993 210.379L144.825 181.088L146.185 177.119L148.907 172.471L152.875 169.069L157.978 166.839L162.097 166.272L163.609 164.42L164.252 161.699L164.932 136.943L165.537 132.899L168.976 126.965L172.264 124.206L176.044 121.976L182.771 120.653L206.204 119.973L210.135 112.565L215.578 105.951L222.267 100.584L228.957 97.2203L232.283 95.8597L239.88 94.499V101.453Z" fill="white"/>
<path d="M155.306 323.216L156.856 324.01L151.791 321.44L148.806 318.454L147.747 317.396L145.177 312.293L144.27 306.662V280.885L136.56 278.958L129.454 275.405L123.332 270.341L118.456 264.067L115.319 257.301L115.092 256.885L113.429 249.1L120.686 249.137L122.538 256.167L124.654 259.947L126.128 262.517L131.193 267.77L137.429 271.512L144.421 273.591L148.806 273.742L144.61 273.591" stroke="black" stroke-width="0.665197" stroke-linecap="round" stroke-linejoin="round"/>
<path d="M144.61 217.427L148.806 217.314L144.421 217.427L137.429 219.506L131.193 223.248L126.091 228.501L122.538 234.851L120.686 241.918H113.429L115.092 234.133L118.456 226.951L121.971 222.416L119.476 225.629" stroke="black" stroke-width="0.665197" stroke-linecap="round" stroke-linejoin="round"/>
<path d="M119.477 265.427L121.971 268.602" stroke="black" stroke-width="0.665197" stroke-linecap="round" stroke-linejoin="round"/>
<path d="M116.68 260.211L115.319 257.301" stroke="black" stroke-width="0.665197" stroke-linecap="round" stroke-linejoin="round"/>
<path d="M121.971 222.416L123.332 220.677L129.455 215.613L136.56 212.06L144.27 210.17V205.597V209.83" stroke="black" stroke-width="0.665197" stroke-linecap="round" stroke-linejoin="round"/>
<path fill-rule="evenodd" clip-rule="evenodd" d="M127.338 251.821L127.829 252.879L127.111 250.725L127.338 251.821Z" stroke="black" stroke-width="0.665197" stroke-linecap="round" stroke-linejoin="round"/>
<path d="M127.83 252.879L127.867 253.03" stroke="black" stroke-width="0.665197" stroke-linecap="round" stroke-linejoin="round"/>
<path d="M127.111 250.649V250.725" stroke="black" stroke-width="0.665197" stroke-linecap="round" stroke-linejoin="round"/>
<path d="M126.696 247.625L126.431 245.698L126.696 243.392" stroke="black" stroke-width="0.665197" stroke-linecap="round" stroke-linejoin="round"/>
<path d="M126.582 246.794L126.469 245.509" stroke="black" stroke-width="0.665197" stroke-linecap="round" stroke-linejoin="round"/>
<path d="M127.111 240.482L127.225 239.462L127.867 238.063" stroke="black" stroke-width="0.665197" stroke-linecap="round" stroke-linejoin="round"/>
<path d="M127.111 240.331L127.829 238.139" stroke="black" stroke-width="0.665197" stroke-linecap="round" stroke-linejoin="round"/>
<path d="M129.643 257.15L129.379 256.508" stroke="black" stroke-width="0.665197" stroke-linecap="round" stroke-linejoin="round"/>
<path d="M129.417 256.621L129.644 257.074L129.455 256.659" stroke="black" stroke-width="0.665197" stroke-linecap="round" stroke-linejoin="round"/>
<path d="M129.379 256.508L129.606 256.961" stroke="black" stroke-width="0.665197" stroke-linecap="round" stroke-linejoin="round"/>
<path d="M129.644 257.074L130.551 258.435L131.873 259.947L131.533 259.531" stroke="black" stroke-width="0.665197" stroke-linecap="round" stroke-linejoin="round"/>
<path d="M131.874 259.947L133.574 261.874L137.203 264.671L141.36 266.637L145.782 267.733L150.393 267.884L154.891 267.128L159.162 265.465L160.258 264.86L163.055 261.572" stroke="black" stroke-width="0.665197" stroke-linecap="round" stroke-linejoin="round"/>
<path d="M129.341 234.548L129.719 233.906L129.455 234.359" stroke="black" stroke-width="0.665197" stroke-linecap="round" stroke-linejoin="round"/>
<path d="M129.417 234.435L130.551 232.583L133.574 229.144L137.203 226.347L141.36 224.381L145.782 223.285L150.393 223.134L154.891 223.89L159.162 225.553L160.182 226.12L159.162 223.474L157.915 218.523L157.499 213.383V184.356L157.763 182.807L158.444 181.408L159.578 180.312L160.938 179.594L162.488 179.329H172.768L173.297 180.085" stroke="black" stroke-width="0.665197" stroke-linecap="round" stroke-linejoin="round"/>
<path fill-rule="evenodd" clip-rule="evenodd" d="M136.258 254.24L135.351 253.144L133.574 248.155V242.863L135.351 237.874L138.677 233.792L140.415 232.734L138.601 233.755L135.275 237.874L133.461 242.863V247.625V248.155L135.275 253.144L138.601 257.263L140.415 258.359L138.677 257.225L136.258 254.24Z" stroke="black" stroke-width="0.665197" stroke-linecap="round" stroke-linejoin="round"/>
<path d="M136.787 256.016L138.11 257.641L134.671 253.408L132.856 248.23V242.788L134.671 237.61L138.11 233.377L136.787 235.002" stroke="black" stroke-width="0.665197" stroke-linecap="round" stroke-linejoin="round"/>
<path d="M153.001 231.298L153.606 231.374L157.196 233.339L153.681 231.411L148.541 230.58L143.515 231.562L139.092 234.17L135.842 238.139L134.104 242.939V248.079L135.464 251.821L135.842 252.917L139.13 256.885L143.59 259.455L148.541 260.438L153.681 259.607L157.196 257.717L153.606 259.644L153.001 259.72" stroke="black" stroke-width="0.665197" stroke-linecap="round" stroke-linejoin="round"/>
<path d="M138.11 257.641L142.759 260.514L148.088 261.685L153.001 261.043L151.187 261.27" stroke="black" stroke-width="0.665197" stroke-linecap="round" stroke-linejoin="round"/>
<path d="M151.376 255.298L153.001 254.542L151.451 255.26L148.012 255.6L144.762 254.844L141.965 253.03L139.81 250.309L138.714 247.21V243.808L139.848 240.596L141.965 237.95L144.799 236.174L148.012 235.418L151.376 235.72L153.001 236.476" stroke="black" stroke-width="0.665197" stroke-linecap="round" stroke-linejoin="round"/>
<path d="M138.11 233.377L142.267 230.807L140.415 231.941" stroke="black" stroke-width="0.665197" stroke-linecap="round" stroke-linejoin="round"/>
<path d="M140.415 279.903L144.27 280.886" stroke="black" stroke-width="0.665197" stroke-linecap="round" stroke-linejoin="round"/>
<path fill-rule="evenodd" clip-rule="evenodd" d="M144.346 260.211L143.212 259.985L140.415 258.359L143.136 259.985L144.61 260.287L144.346 260.211Z" stroke="black" stroke-width="0.665197" stroke-linecap="round" stroke-linejoin="round"/>
<path d="M141.284 259.607L142.267 260.211L140.415 259.077" stroke="black" stroke-width="0.665197" stroke-linecap="round" stroke-linejoin="round"/>
<path fill-rule="evenodd" clip-rule="evenodd" d="M140.415 232.734L143.212 231.033L144.61 230.769L143.136 231.033L140.415 232.734Z" stroke="black" stroke-width="0.665197" stroke-linecap="round" stroke-linejoin="round"/>
<path d="M141.965 232.47L143.59 231.562" stroke="black" stroke-width="0.665197" stroke-linecap="round" stroke-linejoin="round"/>
<path d="M141.209 231.449L142.759 230.504L148.088 229.333L153.001 229.975L151.225 229.748" stroke="black" stroke-width="0.665197" stroke-linecap="round" stroke-linejoin="round"/>
<path d="M144.27 210.17L140.415 211.115" stroke="black" stroke-width="0.665197" stroke-linecap="round" stroke-linejoin="round"/>
<path d="M144.271 205.597V184.356L145.178 178.725L147.748 173.622L146.463 176.23" stroke="black" stroke-width="0.665197" stroke-linecap="round" stroke-linejoin="round"/>
<path d="M146.462 314.788L147.747 317.396" stroke="black" stroke-width="0.665197" stroke-linecap="round" stroke-linejoin="round"/>
<path d="M148.806 273.742L151.678 273.818L151.489 277.635V306.662L152.056 310.101L153.606 313.162L156.062 315.581L159.086 317.131L162.525 317.698H168.308L171.71 328.961V352.167L172.239 355.569L173.826 358.63L176.245 361.049L178.135 362.032" stroke="black" stroke-width="0.665197" stroke-linecap="round" stroke-linejoin="round"/>
<path fill-rule="evenodd" clip-rule="evenodd" d="M148.39 261.043L144.61 260.287L148.314 261.043L148.806 260.967L148.39 261.043Z" stroke="black" stroke-width="0.665197" stroke-linecap="round" stroke-linejoin="round"/>
<path d="M148.806 260.967L153.568 260.325L158.254 257.868L161.921 253.975H174.771V257.793L170.425 261.648L169.744 262.593L167.136 266.448L165.095 271.853L164.377 277.635L164.34 304.848H177.832L184.598 327.071L184.56 350.353H207.804L223.792 356.325M223.792 356.325V356.249L224.51 361.994L226.853 367.323L230.595 371.745L235.432 374.882L240.988 376.545H246.771L252.327 374.882L257.165 371.745L260.944 367.323L261.889 365.207L260.944 367.399L257.203 371.821L252.327 374.996L246.771 376.659H240.988L235.432 374.996L230.557 371.821L226.815 367.399L224.51 362.07L223.792 356.325Z" stroke="black" stroke-width="0.665197" stroke-linecap="round" stroke-linejoin="round"/>
<path fill-rule="evenodd" clip-rule="evenodd" d="M144.61 230.769L148.39 229.975L148.806 230.051L148.314 229.975L144.61 230.769Z" stroke="black" stroke-width="0.665197" stroke-linecap="round" stroke-linejoin="round"/>
<path d="M148.806 217.314L151.678 217.2L151.489 213.383V184.356L152.018 180.955L153.606 177.855L156.025 175.436L159.124 173.887L162.525 173.32H168.308L171.71 162.057V138.888L172.239 135.487L173.826 132.388L176.169 130.007L178.135 128.986" stroke="black" stroke-width="0.665197" stroke-linecap="round" stroke-linejoin="round"/>
<path d="M147.748 173.622L151.792 169.616L156.894 167.008L155.307 167.802" stroke="black" stroke-width="0.665197" stroke-linecap="round" stroke-linejoin="round"/>
<path fill-rule="evenodd" clip-rule="evenodd" d="M153.001 254.542L154.399 253.862L156.818 251.556L158.368 248.533H158.443L156.932 251.556L154.513 253.862L153.001 254.542Z" stroke="black" stroke-width="0.665197" stroke-linecap="round" stroke-linejoin="round"/>
<path fill-rule="evenodd" clip-rule="evenodd" d="M153.001 236.476L154.399 237.156L156.818 239.462L158.368 242.485H158.443L156.932 239.499L154.513 237.156L153.001 236.476Z" stroke="black" stroke-width="0.665197" stroke-linecap="round" stroke-linejoin="round"/>
<path d="M148.806 230.051L153.568 230.693L158.254 233.15L161.845 237.043H174.771V233.226L170.425 229.37L168.535 226.611" stroke="black" stroke-width="0.665197" stroke-linecap="round" stroke-linejoin="round"/>
<path d="M169.744 364.64L167.968 362.863L165.398 357.799L164.491 352.167V330.019L162.941 324.917L156.856 324.01" stroke="black" stroke-width="0.665197" stroke-linecap="round" stroke-linejoin="round"/>
<path d="M154.891 267.128L155.987 266.674" stroke="black" stroke-width="0.665197" stroke-linecap="round" stroke-linejoin="round"/>
<path d="M155.08 260.211L153.53 261.005L153.001 261.043" stroke="black" stroke-width="0.665197" stroke-linecap="round" stroke-linejoin="round"/>
<path d="M160.824 256.016L158.406 258.548L155.08 260.211" stroke="black" stroke-width="0.665197" stroke-linecap="round" stroke-linejoin="round"/>
<path d="M155.08 230.807L153.492 230.013L153.001 229.975" stroke="black" stroke-width="0.665197" stroke-linecap="round" stroke-linejoin="round"/>
<path d="M155.08 230.807L158.406 232.47L162.185 236.4L161.391 235.569" stroke="black" stroke-width="0.665197" stroke-linecap="round" stroke-linejoin="round"/>
<path d="M154.891 223.89L155.987 224.344" stroke="black" stroke-width="0.665197" stroke-linecap="round" stroke-linejoin="round"/>
<path d="M156.894 167.008L162.941 166.139L164.491 160.999V138.851L165.398 133.219L167.968 128.155L170.311 125.811L169.744 126.378" stroke="black" stroke-width="0.665197" stroke-linecap="round" stroke-linejoin="round"/>
<path d="M160.258 264.86L159.199 267.581L157.914 272.533L157.499 277.635V306.662L157.763 308.211L158.443 309.61L159.577 310.706L160.976 311.424L162.488 311.688H172.768L173.297 310.933" stroke="black" stroke-width="0.665197" stroke-linecap="round" stroke-linejoin="round"/>
<path d="M159.048 272.797L160.069 268.602" stroke="black" stroke-width="0.665197" stroke-linecap="round" stroke-linejoin="round"/>
<path fill-rule="evenodd" clip-rule="evenodd" d="M157.196 257.717L158.179 257.188L159.199 256.016L158.103 257.188L157.196 257.717Z" stroke="black" stroke-width="0.665197" stroke-linecap="round" stroke-linejoin="round"/>
<path d="M160.22 256.659L162.185 254.618L161.391 255.449" stroke="black" stroke-width="0.665197" stroke-linecap="round" stroke-linejoin="round"/>
<path d="M159.2 256.016L161.392 253.559" stroke="black" stroke-width="0.665197" stroke-linecap="round" stroke-linejoin="round"/>
<path d="M159.275 255.865L161.58 253.333L161.391 253.559L161.505 253.333" stroke="black" stroke-width="0.665197" stroke-linecap="round" stroke-linejoin="round"/>
<path d="M158.443 248.533H167.93V242.485H158.443" stroke="black" stroke-width="0.665197" stroke-linecap="round" stroke-linejoin="round"/>
<path fill-rule="evenodd" clip-rule="evenodd" d="M159.199 235.002L158.179 233.83L157.196 233.339L158.103 233.83L161.581 237.685L159.199 235.002Z" stroke="black" stroke-width="0.665197" stroke-linecap="round" stroke-linejoin="round"/>
<path d="M158.406 232.47L160.825 235.002" stroke="black" stroke-width="0.665197" stroke-linecap="round" stroke-linejoin="round"/>
<path d="M163.055 229.446L160.182 226.12" stroke="black" stroke-width="0.665197" stroke-linecap="round" stroke-linejoin="round"/>
<path d="M161.392 228.501L162.223 229.03" stroke="black" stroke-width="0.665197" stroke-linecap="round" stroke-linejoin="round"/>
<path d="M164.491 344.192V339.997" stroke="black" stroke-width="0.665197" stroke-linecap="round" stroke-linejoin="round"/>
<path d="M181.423 318.983L182.33 321.931L177.341 305.49H163.697V277.673L164.378 271.814L164.567 271.361" stroke="black" stroke-width="0.665197" stroke-linecap="round" stroke-linejoin="round"/>
<path d="M274.475 351.751L278.67 350.164L263.325 355.909L262.759 361.578L260.566 366.832L256.938 371.216L252.176 374.391L246.733 376.016H241.026L235.584 374.391L230.822 371.216L228.403 368.268L227.193 366.832L225.001 361.578L224.434 355.909L207.918 349.748L185.203 349.711L185.165 327.033L178.286 304.243L164.982 304.205L164.944 277.673L165.662 271.966L167.703 266.599L168.875 264.936L171.029 261.912L175.338 258.133V253.408L161.581 253.333H165.549" stroke="black" stroke-width="0.665197" stroke-linecap="round" stroke-linejoin="round"/>
<path d="M165.096 271.852L166.305 268.602" stroke="black" stroke-width="0.665197" stroke-linecap="round" stroke-linejoin="round"/>
<path fill-rule="evenodd" clip-rule="evenodd" d="M164.755 270.794L164.377 271.815L165.549 268.677L164.755 270.794Z" stroke="black" stroke-width="0.665197" stroke-linecap="round" stroke-linejoin="round"/>
<path d="M163.773 261.043L162.223 263.499" stroke="black" stroke-width="0.665197" stroke-linecap="round" stroke-linejoin="round"/>
<path d="M162.186 254.618H174.091V257.49L169.745 261.421L166.456 266.296L165.549 268.677" stroke="black" stroke-width="0.665197" stroke-linecap="round" stroke-linejoin="round"/>
<path fill-rule="evenodd" clip-rule="evenodd" d="M161.694 237.685H161.581H165.549H161.694Z" stroke="black" stroke-width="0.665197" stroke-linecap="round" stroke-linejoin="round"/>
<path d="M162.186 236.4H174.091V233.528L169.745 229.597M169.745 229.597L167.741 226.611M169.745 229.597L171.105 230.807" stroke="black" stroke-width="0.665197" stroke-linecap="round" stroke-linejoin="round"/>
<path d="M166.305 222.416L165.096 219.166L167.137 224.57L168.535 226.611" stroke="black" stroke-width="0.665197" stroke-linecap="round" stroke-linejoin="round"/>
<path d="M165.096 219.166L164.378 213.383L164.34 186.171L164.378 188.816" stroke="black" stroke-width="0.665197" stroke-linecap="round" stroke-linejoin="round"/>
<path d="M164.453 219.392L164.378 219.203M164.378 219.203L165.587 222.416M164.378 219.203L163.697 213.345V185.566H177.341L180.176 176.23L178.891 180.426" stroke="black" stroke-width="0.665197" stroke-linecap="round" stroke-linejoin="round"/>
<path d="M165.02 214.026L164.944 213.383L165.662 219.09L167.741 224.457L171.029 229.144L175.338 232.923V237.685H165.549" stroke="black" stroke-width="0.665197" stroke-linecap="round" stroke-linejoin="round"/>
<path d="M164.944 213.383L164.982 186.813H178.286L185.165 164.06L185.203 142.63V146.825" stroke="black" stroke-width="0.665197" stroke-linecap="round" stroke-linejoin="round"/>
<path d="M164.34 186.17L165.549 186.208H164.378" stroke="black" stroke-width="0.665197" stroke-linecap="round" stroke-linejoin="round"/>
<path d="M169.744 364.64L172.012 366.907L177.076 369.477L182.708 370.384H203.269H199.073" stroke="black" stroke-width="0.665197" stroke-linecap="round" stroke-linejoin="round"/>
<path d="M208.296 276.992L206.935 280.848L203.004 287.084L197.789 292.262L191.552 296.192L184.598 298.649L177.266 299.443H169.669V277.673L170.614 271.89L173.259 266.674L177.379 262.517L182.671 259.871L188.453 258.926L190.683 258.964" stroke="black" stroke-width="0.665197" stroke-linecap="round" stroke-linejoin="round"/>
<path d="M167.741 264.407L169.744 261.421L171.105 260.211" stroke="black" stroke-width="0.665197" stroke-linecap="round" stroke-linejoin="round"/>
<path d="M168.535 264.407L170.425 261.647" stroke="black" stroke-width="0.665197" stroke-linecap="round" stroke-linejoin="round"/>
<path d="M167.93 248.533H168.006V242.485H167.93" stroke="black" stroke-width="0.665197" stroke-linecap="round" stroke-linejoin="round"/>
<path d="M167.741 226.611L166.456 224.722L165.587 222.416" stroke="black" stroke-width="0.665197" stroke-linecap="round" stroke-linejoin="round"/>
<path fill-rule="evenodd" clip-rule="evenodd" d="M190.683 232.092H210.223V224.495L209.392 217.163L206.973 210.208L203.042 204.01L200.472 201.402L197.826 198.794L191.552 194.826L184.598 192.369L177.266 191.575H169.669V213.345L170.614 219.128L173.259 224.344L177.455 228.501L182.671 231.147L188.453 232.092" stroke="black" stroke-width="0.665197" stroke-linecap="round" stroke-linejoin="round"/>
<path d="M177.871 186.208L184.598 163.947V163.607L177.871 186.208ZM177.871 186.208H165.549" stroke="black" stroke-width="0.665197" stroke-linecap="round" stroke-linejoin="round"/>
<path d="M217.933 360.671L217.291 361.163L206.595 357.156H182.708L181.159 356.892L179.76 356.211L178.664 355.077L177.946 353.679L177.719 352.167V328.054L172.768 311.688" stroke="black" stroke-width="0.665197" stroke-linecap="round" stroke-linejoin="round"/>
<path d="M207.464 133.559L211.622 131.972L206.595 133.862H182.708L181.159 134.126L179.76 134.807L178.664 135.94L177.946 137.339L177.719 138.851V162.964L172.768 179.329" stroke="black" stroke-width="0.665197" stroke-linecap="round" stroke-linejoin="round"/>
<path d="M170.312 125.811L172.012 124.148L176.926 121.616L173.94 123.128" stroke="black" stroke-width="0.665197" stroke-linecap="round" stroke-linejoin="round"/>
<path d="M176.925 369.402L173.939 367.89" stroke="black" stroke-width="0.665197" stroke-linecap="round" stroke-linejoin="round"/>
<path d="M177.833 304.848L184.598 327.411" stroke="black" stroke-width="0.665197" stroke-linecap="round" stroke-linejoin="round"/>
<path d="M177.568 255.827L177.984 256.016L178.626 256.129H185.807L186.488 256.016M186.488 256.016L186.903 255.827M186.488 256.016L186.601 255.978" stroke="black" stroke-width="0.665197" stroke-linecap="round" stroke-linejoin="round"/>
<path d="M186.903 255.827L187.206 255.487L187.395 255.109L187.508 254.429V249.137H184.409V253.03H180.025V237.761H184.409V241.654H187.508V236.363L187.395 235.682L187.206 235.267L186.865 234.964L185.845 234.662H178.626L177.946 234.775L177.454 235.04L177.19 235.304L177.001 235.72L176.925 236.363V254.429L177.001 255.071L177.228 255.525L177.568 255.827" stroke="black" stroke-width="0.665197" stroke-linecap="round" stroke-linejoin="round"/>
<path d="M178.135 128.986L179.306 128.419L182.746 127.852H205.499L212.151 125.395L213.7 121.616" stroke="black" stroke-width="0.665197" stroke-linecap="round" stroke-linejoin="round"/>
<path d="M199.073 120.633H203.269H182.708L176.925 121.616" stroke="black" stroke-width="0.665197" stroke-linecap="round" stroke-linejoin="round"/>
<path d="M203.269 370.384H204.213L206.406 371.216L209.732 377.868L214.191 383.802L219.71 388.791L226.021 392.684L228.402 393.591L232.976 395.367L240.27 396.69V389.433L232.673 387.695L225.719 384.18L219.747 379.153L215.136 372.841L212.151 365.66L205.499 363.166H182.746L179.306 362.636L178.135 362.032" stroke="black" stroke-width="0.665197" stroke-linecap="round" stroke-linejoin="round"/>
<path d="M180.176 314.788L179.155 311.5" stroke="black" stroke-width="0.665197" stroke-linecap="round" stroke-linejoin="round"/>
<path d="M180.176 176.23L182.33 169.087L181.423 172.035" stroke="black" stroke-width="0.665197" stroke-linecap="round" stroke-linejoin="round"/>
<path d="M184.598 350.278H207.842L223.791 356.249" stroke="black" stroke-width="0.665197" stroke-linecap="round" stroke-linejoin="round"/>
<path d="M210.336 351.978L211.621 352.47L207.691 350.996H183.917V327.222L182.33 321.931" stroke="black" stroke-width="0.665197" stroke-linecap="round" stroke-linejoin="round"/>
<path d="M185.203 348.388V344.192" stroke="black" stroke-width="0.665197" stroke-linecap="round" stroke-linejoin="round"/>
<path d="M184.56 350.353L184.598 348.388" stroke="black" stroke-width="0.665197" stroke-linecap="round" stroke-linejoin="round"/>
<path d="M182.33 169.087L183.917 163.796V140.06L207.691 140.022L211.621 138.548L210.185 139.077" stroke="black" stroke-width="0.665197" stroke-linecap="round" stroke-linejoin="round"/>
<path d="M184.598 163.607V140.74M184.598 140.74H207.842L223.792 134.769V134.693L207.804 140.665H184.56L184.598 140.74Z" stroke="black" stroke-width="0.665197" stroke-linecap="round" stroke-linejoin="round"/>
<path d="M184.598 142.63L184.56 140.665" stroke="black" stroke-width="0.665197" stroke-linecap="round" stroke-linejoin="round"/>
<path d="M185.203 142.63V141.345L207.918 141.307L224.434 135.109L225.001 129.44L227.193 124.262L230.406 120.331L230.822 119.84L235.546 116.665L241.026 115.002H246.733L249.341 115.758L252.214 116.665L256.938 119.84L260.566 124.262L262.759 129.44L263.325 135.109L278.67 140.854L274.475 139.267" stroke="black" stroke-width="0.665197" stroke-linecap="round" stroke-linejoin="round"/>
<path d="M188.755 349.711H186.525" stroke="black" stroke-width="0.665197" stroke-linecap="round" stroke-linejoin="round"/>
<path d="M229.763 327.411L229.65 328.13L227.382 333.648L223.754 338.334L219.03 341.963L213.549 344.23L207.691 345.024H189.965L189.927 327.298L190.721 321.44L192.989 315.922L193.858 314.788" stroke="black" stroke-width="0.665197" stroke-linecap="round" stroke-linejoin="round"/>
<path d="M187.206 235.266L187.395 235.682" stroke="black" stroke-width="0.665197" stroke-linecap="round" stroke-linejoin="round"/>
<path d="M186.525 234.775L186.941 235.002" stroke="black" stroke-width="0.665197" stroke-linecap="round" stroke-linejoin="round"/>
<path fill-rule="evenodd" clip-rule="evenodd" d="M189.965 163.871V145.994H207.691L213.587 146.788L219.105 149.093L223.792 152.721L227.382 157.408L229.65 162.888L230.444 168.784V186.548H215.817L211.622 186.397L206.822 185.717L201.303 183.449L196.617 179.821L192.988 175.096L190.721 169.616L189.965 163.871Z" stroke="black" stroke-width="0.665197" stroke-linecap="round" stroke-linejoin="round"/>
<path d="M188.755 141.307H186.525" stroke="black" stroke-width="0.665197" stroke-linecap="round" stroke-linejoin="round"/>
<path d="M193.858 314.788L196.617 311.197L197.373 310.593L196.655 311.122L194.878 313.427" stroke="black" stroke-width="0.665197" stroke-linecap="round" stroke-linejoin="round"/>
<path d="M208.296 276.992L209.354 273.893L210.223 266.561L210.185 258.964H190.683" stroke="black" stroke-width="0.665197" stroke-linecap="round" stroke-linejoin="round"/>
<path d="M193.858 176.23L192.988 175.096" stroke="black" stroke-width="0.665197" stroke-linecap="round" stroke-linejoin="round"/>
<path d="M197.373 310.592L201.303 307.569L206.821 305.301L203.269 306.775" stroke="black" stroke-width="0.665197" stroke-linecap="round" stroke-linejoin="round"/>
<path d="M196.617 311.197L196.654 311.122" stroke="black" stroke-width="0.665197" stroke-linecap="round" stroke-linejoin="round"/>
<path d="M197.373 180.425L196.655 179.896L194.878 177.591" stroke="black" stroke-width="0.665197" stroke-linecap="round" stroke-linejoin="round"/>
<path d="M199.073 181.748L201.379 183.525L206.859 185.792L207.464 185.868" stroke="black" stroke-width="0.665197" stroke-linecap="round" stroke-linejoin="round"/>
<path d="M204.138 251.821V234.662H201.077L201.039 256.13H204.138V251.821ZM204.138 251.821V256.016" stroke="black" stroke-width="0.665197" stroke-linecap="round" stroke-linejoin="round"/>
<path d="M203.269 120.633H204.213L206.406 119.84L209.694 113.226L212.869 109.03L211.621 110.618" stroke="black" stroke-width="0.665197" stroke-linecap="round" stroke-linejoin="round"/>
<path d="M206.821 305.301L207.464 305.226" stroke="black" stroke-width="0.665197" stroke-linecap="round" stroke-linejoin="round"/>
<path d="M206.973 210.208L208.296 214.026" stroke="black" stroke-width="0.665197" stroke-linecap="round" stroke-linejoin="round"/>
<path d="M211.622 352.47L223.149 356.778L223.981 362.599L226.437 367.966L230.292 372.426L235.281 375.638L240.951 377.301H246.847L252.478 375.638L257.467 372.426L260.113 369.402L257.694 372.161" stroke="black" stroke-width="0.665197" stroke-linecap="round" stroke-linejoin="round"/>
<path d="M207.464 305.225L212.717 304.507H215.817" stroke="black" stroke-width="0.665197" stroke-linecap="round" stroke-linejoin="round"/>
<path d="M211.622 186.397L212.755 186.548L212.718 186.511" stroke="black" stroke-width="0.665197" stroke-linecap="round" stroke-linejoin="round"/>
<path d="M211.622 138.548L223.149 134.24L223.981 128.419L223.754 130.007" stroke="black" stroke-width="0.665197" stroke-linecap="round" stroke-linejoin="round"/>
<path d="M213.7 369.402L212.151 365.66" stroke="black" stroke-width="0.665197" stroke-linecap="round" stroke-linejoin="round"/>
<path d="M215.817 304.507H228.403H224.207" stroke="black" stroke-width="0.665197" stroke-linecap="round" stroke-linejoin="round"/>
<path d="M215.817 186.548H212.755" stroke="black" stroke-width="0.665197" stroke-linecap="round" stroke-linejoin="round"/>
<path d="M217.933 130.347L217.291 129.893L211.622 131.972" stroke="black" stroke-width="0.665197" stroke-linecap="round" stroke-linejoin="round"/>
<path d="M213.7 121.616L215.136 118.177L219.747 111.903L225.681 106.838L232.673 103.323L240.27 101.585V94.3279L232.976 95.6885L226.021 98.3342L219.71 102.265L214.191 107.254L212.869 109.03" stroke="black" stroke-width="0.665197" stroke-linecap="round" stroke-linejoin="round"/>
<path d="M218.765 377.792L219.747 379.153" stroke="black" stroke-width="0.665197" stroke-linecap="round" stroke-linejoin="round"/>
<path d="M217.291 361.162L218.16 364.753L220.012 369.251L222.658 373.333L226.022 376.885L229.952 379.758L234.337 381.912L239.023 383.197L243.899 383.651L248.774 383.197L253.423 381.912L257.808 379.758L261.738 376.885L265.102 373.333L267.748 369.251L269.637 364.753L269.902 363.657L270.469 361.162L269.826 360.671" stroke="black" stroke-width="0.665197" stroke-linecap="round" stroke-linejoin="round"/>
<path d="M223.376 251.821V237.761H227.004V234.662H216.686L216.648 237.761H220.277V256.13H223.376V251.821ZM223.376 251.821V256.016" stroke="black" stroke-width="0.665197" stroke-linecap="round" stroke-linejoin="round"/>
<path d="M217.291 129.893L218.16 126.303L220.012 121.767L222.658 117.685L226.022 114.133L229.952 111.26L234.337 109.144L239.023 107.821L243.899 107.367L248.774 107.821L253.423 109.144L257.845 111.26L261.738 114.133L265.102 117.685L267.748 121.767L269.637 126.303L270.015 127.928" stroke="black" stroke-width="0.665197" stroke-linecap="round" stroke-linejoin="round"/>
<path d="M218.765 113.225L219.747 111.903" stroke="black" stroke-width="0.665197" stroke-linecap="round" stroke-linejoin="round"/>
<path d="M216.875 104.835L219.71 102.265" stroke="black" stroke-width="0.665197" stroke-linecap="round" stroke-linejoin="round"/>
<path d="M224.208 363.09L226.437 367.966L227.647 369.402" stroke="black" stroke-width="0.665197" stroke-linecap="round" stroke-linejoin="round"/>
<path d="M223.981 362.599L223.754 361.011" stroke="black" stroke-width="0.665197" stroke-linecap="round" stroke-linejoin="round"/>
<path d="M228.403 266.41L229.575 264.898L233.77 261.685L238.645 259.644L243.899 258.964L249.115 259.644L253.99 261.685L258.186 264.898L261.436 269.093L263.439 273.969L264.119 279.222L263.439 284.438L261.436 289.352L258.186 293.509L243.899 307.833L229.575 293.547L226.324 289.352L224.321 284.438L223.641 279.222L224.321 273.969L226.324 269.093L228.403 266.41ZM228.403 266.41L227.269 267.884" stroke="black" stroke-width="0.665197" stroke-linecap="round" stroke-linejoin="round"/>
<path d="M220.277 251.821V256.016" stroke="black" stroke-width="0.665197" stroke-linecap="round" stroke-linejoin="round"/>
<path d="M227.269 223.134L226.362 221.963L224.321 217.087L223.641 211.796L224.321 206.58L226.324 201.704L229.575 197.509L243.899 183.185L258.223 197.509L261.436 201.704L263.439 206.58L264.119 211.796L263.439 217.087L261.398 221.963L258.186 226.158L253.99 229.37L249.115 231.374L243.899 232.092L238.645 231.374L233.77 229.37L229.575 226.158L227.269 223.134ZM227.269 223.134L228.403 224.608" stroke="black" stroke-width="0.665197" stroke-linecap="round" stroke-linejoin="round"/>
<path d="M224.208 186.548H228.403" stroke="black" stroke-width="0.665197" stroke-linecap="round" stroke-linejoin="round"/>
<path d="M223.792 134.769L223.867 134.24L223.792 134.693" stroke="black" stroke-width="0.665197" stroke-linecap="round" stroke-linejoin="round"/>
<path d="M223.867 134.24L224.396 130.007" stroke="black" stroke-width="0.665197" stroke-linecap="round" stroke-linejoin="round"/>
<path d="M223.98 128.419L225.152 125.811L224.207 127.928" stroke="black" stroke-width="0.665197" stroke-linecap="round" stroke-linejoin="round"/>
<path d="M228.403 393.591L231.011 394.574" stroke="black" stroke-width="0.665197" stroke-linecap="round" stroke-linejoin="round"/>
<path d="M226.438 367.966L225.682 366.341" stroke="black" stroke-width="0.665197" stroke-linecap="round" stroke-linejoin="round"/>
<path fill-rule="evenodd" clip-rule="evenodd" d="M224.51 129.024L224.396 130.007L224.51 128.948L225.908 125.811L224.51 129.024Z" stroke="black" stroke-width="0.665197" stroke-linecap="round" stroke-linejoin="round"/>
<path d="M263.401 130.007L263.25 128.948L260.944 123.619L257.203 119.197L252.327 116.022L246.771 114.359H240.951L235.433 116.022L230.557 119.197L226.815 123.619L225.908 125.811L226.853 123.695L230.595 119.273L235.433 116.136L240.951 114.473H246.771L252.327 116.136L257.165 119.273L260.944 123.695L263.25 129.024L263.968 134.769M263.968 134.769V134.693L279.955 140.665H303.2L303.162 140.74H279.918L263.968 134.769Z" stroke="black" stroke-width="0.665197" stroke-linecap="round" stroke-linejoin="round"/>
<path d="M226.437 123.052L225.152 125.811L225.606 124.866L226.437 123.052ZM226.437 123.052L227.647 121.616" stroke="black" stroke-width="0.665197" stroke-linecap="round" stroke-linejoin="round"/>
<path d="M227.646 121.616L230.292 118.592L235.281 115.38L240.95 113.717H246.846L252.478 115.38L257.467 118.592L261.322 123.052L263.779 128.419L264.61 134.24L278.67 139.493L275.76 138.435" stroke="black" stroke-width="0.665197" stroke-linecap="round" stroke-linejoin="round"/>
<path d="M225.682 124.715L226.438 123.052" stroke="black" stroke-width="0.665197" stroke-linecap="round" stroke-linejoin="round"/>
<path d="M229.914 352.583L230.028 352.016L231.993 348.388L229.99 352.129L229.196 356.816L229.99 361.654L232.296 365.887L235.848 369.175L240.308 371.103L245.146 371.518L249.757 370.347L253.763 367.701L256.787 363.884L258.374 359.311M258.374 359.311V354.473L258.525 356.778L258.374 359.311Z" stroke="black" stroke-width="0.665197" stroke-linecap="round" stroke-linejoin="round"/>
<path fill-rule="evenodd" clip-rule="evenodd" d="M231.993 348.388L232.296 347.859L235.848 344.608L240.27 342.643L245.146 342.265L249.757 343.437L253.839 346.082L256.787 349.9L258.374 354.473L256.787 349.786L253.801 345.969L249.795 343.361L245.146 342.152L240.27 342.567L235.848 344.495L232.296 347.745L231.993 348.388Z" stroke="black" stroke-width="0.665197" stroke-linecap="round" stroke-linejoin="round"/>
<path d="M229.763 327.411L230.292 323.216" stroke="black" stroke-width="0.665197" stroke-linecap="round" stroke-linejoin="round"/>
<path d="M230.292 323.216L230.444 322.158" stroke="black" stroke-width="0.665197" stroke-linecap="round" stroke-linejoin="round"/>
<path d="M230.443 322.233V318.983V322.158" stroke="black" stroke-width="0.665197" stroke-linecap="round" stroke-linejoin="round"/>
<path d="M230.444 318.983V304.507H228.403" stroke="black" stroke-width="0.665197" stroke-linecap="round" stroke-linejoin="round"/>
<path d="M230.443 168.785V172.035" stroke="black" stroke-width="0.665197" stroke-linecap="round" stroke-linejoin="round"/>
<path d="M230.444 168.86L229.65 162.888" stroke="black" stroke-width="0.665197" stroke-linecap="round" stroke-linejoin="round"/>
<path fill-rule="evenodd" clip-rule="evenodd" d="M232.296 143.159L231.993 142.63L232.296 143.273L235.848 146.523L240.27 148.451L245.108 148.867L249.757 147.695L253.801 145.049L256.787 141.232L257.694 138.435L256.787 141.119L253.839 144.936L249.757 147.582L245.108 148.753L240.27 148.375L235.848 146.41L232.296 143.159Z" stroke="black" stroke-width="0.665197" stroke-linecap="round" stroke-linejoin="round"/>
<path fill-rule="evenodd" clip-rule="evenodd" d="M231.993 142.63L229.99 138.889L229.915 138.435L230.028 139.002L231.993 142.63Z" stroke="black" stroke-width="0.665197" stroke-linecap="round" stroke-linejoin="round"/>
<path d="M229.914 138.435L229.196 134.126L229.99 129.402L232.296 125.131L235.848 121.843L240.308 119.915L245.146 119.5L249.681 120.671L253.877 123.392L256.787 127.134L258.374 131.707M258.374 131.707V136.583M258.374 131.707L258.563 134.24L258.374 136.583M258.374 136.583L257.694 138.435" stroke="black" stroke-width="0.665197" stroke-linecap="round" stroke-linejoin="round"/>
<path d="M228.403 97.427L231.011 96.4443" stroke="black" stroke-width="0.665197" stroke-linecap="round" stroke-linejoin="round"/>
<path fill-rule="evenodd" clip-rule="evenodd" d="M240.951 256.13H239.477V234.662H242.576V256.13H240.951Z" stroke="black" stroke-width="0.665197" stroke-linecap="round" stroke-linejoin="round"/>
<path d="M242.576 256.016V247.625" stroke="black" stroke-width="0.665197" stroke-linecap="round" stroke-linejoin="round"/>
<path d="M312.157 360.407L313.971 358.63M313.971 358.63L314.878 356.778M313.971 358.63L311.514 361.049L308.453 362.637L305.052 363.166H282.261L275.609 365.66L272.623 372.841L268.995 377.792L268.012 379.153L262.078 384.18L255.086 387.695L247.489 389.433V396.69L254.784 395.367L261.738 392.684L268.05 388.791L273.568 383.802L278.066 377.868L281.354 371.216L283.584 370.385H291.218H287.023" stroke="black" stroke-width="0.665197" stroke-linecap="round" stroke-linejoin="round"/>
<path d="M270.28 104.268L268.05 102.265L261.738 98.3342L254.784 95.6885L247.489 94.3279V101.585L255.086 103.323L262.078 106.838L264.648 109.03L268.012 111.903L272.623 118.177L275.609 125.358L282.261 127.852H305.052L308.453 128.381L311.59 130.007L313.971 132.388L315.521 135.487L316.05 138.889V162.057L319.489 173.32H325.272L328.674 173.887L331.735 175.437L328.9 174" stroke="black" stroke-width="0.665197" stroke-linecap="round" stroke-linejoin="round"/>
<path d="M257.694 394.234L261.738 392.684" stroke="black" stroke-width="0.665197" stroke-linecap="round" stroke-linejoin="round"/>
<path d="M255.653 373.597L257.467 372.426" stroke="black" stroke-width="0.665197" stroke-linecap="round" stroke-linejoin="round"/>
<path fill-rule="evenodd" clip-rule="evenodd" d="M257.694 324.955L257.316 322.158L257.694 325.182V324.955Z" stroke="black" stroke-width="0.665197" stroke-linecap="round" stroke-linejoin="round"/>
<path d="M257.316 322.234V318.983V322.158" stroke="black" stroke-width="0.665197" stroke-linecap="round" stroke-linejoin="round"/>
<path d="M257.316 318.983V304.508H274.475H270.28" stroke="black" stroke-width="0.665197" stroke-linecap="round" stroke-linejoin="round"/>
<path fill-rule="evenodd" clip-rule="evenodd" d="M255.351 256.016V256.13H265.177V253.03H259.206L265.177 236.741V234.662H255.918L255.88 237.761H261.284L255.351 254.202" stroke="black" stroke-width="0.665197" stroke-linecap="round" stroke-linejoin="round"/>
<path d="M257.316 168.785V168.861L257.467 167.802L257.316 168.785ZM257.316 168.785V186.549H274.475H270.28" stroke="black" stroke-width="0.665197" stroke-linecap="round" stroke-linejoin="round"/>
<path d="M257.316 172.035V168.86" stroke="black" stroke-width="0.665197" stroke-linecap="round" stroke-linejoin="round"/>
<path d="M257.467 167.802L257.694 165.874" stroke="black" stroke-width="0.665197" stroke-linecap="round" stroke-linejoin="round"/>
<path d="M257.467 118.593L255.653 117.421" stroke="black" stroke-width="0.665197" stroke-linecap="round" stroke-linejoin="round"/>
<path d="M257.694 118.857L260.113 121.616" stroke="black" stroke-width="0.665197" stroke-linecap="round" stroke-linejoin="round"/>
<path d="M257.694 96.7849L261.738 98.3345" stroke="black" stroke-width="0.665197" stroke-linecap="round" stroke-linejoin="round"/>
<path d="M260.113 369.402L261.322 367.966L263.779 362.599L264.61 356.779L264.006 361.012" stroke="black" stroke-width="0.665197" stroke-linecap="round" stroke-linejoin="round"/>
<path d="M257.996 327.412L258.109 328.13L260.377 333.648L264.006 338.335L268.73 341.963L274.21 344.231L280.106 345.024H297.832V327.298L297.076 321.44L294.771 315.922L293.939 314.788" stroke="black" stroke-width="0.665197" stroke-linecap="round" stroke-linejoin="round"/>
<path d="M257.996 327.412L257.694 325.182" stroke="black" stroke-width="0.665197" stroke-linecap="round" stroke-linejoin="round"/>
<path d="M258.11 328.054L258.072 327.903" stroke="black" stroke-width="0.665197" stroke-linecap="round" stroke-linejoin="round"/>
<path d="M258.186 264.898L258.488 265.276" stroke="black" stroke-width="0.665197" stroke-linecap="round" stroke-linejoin="round"/>
<path d="M259.244 243.393L259.319 243.241" stroke="black" stroke-width="0.665197" stroke-linecap="round" stroke-linejoin="round"/>
<path d="M258.186 226.158L258.526 225.705" stroke="black" stroke-width="0.665197" stroke-linecap="round" stroke-linejoin="round"/>
<path d="M274.475 186.548H275.004L280.938 185.717L286.38 183.525L291.143 179.821L294.771 175.096L297.039 169.616L297.832 163.72V145.994H280.106L274.21 146.788L268.73 149.055L264.006 152.684L260.377 157.37L258.11 162.888L257.694 165.874" stroke="black" stroke-width="0.665197" stroke-linecap="round" stroke-linejoin="round"/>
<path d="M257.996 163.607L258.109 162.888" stroke="black" stroke-width="0.665197" stroke-linecap="round" stroke-linejoin="round"/>
<path d="M258.11 162.964L258.072 163.116" stroke="black" stroke-width="0.665197" stroke-linecap="round" stroke-linejoin="round"/>
<path fill-rule="evenodd" clip-rule="evenodd" d="M261.889 365.207L263.25 361.994L263.401 361.011L263.25 362.069L261.889 365.207Z" stroke="black" stroke-width="0.665197" stroke-linecap="round" stroke-linejoin="round"/>
<path d="M263.401 361.012L263.968 356.25L263.93 356.779" stroke="black" stroke-width="0.665197" stroke-linecap="round" stroke-linejoin="round"/>
<path d="M264.157 359.915L264.611 356.778L278.671 351.525L275.76 352.583L277.423 351.978" stroke="black" stroke-width="0.665197" stroke-linecap="round" stroke-linejoin="round"/>
<path d="M263.968 356.325L279.955 350.353H303.199L303.162 350.278H279.917L263.968 356.249" stroke="black" stroke-width="0.665197" stroke-linecap="round" stroke-linejoin="round"/>
<path d="M265.177 253.03V256.016" stroke="black" stroke-width="0.665197" stroke-linecap="round" stroke-linejoin="round"/>
<path d="M263.968 134.693L263.93 134.24" stroke="black" stroke-width="0.665197" stroke-linecap="round" stroke-linejoin="round"/>
<path d="M264.157 131.103L264.611 134.24L264.006 130.007" stroke="black" stroke-width="0.665197" stroke-linecap="round" stroke-linejoin="round"/>
<path d="M262.078 106.838L264.648 109.03" stroke="black" stroke-width="0.665197" stroke-linecap="round" stroke-linejoin="round"/>
<path d="M314.462 180.086L314.954 179.405L310.04 162.964V138.851L309.814 137.339L309.095 135.941L307.999 134.845L306.828 134.24L305.051 133.862H281.165L270.469 129.894L269.826 130.347" stroke="black" stroke-width="0.665197" stroke-linecap="round" stroke-linejoin="round"/>
<path d="M269.637 126.303L270.469 129.894" stroke="black" stroke-width="0.665197" stroke-linecap="round" stroke-linejoin="round"/>
<path d="M270.28 104.268L273.568 107.254L278.066 113.226L274.929 109.031" stroke="black" stroke-width="0.665197" stroke-linecap="round" stroke-linejoin="round"/>
<path d="M270.469 361.163L281.165 357.156H305.051L306.601 356.892L307.962 356.211L309.096 355.078L309.814 353.679L310.04 352.167V328.054L314.992 311.689L314.462 310.933" stroke="black" stroke-width="0.665197" stroke-linecap="round" stroke-linejoin="round"/>
<path d="M274.475 353.075L275.533 352.697" stroke="black" stroke-width="0.665197" stroke-linecap="round" stroke-linejoin="round"/>
<path d="M275.004 304.469L274.475 304.507L278.67 304.999L275.004 304.469ZM275.004 304.469L275.042 304.507" stroke="black" stroke-width="0.665197" stroke-linecap="round" stroke-linejoin="round"/>
<path d="M274.475 137.944L275.609 138.359" stroke="black" stroke-width="0.665197" stroke-linecap="round" stroke-linejoin="round"/>
<path d="M278.67 304.999L280.938 305.301" stroke="black" stroke-width="0.665197" stroke-linecap="round" stroke-linejoin="round"/>
<path d="M299.344 258.964L305.127 259.871L310.343 262.517L314.5 266.675L317.184 271.89L318.091 277.673V299.443H310.494L303.162 298.649L296.207 296.193L289.971 292.262L284.755 287.084L280.825 280.848L278.406 273.894L277.537 266.561L277.574 258.964H299.344ZM299.344 258.964H295.414" stroke="black" stroke-width="0.665197" stroke-linecap="round" stroke-linejoin="round"/>
<path d="M278.406 273.894L279.502 276.993" stroke="black" stroke-width="0.665197" stroke-linecap="round" stroke-linejoin="round"/>
<path d="M277.915 256.016V256.13H286.721V253.031H281.014V246.832H285.927V243.695H281.014V237.761H286.721V234.662H277.915V256.016ZM277.915 256.016V251.821" stroke="black" stroke-width="0.665197" stroke-linecap="round" stroke-linejoin="round"/>
<path d="M295.414 232.092H299.307H277.537V224.495L278.368 217.163L279.502 214.026" stroke="black" stroke-width="0.665197" stroke-linecap="round" stroke-linejoin="round"/>
<path d="M278.67 186.095L280.9 185.793L286.381 183.525" stroke="black" stroke-width="0.665197" stroke-linecap="round" stroke-linejoin="round"/>
<path d="M278.67 139.493L280.069 140.023H303.842V163.796L310.418 185.566H324.063V213.345L323.382 219.204L321.303 224.722" stroke="black" stroke-width="0.665197" stroke-linecap="round" stroke-linejoin="round"/>
<path d="M278.67 140.854L279.842 141.307H299.609H299.004" stroke="black" stroke-width="0.665197" stroke-linecap="round" stroke-linejoin="round"/>
<path d="M278.065 113.226L281.354 119.84L283.584 120.633H291.218H287.023" stroke="black" stroke-width="0.665197" stroke-linecap="round" stroke-linejoin="round"/>
<path d="M305.052 323.216L303.842 327.222V350.996H280.069L278.67 351.525" stroke="black" stroke-width="0.665197" stroke-linecap="round" stroke-linejoin="round"/>
<path d="M278.67 350.164L279.842 349.748L299.609 349.711H299.004" stroke="black" stroke-width="0.665197" stroke-linecap="round" stroke-linejoin="round"/>
<path d="M280.938 305.301L282.828 306.095L280.9 305.226" stroke="black" stroke-width="0.665197" stroke-linecap="round" stroke-linejoin="round"/>
<path d="M279.502 214.026L280.787 210.208L282.828 206.996L281.089 209.83" stroke="black" stroke-width="0.665197" stroke-linecap="round" stroke-linejoin="round"/>
<path d="M282.828 206.996L284.717 204.01L289.933 198.794L296.207 194.826L303.162 192.369L310.494 191.575H318.091V213.345L317.184 219.128L314.5 224.344L310.305 228.501L305.089 231.147L299.306 232.092" stroke="black" stroke-width="0.665197" stroke-linecap="round" stroke-linejoin="round"/>
<path d="M286.456 307.569L282.828 306.095L286.38 307.493L287.023 308.023" stroke="black" stroke-width="0.665197" stroke-linecap="round" stroke-linejoin="round"/>
<path d="M291.218 370.385H305.051L310.683 369.478L315.747 366.908L319.791 362.864L317.448 365.207" stroke="black" stroke-width="0.665197" stroke-linecap="round" stroke-linejoin="round"/>
<path fill-rule="evenodd" clip-rule="evenodd" d="M291.143 311.197L290.425 310.593L291.219 311.273L291.143 311.197Z" stroke="black" stroke-width="0.665197" stroke-linecap="round" stroke-linejoin="round"/>
<path d="M287.023 308.023L290.425 310.593" stroke="black" stroke-width="0.665197" stroke-linecap="round" stroke-linejoin="round"/>
<path d="M290.425 180.426L291.219 179.745" stroke="black" stroke-width="0.665197" stroke-linecap="round" stroke-linejoin="round"/>
<path d="M291.218 120.634H305.051L310.683 121.541L315.747 124.149L312.157 122.297" stroke="black" stroke-width="0.665197" stroke-linecap="round" stroke-linejoin="round"/>
<path d="M291.218 311.273L293.94 314.788" stroke="black" stroke-width="0.665197" stroke-linecap="round" stroke-linejoin="round"/>
<path d="M294.771 175.096L293.939 176.23" stroke="black" stroke-width="0.665197" stroke-linecap="round" stroke-linejoin="round"/>
<path d="M303.199 324.955L303.729 323.216L302.595 327.034V349.711H299.609" stroke="black" stroke-width="0.665197" stroke-linecap="round" stroke-linejoin="round"/>
<path d="M303.162 350.278L303.199 348.388V350.353" stroke="black" stroke-width="0.665197" stroke-linecap="round" stroke-linejoin="round"/>
<path d="M303.199 348.388L303.162 327.072L309.965 304.848L303.199 327.109V327.412" stroke="black" stroke-width="0.665197" stroke-linecap="round" stroke-linejoin="round"/>
<path d="M303.729 323.216L309.473 304.243L322.815 304.205V298.007V301.938" stroke="black" stroke-width="0.665197" stroke-linecap="round" stroke-linejoin="round"/>
<path d="M303.351 256.016V251.821V256.13H300.251V251.821V256.016" stroke="black" stroke-width="0.665197" stroke-linecap="round" stroke-linejoin="round"/>
<path d="M303.351 251.821V244.186L303.162 242.637L308.075 256.13H310.834V251.821V256.016" stroke="black" stroke-width="0.665197" stroke-linecap="round" stroke-linejoin="round"/>
<path d="M310.834 251.821V234.662H307.962H307.735V235.002V246.341L307.962 247.89L303.048 234.662H300.251V251.821" stroke="black" stroke-width="0.665197" stroke-linecap="round" stroke-linejoin="round"/>
<path d="M303.729 167.802L303.2 166.063L309.474 186.813H322.815V213.383L322.097 219.09L320.019 224.457L316.73 229.144L312.422 232.923V237.686H323.307H320.548" stroke="black" stroke-width="0.665197" stroke-linecap="round" stroke-linejoin="round"/>
<path fill-rule="evenodd" clip-rule="evenodd" d="M303.162 163.947L309.889 186.208L303.199 163.909V163.607L303.162 163.947Z" stroke="black" stroke-width="0.665197" stroke-linecap="round" stroke-linejoin="round"/>
<path d="M303.199 166.064L302.595 164.06V163.607V141.345L299.609 141.308" stroke="black" stroke-width="0.665197" stroke-linecap="round" stroke-linejoin="round"/>
<path d="M303.162 140.741L303.199 163.607" stroke="black" stroke-width="0.665197" stroke-linecap="round" stroke-linejoin="round"/>
<path d="M303.2 140.665V142.63" stroke="black" stroke-width="0.665197" stroke-linecap="round" stroke-linejoin="round"/>
<path d="M305.052 323.216L307.584 314.788L306.337 318.983" stroke="black" stroke-width="0.665197" stroke-linecap="round" stroke-linejoin="round"/>
<path d="M307.584 314.788L310.419 305.49H324.063V277.673L323.496 272.797L323.987 276.992" stroke="black" stroke-width="0.665197" stroke-linecap="round" stroke-linejoin="round"/>
<path d="M304.976 247.626L304.787 247.172" stroke="black" stroke-width="0.665197" stroke-linecap="round" stroke-linejoin="round"/>
<path d="M307.735 246.341L307.773 246.568" stroke="black" stroke-width="0.665197" stroke-linecap="round" stroke-linejoin="round"/>
<path d="M307.584 176.23L306.336 172.035" stroke="black" stroke-width="0.665197" stroke-linecap="round" stroke-linejoin="round"/>
<path d="M305.051 167.802L303.842 163.796" stroke="black" stroke-width="0.665197" stroke-linecap="round" stroke-linejoin="round"/>
<path d="M309.965 304.848H323.458V277.673L322.74 271.89L320.699 266.448L319.263 264.407" stroke="black" stroke-width="0.665197" stroke-linecap="round" stroke-linejoin="round"/>
<path d="M309.889 186.208H323.382V213.383L322.664 219.166L320.623 224.571L319.262 226.612L317.335 229.371L312.988 233.226L313.026 237.043H322.929L326.33 232.583L328.825 230.807L330.903 229.333L336.27 227.632L341.864 227.708L345.681 228.955L341.94 227.67H341.486" stroke="black" stroke-width="0.665197" stroke-linecap="round" stroke-linejoin="round"/>
<path d="M312.157 130.612L313.971 132.388" stroke="black" stroke-width="0.665197" stroke-linecap="round" stroke-linejoin="round"/>
<path d="M315.748 366.907L312.157 368.722" stroke="black" stroke-width="0.665197" stroke-linecap="round" stroke-linejoin="round"/>
<path d="M314.878 356.778L315.521 355.569L316.05 352.167V328.961L319.452 317.698H325.272L328.674 317.169" stroke="black" stroke-width="0.665197" stroke-linecap="round" stroke-linejoin="round"/>
<path d="M328.976 269.358L328.9 268.602L329.959 273.402L330.261 277.635V306.7L330.034 308.211L329.316 309.61L328.22 310.706L326.822 311.424L325.272 311.689H314.992" stroke="black" stroke-width="0.665197" stroke-linecap="round" stroke-linejoin="round"/>
<path d="M319.263 264.407L317.373 261.648L313.026 257.793V253.975H323.004L326.368 258.473L330.941 261.723L336.308 263.386L341.864 263.311L345.681 262.101L341.94 263.349H341.486" stroke="black" stroke-width="0.665197" stroke-linecap="round" stroke-linejoin="round"/>
<path d="M322.815 298.007V277.673L322.097 271.966L320.056 266.599L316.73 261.912L312.421 258.133V253.408L323.306 253.333H320.547" stroke="black" stroke-width="0.665197" stroke-linecap="round" stroke-linejoin="round"/>
<path fill-rule="evenodd" clip-rule="evenodd" d="M314.803 258.511L313.669 257.49L316.352 259.909L314.803 258.511Z" stroke="black" stroke-width="0.665197" stroke-linecap="round" stroke-linejoin="round"/>
<path d="M316.352 259.909L318.015 261.421L321.303 266.296L323.382 271.814L323.495 272.797" stroke="black" stroke-width="0.665197" stroke-linecap="round" stroke-linejoin="round"/>
<path d="M313.669 257.49V254.618H322.626L326.179 259.153L328.9 261.043L327.691 260.211" stroke="black" stroke-width="0.665197" stroke-linecap="round" stroke-linejoin="round"/>
<path d="M316.352 231.109L313.669 233.528V236.4H322.626L326.179 231.865L328.9 229.975L327.691 230.807" stroke="black" stroke-width="0.665197" stroke-linecap="round" stroke-linejoin="round"/>
<path d="M314.954 179.405L325.272 179.33L326.822 179.594L328.334 180.426L329.316 181.408L330.034 182.807L330.261 184.356V213.383L329.959 217.616L329.127 221.736L328.825 222.681L327.238 224.533" stroke="black" stroke-width="0.665197" stroke-linecap="round" stroke-linejoin="round"/>
<path d="M315.748 124.148L319.792 128.155L317.486 125.811" stroke="black" stroke-width="0.665197" stroke-linecap="round" stroke-linejoin="round"/>
<path d="M319.792 362.863L322.399 357.799L323.193 352.583L323.269 339.997V344.193" stroke="black" stroke-width="0.665197" stroke-linecap="round" stroke-linejoin="round"/>
<path d="M318.015 261.421L316.692 260.212" stroke="black" stroke-width="0.665197" stroke-linecap="round" stroke-linejoin="round"/>
<path fill-rule="evenodd" clip-rule="evenodd" d="M319.829 247.626V248.533H319.754V242.485H319.829V247.626Z" stroke="black" stroke-width="0.665197" stroke-linecap="round" stroke-linejoin="round"/>
<path d="M319.83 248.533H326.784L328.485 252.463L331.433 255.6L333.096 256.508L331.886 255.865L332.189 256.016" stroke="black" stroke-width="0.665197" stroke-linecap="round" stroke-linejoin="round"/>
<path d="M319.83 242.485H326.784L328.485 238.555L331.433 235.418L332.189 235.002L331.357 235.418L328.409 238.555L326.671 242.485" stroke="black" stroke-width="0.665197" stroke-linecap="round" stroke-linejoin="round"/>
<path d="M316.352 231.109L318.015 229.598L321.303 224.722" stroke="black" stroke-width="0.665197" stroke-linecap="round" stroke-linejoin="round"/>
<path d="M320.623 224.571L319.263 226.612" stroke="black" stroke-width="0.665197" stroke-linecap="round" stroke-linejoin="round"/>
<path d="M319.792 128.155L322.399 133.219L323.269 138.889V160.999L324.818 166.139L330.903 167.008L335.968 169.616L333.095 168.142" stroke="black" stroke-width="0.665197" stroke-linecap="round" stroke-linejoin="round"/>
<path d="M333.095 322.876L335.968 321.44L330.903 324.01L324.818 324.917L323.269 330.019V339.997" stroke="black" stroke-width="0.665197" stroke-linecap="round" stroke-linejoin="round"/>
<path d="M323.382 271.815L321.303 266.297" stroke="black" stroke-width="0.665197" stroke-linecap="round" stroke-linejoin="round"/>
<path d="M324.743 257.339L326.179 259.153" stroke="black" stroke-width="0.665197" stroke-linecap="round" stroke-linejoin="round"/>
<path d="M323.382 253.333L326.822 258.019L328.9 259.531L326.746 258.019L323.307 253.333" stroke="black" stroke-width="0.665197" stroke-linecap="round" stroke-linejoin="round"/>
<path d="M323.382 237.685L325.31 235.002L323.307 237.685" stroke="black" stroke-width="0.665197" stroke-linecap="round" stroke-linejoin="round"/>
<path d="M324.743 233.679L326.179 231.865" stroke="black" stroke-width="0.665197" stroke-linecap="round" stroke-linejoin="round"/>
<path d="M323.987 214.026L323.496 218.221" stroke="black" stroke-width="0.665197" stroke-linecap="round" stroke-linejoin="round"/>
<path d="M322.74 214.026L322.815 213.383" stroke="black" stroke-width="0.665197" stroke-linecap="round" stroke-linejoin="round"/>
<path d="M322.815 189.081V193.012" stroke="black" stroke-width="0.665197" stroke-linecap="round" stroke-linejoin="round"/>
<path d="M328.673 317.169L331.735 315.581L333.095 314.221L334.154 313.163L335.741 310.063L336.27 306.7L336.232 276.35L341.486 276.237L337.291 276.35" stroke="black" stroke-width="0.665197" stroke-linecap="round" stroke-linejoin="round"/>
<path d="M328.9 268.413L329.883 268.602L328.862 268.375L328.9 268.602L328.674 268.149L327.237 266.486" stroke="black" stroke-width="0.665197" stroke-linecap="round" stroke-linejoin="round"/>
<path d="M328.9 261.043L330.941 262.404L336.459 264.067L341.486 263.953L337.291 264.029" stroke="black" stroke-width="0.665197" stroke-linecap="round" stroke-linejoin="round"/>
<path d="M326.67 248.533L328.409 252.464L331.357 255.601L331.886 255.865" stroke="black" stroke-width="0.665197" stroke-linecap="round" stroke-linejoin="round"/>
<path d="M325.31 235.002L326.746 232.999" stroke="black" stroke-width="0.665197" stroke-linecap="round" stroke-linejoin="round"/>
<path d="M326.746 232.999L328.9 231.525" stroke="black" stroke-width="0.665197" stroke-linecap="round" stroke-linejoin="round"/>
<path d="M326.255 233.755L326.822 232.999" stroke="black" stroke-width="0.665197" stroke-linecap="round" stroke-linejoin="round"/>
<path d="M328.976 221.66L328.825 222.681L329.883 222.416L328.9 222.643" stroke="black" stroke-width="0.665197" stroke-linecap="round" stroke-linejoin="round"/>
<path d="M326.784 225.1L326.708 225.138" stroke="black" stroke-width="0.665197" stroke-linecap="round" stroke-linejoin="round"/>
<path d="M327.955 173.774L325.272 173.32" stroke="black" stroke-width="0.665197" stroke-linecap="round" stroke-linejoin="round"/>
<path d="M329.051 268.451L329.769 268.753L334.456 270.076L339.256 270.454L344.094 269.925L348.705 268.451L352.938 266.108L356.68 263.008L359.703 259.267L360.648 257.755V257.83L360.837 257.339" stroke="black" stroke-width="0.665197" stroke-linecap="round" stroke-linejoin="round"/>
<path fill-rule="evenodd" clip-rule="evenodd" d="M331.508 261.307L333.096 261.761L331.584 261.345L329.958 260.211L331.508 261.307Z" stroke="black" stroke-width="0.665197" stroke-linecap="round" stroke-linejoin="round"/>
<path d="M333.096 261.761L337.178 262.857L342.998 262.479L348.327 260.212L352.636 256.319L355.433 251.254L356.415 245.509L355.433 239.764L352.636 234.7L352.825 235.002" stroke="black" stroke-width="0.665197" stroke-linecap="round" stroke-linejoin="round"/>
<path d="M333.096 263.046L336.459 264.067" stroke="black" stroke-width="0.665197" stroke-linecap="round" stroke-linejoin="round"/>
<path d="M328.9 259.531L329.959 260.212" stroke="black" stroke-width="0.665197" stroke-linecap="round" stroke-linejoin="round"/>
<path d="M333.096 256.508L335.25 257.566" stroke="black" stroke-width="0.665197" stroke-linecap="round" stroke-linejoin="round"/>
<path d="M337.631 254.013L340.503 253.975L341.486 253.635L340.617 253.975L337.631 254.013ZM337.631 254.013L334.834 252.993L332.528 251.103L331.017 248.533H341.07V242.523L331.017 242.485L332.491 239.953L334.758 238.063L337.631 237.005L340.617 237.043L341.486 237.421L340.503 237.043H337.555" stroke="black" stroke-width="0.665197" stroke-linecap="round" stroke-linejoin="round"/>
<path d="M331.357 235.418L333.096 234.548L332.188 235.002" stroke="black" stroke-width="0.665197" stroke-linecap="round" stroke-linejoin="round"/>
<path d="M329.959 230.807L331.584 229.711L333.096 229.295L331.508 229.711L328.9 231.525" stroke="black" stroke-width="0.665197" stroke-linecap="round" stroke-linejoin="round"/>
<path d="M337.291 226.989L341.486 227.065L336.459 226.952L330.941 228.615L328.9 229.975" stroke="black" stroke-width="0.665197" stroke-linecap="round" stroke-linejoin="round"/>
<path d="M333.096 227.972L336.459 226.951" stroke="black" stroke-width="0.665197" stroke-linecap="round" stroke-linejoin="round"/>
<path d="M329.051 222.643L329.807 222.265L334.456 220.942L339.256 220.564L344.094 221.093L348.705 222.567L352.938 224.911L356.642 228.01L359.703 231.752L360.648 233.301V233.188L360.875 233.793" stroke="black" stroke-width="0.665197" stroke-linecap="round" stroke-linejoin="round"/>
<path d="M337.291 214.668L341.486 214.781L336.233 214.668L336.27 184.394L335.741 180.955L335.477 180.425L334.154 177.855L331.735 175.437" stroke="black" stroke-width="0.665197" stroke-linecap="round" stroke-linejoin="round"/>
<path d="M335.968 321.44L340.012 317.396L341.335 314.788" stroke="black" stroke-width="0.665197" stroke-linecap="round" stroke-linejoin="round"/>
<path d="M335.25 257.566L337.291 257.868L335.174 257.566" stroke="black" stroke-width="0.665197" stroke-linecap="round" stroke-linejoin="round"/>
<path d="M337.291 257.868L339.521 258.171" stroke="black" stroke-width="0.665197" stroke-linecap="round" stroke-linejoin="round"/>
<path d="M335.174 233.452L333.096 234.549L335.25 233.452M335.174 233.452L337.291 233.15L335.25 233.452M335.174 233.452H335.25" stroke="black" stroke-width="0.665197" stroke-linecap="round" stroke-linejoin="round"/>
<path d="M337.291 233.15L339.559 232.885" stroke="black" stroke-width="0.665197" stroke-linecap="round" stroke-linejoin="round"/>
<path d="M337.291 228.161H337.14L342.998 228.539L348.176 230.731L352.636 234.699" stroke="black" stroke-width="0.665197" stroke-linecap="round" stroke-linejoin="round"/>
<path d="M337.14 228.161L333.096 229.295" stroke="black" stroke-width="0.665197" stroke-linecap="round" stroke-linejoin="round"/>
<path d="M335.968 169.616L340.012 173.623L341.335 176.23" stroke="black" stroke-width="0.665197" stroke-linecap="round" stroke-linejoin="round"/>
<path d="M341.335 314.788L342.582 312.293L343.489 306.662V283.418L351.842 281.414L359.552 277.597L365.411 272.797L362.425 275.254" stroke="black" stroke-width="0.665197" stroke-linecap="round" stroke-linejoin="round"/>
<path d="M341.486 276.237L343.036 276.199L349.612 274.536L355.697 271.512L360.951 267.204L365.146 261.875L363.181 264.407" stroke="black" stroke-width="0.665197" stroke-linecap="round" stroke-linejoin="round"/>
<path d="M341.486 263.953L342.242 263.916L345.682 262.744" stroke="black" stroke-width="0.665197" stroke-linecap="round" stroke-linejoin="round"/>
<path d="M339.521 258.171L343.716 257.264L347.382 255.034L350.103 251.708L351.539 247.664V243.393L350.028 239.235L347.382 235.985L343.754 233.755L339.558 232.886" stroke="black" stroke-width="0.665197" stroke-linecap="round" stroke-linejoin="round"/>
<path fill-rule="evenodd" clip-rule="evenodd" d="M341.486 237.421L343.376 238.063L345.682 239.991L347.156 242.561L347.647 245.509L347.156 248.457L345.682 251.027L343.376 252.955L341.486 253.635L343.3 252.917L345.568 251.027L347.042 248.457L347.571 245.509L347.042 242.599L345.568 239.991L343.3 238.101L341.486 237.421Z" stroke="black" stroke-width="0.665197" stroke-linecap="round" stroke-linejoin="round"/>
<path d="M341.486 214.781L343.036 214.819L349.612 216.482L355.697 219.506L360.951 223.814L365.146 229.144L368.094 235.266L369.606 241.918H376.863L375.086 233.49L373.877 230.807L371.496 225.666L366.204 218.863L359.552 213.421L352.296 209.83L351.842 209.603L343.489 207.6V205.597" stroke="black" stroke-width="0.665197" stroke-linecap="round" stroke-linejoin="round"/>
<path d="M341.335 176.23L342.582 178.725L343.489 184.356V205.597" stroke="black" stroke-width="0.665197" stroke-linecap="round" stroke-linejoin="round"/>
<path d="M341.486 270.227L342.771 270.076" stroke="black" stroke-width="0.665197" stroke-linecap="round" stroke-linejoin="round"/>
<path fill-rule="evenodd" clip-rule="evenodd" d="M342.771 227.254L345.682 228.274L342.242 227.103L342.771 227.254Z" stroke="black" stroke-width="0.665197" stroke-linecap="round" stroke-linejoin="round"/>
<path d="M341.486 227.065L342.242 227.103" stroke="black" stroke-width="0.665197" stroke-linecap="round" stroke-linejoin="round"/>
<path d="M342.167 220.904L341.486 220.791" stroke="black" stroke-width="0.665197" stroke-linecap="round" stroke-linejoin="round"/>
<path fill-rule="evenodd" clip-rule="evenodd" d="M349.008 260.212L347.193 261.534L345.682 262.101L347.269 261.572L351.804 258.246L355.093 253.673L356.831 248.306V242.712L355.093 237.345L351.804 232.772L347.269 229.446L345.682 228.955L347.193 229.484L351.729 232.81L355.017 237.345L356.718 242.712V248.306L355.017 253.673L351.729 258.208L349.008 260.212Z" stroke="black" stroke-width="0.665197" stroke-linecap="round" stroke-linejoin="round"/>
<path d="M355.735 253.711L355.697 253.9M355.697 253.9L356.34 251.821M355.697 253.9L352.334 258.586L347.723 262.064L345.682 262.744" stroke="black" stroke-width="0.665197" stroke-linecap="round" stroke-linejoin="round"/>
<path d="M355.735 237.307L355.697 237.118M355.697 237.118L357.436 242.637M355.697 237.118L352.334 232.432L347.723 228.955L345.682 228.274" stroke="black" stroke-width="0.665197" stroke-linecap="round" stroke-linejoin="round"/>
<path d="M348.214 222.416L346.06 221.736" stroke="black" stroke-width="0.665197" stroke-linecap="round" stroke-linejoin="round"/>
<path d="M350.179 260.211L351.804 259.002L351.086 259.531" stroke="black" stroke-width="0.665197" stroke-linecap="round" stroke-linejoin="round"/>
<path d="M352.333 258.586L351.804 259.002" stroke="black" stroke-width="0.665197" stroke-linecap="round" stroke-linejoin="round"/>
<path d="M352.333 232.432L350.67 231.185" stroke="black" stroke-width="0.665197" stroke-linecap="round" stroke-linejoin="round"/>
<path d="M351.804 232.016L350.179 230.807L350.822 231.298" stroke="black" stroke-width="0.665197" stroke-linecap="round" stroke-linejoin="round"/>
<path d="M356.34 251.821L357.436 248.419" stroke="black" stroke-width="0.665197" stroke-linecap="round" stroke-linejoin="round"/>
<path d="M357.436 248.419V242.637" stroke="black" stroke-width="0.665197" stroke-linecap="round" stroke-linejoin="round"/>
<path d="M359.477 259.531L359.137 259.947" stroke="black" stroke-width="0.665197" stroke-linecap="round" stroke-linejoin="round"/>
<path d="M360.724 257.528L360.875 257.263L360.8 257.452" stroke="black" stroke-width="0.665197" stroke-linecap="round" stroke-linejoin="round"/>
<path d="M362.425 253.446L363.067 251.897L363.181 250.801" stroke="black" stroke-width="0.665197" stroke-linecap="round" stroke-linejoin="round"/>
<path d="M360.837 233.679L360.648 233.301L360.8 233.604" stroke="black" stroke-width="0.665197" stroke-linecap="round" stroke-linejoin="round"/>
<path d="M365.411 272.797L366.204 272.155L368.963 268.602L366.62 271.663" stroke="black" stroke-width="0.665197" stroke-linecap="round" stroke-linejoin="round"/>
<path d="M365.146 261.874L368.094 255.752L369.606 249.137L376.9 249.1L375.124 257.528L371.496 265.352L368.963 268.602" stroke="black" stroke-width="0.665197" stroke-linecap="round" stroke-linejoin="round"/>
<path d="M362.462 253.333L362.916 251.859L362.5 253.257" stroke="black" stroke-width="0.665197" stroke-linecap="round" stroke-linejoin="round"/>
<path d="M362.916 251.859L363.143 251.027" stroke="black" stroke-width="0.665197" stroke-linecap="round" stroke-linejoin="round"/>
<path d="M363.596 243.393L363.861 245.509L363.596 247.626" stroke="black" stroke-width="0.665197" stroke-linecap="round" stroke-linejoin="round"/>
<path d="M363.861 245.509L363.71 246.87" stroke="black" stroke-width="0.665197" stroke-linecap="round" stroke-linejoin="round"/>
<path d="M363.181 240.105L362.425 237.61" stroke="black" stroke-width="0.665197" stroke-linecap="round" stroke-linejoin="round"/>
<path d="M363.181 240.029L363.067 239.122L362.5 237.761" stroke="black" stroke-width="0.665197" stroke-linecap="round" stroke-linejoin="round"/>
<path d="M363.181 226.612L365.146 229.144" stroke="black" stroke-width="0.665197" stroke-linecap="round" stroke-linejoin="round"/>
<path d="M365.411 218.221L362.425 215.764" stroke="black" stroke-width="0.665197" stroke-linecap="round" stroke-linejoin="round"/>
<path d="M366.62 219.392L368.963 222.416" stroke="black" stroke-width="0.665197" stroke-linecap="round" stroke-linejoin="round"/>
</svg>
