<?xml version="1.0" encoding="UTF-8" standalone="no"?>
<svg xmlns="http://www.w3.org/2000/svg" xmlns:xlink="http://www.w3.org/1999/xlink" width="297.000mm" height="210.000mm" viewBox="0.000000 0.000000 297.000000 210.000000" stroke-linejoin="round" stroke-linecap="round" fill="none" fill-rule="evenodd"><desc>Composer Export</desc><script type="text/ecmascript"><![CDATA[
if(typeof(top) != "undefined")
{
	top.ShowPaper = ShowPaper;
}
function ShowHotSpot(evt,hotspotid)
{
	var svgDocument = evt.target.ownerDocument;
	var strId = "hotspot."+hotspotid;
	var hotspot = svgDocument.getElementById(strId);
	if(hotspot)
		hotspot.setAttribute("opacity",".5");
}
function HideHotSpot(evt,hotspotid)
{
	var svgDocument = evt.target.ownerDocument;
	var strId = "hotspot."+hotspotid;
	var hotspot = svgDocument.getElementById(strId);
	if(hotspot)
		hotspot.setAttribute("opacity","0");

	var toolTip = svgDocument.getElementById('ToolTip');
	if(toolTip)
		toolTip.setAttribute("visibility","hidden");
}
function ShowToolTip(evt,hotspotid,strTooltip)
{
	if(strTooltip=="")
	return;

	// change text
	var svgDocument = evt.target.ownerDocument;
	var tiptext = svgDocument.getElementById('ToolTipText');
	if( !tiptext )
	return;
	tiptext.firstChild.nodeValue = " " + strTooltip + "  " ;

	// show tooltip before, else some refresh issue

	var toolTip = svgDocument.getElementById('ToolTip');
	if(!toolTip)
	return;

	toolTip.setAttribute("visibility","visible");
	toolTip.setAttribute("opacity",".95");

	// move tooltip
	// get viewbox

	var root = svgDocument.documentElement;
	var vbox = (root.getAttribute("viewBox")).split(' ');
	var x0 = parseFloat(vbox[0]);
	var y0 = parseFloat(vbox[1]);
	var vboxW = parseFloat(vbox[2]);
	var vboxH = parseFloat(vbox[3]);

	// get default width of svg

	var strW = root.getAttribute("width");
	var svgW = parseFloat(strW);
	if(strW.indexOf('mm') != -1)
	svgW *= 3.779;

	var strH = root.getAttribute("height");
	var svgH = parseFloat(strH);
	if(strH.indexOf('mm') != -1)
	svgH *= 3.779;  	// 96 dpi  -> 96/25.4 = 3.779

	// update the viewbox / width / height if svg is embedded in html with zoom fit all
	var realx0 = x0;
	var realy0 = y0;
	var realvboxW = vboxW;
	var realvboxH = vboxH;
	var realsvgW = svgW;
	var realsvgH = svgH;

	if ((typeof(top) == "undefined") || (typeof(top.svgctl1) != "undefined")) // embedded in html
	{
		// get window size in pxl

		svgW = window.innerWidth;
		svgH = window.innerHeight;

		// calculate real viewbox

		realsvgW = svgW;
		realsvgH = svgH;
		if((svgW / svgH) > (vboxW / vboxH))
		{
			realvboxW = (vboxH * svgW) / svgH;
			realvboxH = vboxH;
			realx0 = x0 - (realvboxW - vboxW)/2 ;
		}
		else
		{
			realvboxH = (vboxW * svgH) / svgW;
			realvboxW = vboxW;
			realy0 = y0 - (realvboxH - vboxH)/2 ;
		}
	}

	// get user zoom/pan

	var newScale = root.currentScale;
	var translation = root.currentTranslate;

	// transform pxl to user unit

	var xPos = (((evt.clientX+10- translation.x)/newScale) * realvboxW)/realsvgW  + realx0 ;
	var yPos = (((evt.clientY+5- translation.y)/newScale) * realvboxH)/ realsvgH  + realy0 ;
	var scaleForWidth = ( (1 / newScale) * realvboxH) / realsvgH;

	// move tooltip

	toolTip.setAttribute("transform", "translate(" + xPos + "," + yPos + ")" );

	// resize tooltip

	var fontsize = 12;
	tiptext.setAttribute("font-size",fontsize*scaleForWidth);
	tiptext.setAttribute("y", fontsize*scaleForWidth);
	var tipBG = svgDocument.getElementById('ToolTipBG');
	var outline = tiptext.getBBox();
	if(tipBG)
	{
		tipBG.setAttribute("stroke-width", 1*scaleForWidth);
		tipBG.setAttribute("width", Number(outline.width) );
		tipBG.setAttribute("height", Number(outline.height) + fontsize*.5*scaleForWidth );
	}
	var ToolTipShadow = svgDocument.getElementById('ToolTipShadow');
	if(ToolTipShadow)
	{
		ToolTipShadow.setAttribute("width", Number(outline.width) );
		ToolTipShadow.setAttribute("height", Number(outline.height) + fontsize*.5*scaleForWidth );
		ToolTipShadow.setAttribute("x", 3*scaleForWidth);
		ToolTipShadow.setAttribute("y", 3*scaleForWidth);
	}
}
function ShowPaper()
{
  var svgDocument = getDocument();
  var paper = svgDocument.getElementById("paperID");
  if(paper)
  {
    paper.setAttribute("transform","scale(1)");
    paper.setAttribute("opacity","1");
    paper.setAttribute("visibility","visible");
  }
  var svg = svgDocument.getRootElement();
  if(svg)
  {
    svg.setAttribute("width","307.000mm");
    svg.setAttribute("height","220.000mm");
    svg.setAttribute("viewBox","-5.000000 -5.000000 307.000000 220.000000");
  }
}
]]></script><defs/><g><path style="fill:#000000;fill-opacity:0.098;fill-rule:evenodd" d="M273.19,69.21L274.39,68.23L274.45,68.83L270.56,84.93L270.31,84.91L266.84,88.32L265.20,95.18L264.10,96.39L262.53,97.82L255.07,105.24L253.49,106.68L245.86,114.27L244.28,115.71L236.65,123.31L235.07,124.74L227.44,132.34L225.87,133.77L218.41,141.19L216.83,142.63L209.20,150.23L207.62,151.66L199.99,159.26L198.41,160.69L190.78,168.29L189.21,169.72L181.57,177.32L180.00,178.76L172.54,186.18L170.96,187.61L163.33,195.21L161.75,196.64L156.50,201.84L156.51,205.55L156.84,205.48L156.82,205.65L155.79,206.28L155.91,197.71L156.49,178.27L156.95,177.32L158.94,175.37L159.16,175.44L157.12,177.49L156.90,177.98L156.80,178.05L156.85,181.66L156.90,177.98L189.01,148.10L190.02,147.01L190.53,146.78L194.15,143.32L195.16,142.23L195.67,142.00L197.64,139.92L198.15,139.70L200.11,137.62L200.62,137.40L202.77,135.14L203.28,134.92L205.25,132.84L205.76,132.62L207.68,130.66L207.49,130.31L208.88,128.97L209.09,128.97L207.97,130.24L208.31,130.24L210.16,128.35L209.97,128.01L211.36,126.66L211.57,126.66L210.45,127.93L210.79,127.93L212.82,125.87L212.62,125.53L214.02,124.18L214.22,124.18L213.10,125.45L213.45,125.45L215.30,123.57L215.10,123.23L216.50,121.88L216.70,121.88L215.58,123.15L215.93,123.15L217.78,121.27L217.58,120.92L218.98,119.58L219.18,119.58L218.06,120.85L218.40,120.85L220.26,118.97L220.06,118.62L221.46,117.28L221.66,117.28L220.72,118.37L221.06,118.37L222.91,116.49L222.72,116.14L223.94,114.98L224.14,114.98L223.20,116.07L223.54,116.07L225.39,114.18L225.20,113.84L226.42,112.67L226.62,112.67L225.86,113.59L226.20,113.59L227.87,111.88L227.68,111.54L228.90,110.37L229.10,110.37L228.33,111.29L228.68,111.29L230.35,109.58L230.16,109.23L231.38,108.07L231.58,108.07L230.81,108.98L231.16,108.98L233.01,107.10L232.81,106.76L234.03,105.59L234.24,105.59L233.47,106.50L233.81,106.50L235.49,104.80L235.29,104.45L236.51,103.29L236.72,103.29L235.95,104.20L236.29,104.20L237.97,102.50L237.77,102.15L238.99,100.98L239.20,100.98L238.61,101.72L238.95,101.72L240.45,100.19L240.25,99.85L241.47,98.68L241.68,98.68L241.09,99.42L241.43,99.42L243.10,97.71L242.91,97.37L243.95,96.38L244.15,96.38L243.57,97.12L243.91,97.12L245.58,95.41L245.39,95.07L246.43,94.08L246.64,94.08L246.22,94.64L246.56,94.64L248.06,93.11L247.87,92.76L248.91,91.77L249.11,91.77L248.70,92.34L249.04,92.34L250.54,90.81L250.35,90.46L251.39,89.47L251.59,89.47L251.37,89.86L251.70,89.86L253.20,88.33L253.00,87.98L253.87,87.17L254.07,87.17L253.85,87.56L254.18,87.55L255.68,86.03L255.48,85.68L256.53,84.69L256.73,84.69L256.50,85.08L256.84,85.08L258.16,83.72L257.96,83.38L259.01,82.39L259.21,82.39L258.98,82.77L259.32,82.77L260.81,81.24L260.62,80.90L261.48,80.09L261.69,80.08L261.46,80.47L261.80,80.47L263.29,78.94L263.10,78.60L263.96,77.78L264.14,77.79L264.14,77.98L264.45,77.99L265.77,76.64L265.58,76.29L266.44,75.48L266.62,75.48L266.62,75.67L266.93,75.69L268.25,74.34L268.06,73.99L268.90,73.18L269.60,73.21L270.91,71.86L270.71,71.51L271.38,70.88L272.08,70.91L273.39,69.56zM267.20,96.45L264.63,99.07L264.29,99.07L266.97,96.38zM251.43,112.04L247.80,115.71L247.46,115.71L251.21,111.96zM235.50,127.80L230.98,132.36L230.64,132.36L235.27,127.73zM205.25,132.84L204.95,132.71L206.41,131.27L206.61,131.27zM202.77,135.14L202.47,135.01L203.93,133.57L204.13,133.57zM200.11,137.62L199.81,137.49L201.45,135.87L201.65,135.87zM197.64,139.92L197.33,139.79L198.97,138.18L199.17,138.18zM195.16,142.23L194.85,142.09L196.49,140.48L196.69,140.48zM194.23,142.85L192.73,144.40L192.38,144.40L194.01,142.78zM190.02,147.01L189.71,146.87L191.35,145.26L191.56,145.26zM219.56,143.56L214.33,148.83L213.99,148.83L219.33,143.49zM189.09,147.64L187.59,149.19L187.25,149.19L188.87,147.56zM186.61,149.94L185.11,151.49L184.77,151.49L186.39,149.86zM184.14,152.24L182.63,153.79L182.29,153.79L183.91,152.17zM181.66,154.54L179.97,156.27L179.63,156.27L181.43,154.47zM179.18,156.85L177.49,158.57L177.15,158.57L178.95,156.77zM176.70,159.15L175.01,160.88L174.67,160.88L176.47,159.07zM174.22,161.45L172.54,163.18L172.19,163.18L174.00,161.38zM203.79,159.15L197.51,165.48L197.16,165.48L203.57,159.07zM171.56,163.93L169.88,165.66L169.54,165.66L171.34,163.86zM169.08,166.23L167.40,167.96L167.06,167.96L168.86,166.16zM166.60,168.53L164.92,170.26L164.58,170.26L166.38,168.46zM164.12,170.84L162.44,172.56L162.10,172.56L163.90,170.76zM161.64,173.14L159.78,175.04L159.44,175.04L161.42,173.06zM187.85,174.91L180.86,181.95L180.52,181.95L187.63,174.84zM172.09,190.50L164.03,198.60L163.69,198.60L171.87,190.42zM156.85,181.66L156.80,178.05L156.90,177.98z"/><g id="Actor_.0"><g style="stroke:#000000;stroke-width:0.176"><path d="M156.46,194.85L156.93,177.95L156.84,177.89"/><path d="M156.93,177.95L274.40,68.62"/></g><g style="stroke:#000000;stroke-width:0.529"><path d="M274.40,68.62L270.54,84.68L156.46,194.85L156.31,194.75"/></g></g><g id="Actor_.1"><g style="stroke:#000000;stroke-width:0.529"><path d="M266.79,88.30L265.15,95.28L156.42,201.91"/></g></g><g id="Actor_.2"><g style="stroke:#000000;stroke-width:0.176"><path d="M55.71,130.12L55.37,129.84L55.04,129.45L54.75,128.98L54.62,128.64L54.56,128.17L54.66,127.96L54.82,127.88L54.84,128.44L54.96,128.88L55.18,129.36L55.77,130.20L55.38,129.64"/><path d="M54.62,128.64L54.75,128.98"/><path d="M55.52,129.89L55.48,129.80"/><path d="M55.77,130.20L55.37,129.84L55.22,129.64"/><path d="M55.59,129.71L55.80,130.00L55.27,129.12L55.10,128.67L55.06,128.22L55.16,128.00L55.45,127.89L55.25,127.50L55.45,127.89"/><path d="M57.19,130.61L56.57,129.64L57.19,130.61L56.84,130.62L56.57,130.49L56.08,130.04L55.82,129.68L55.50,129.10L55.39,128.77L55.44,128.36L55.66,128.24L55.78,128.43L55.66,128.24"/><path d="M55.69,129.47L55.82,129.64"/><path d="M55.63,127.83L56.07,128.55L55.22,127.11L55.05,126.74L54.97,126.43L54.91,126.58L54.93,126.79L55.14,127.33L55.25,127.50"/><path d="M55.65,127.50L55.91,127.97L55.38,127.03L55.25,126.70L55.25,126.38L55.35,126.28L55.55,126.30L55.85,126.45L56.22,126.75L56.54,127.11L56.83,127.62L56.79,127.50"/><path d="M54.92,126.50L54.96,126.39L54.93,126.43"/><path d="M55.46,127.50L55.22,127.11"/><path d="M55.54,126.92L56.10,127.94L56.32,127.92L56.41,127.81L56.42,127.50L56.22,127.09L55.93,126.78L55.70,126.64L55.57,126.63L55.51,126.70L55.54,126.92"/><path d="M55.59,127.05L55.84,127.50"/><path d="M55.56,121.07L55.22,120.33L55.06,119.74L55.02,119.37L55.11,118.86L55.23,118.72L55.37,118.65L55.54,118.63L55.35,119.04L55.40,119.94L55.69,120.96L56.05,121.71L56.27,122.06L55.84,121.55L55.56,121.07"/><path d="M56.83,122.55L57.23,123.01L57.51,123.21L57.23,123.01L56.50,122.13L56.09,121.40L55.77,120.54L55.68,120.13L55.64,119.31L55.80,118.93L55.95,118.83L56.37,118.80L56.83,118.98L56.37,118.80"/><path d="M56.55,130.74L56.14,130.40L56.64,130.80L57.05,130.98L57.45,130.98L57.05,130.98"/><path d="M55.80,130.00L56.14,130.40L55.80,130.00"/><path d="M56.57,129.64L55.78,128.43"/><path d="M57.62,130.91L58.04,131.47L57.23,130.34L56.07,128.55"/><path d="M56.79,129.64L56.92,129.88"/><path d="M56.51,128.57L56.95,129.30L56.35,128.31L56.55,128.31L56.80,128.21L56.89,128.05L56.90,127.81L56.83,127.62L56.89,127.84"/><path d="M58.82,132.09L58.97,132.16L58.82,132.09L58.51,131.81L58.13,131.38L57.48,130.43L55.91,127.97"/><path d="M56.30,128.57L56.85,129.47"/><path d="M56.80,128.21L56.89,128.05"/><path d="M56.72,127.39L56.64,127.23L56.22,126.75L55.89,126.48"/><path d="M55.85,126.45L55.75,126.40"/><path d="M56.53,122.14L56.69,122.39"/><path d="M56.00,119.53L56.19,119.23L56.00,119.53L55.99,120.14L56.25,121.18L56.59,121.88L57.03,122.52L57.46,122.95L57.92,123.31L57.82,123.21"/><path d="M56.25,121.18L56.59,121.88"/><path d="M56.78,122.14L57.03,122.52L57.46,122.95"/><path d="M56.83,118.98L57.26,119.22L57.93,119.73L58.61,120.36L58.80,121.62L58.73,121.57L58.49,120.95L58.22,120.47L57.86,120.00L57.23,119.48L56.69,119.20L56.32,119.17L56.69,119.20"/><path d="M56.19,119.23L56.32,119.17"/><path d="M57.45,130.98L57.93,131.59L58.19,131.85L58.45,132.06L58.65,132.13L58.34,131.82L58.65,132.13"/><path d="M57.90,130.72L58.36,131.39L57.81,130.63L58.15,130.30L58.40,130.14L58.59,130.13L58.77,130.21L58.75,130.14L57.32,129.13L57.32,129.18L57.76,129.64L57.81,129.83L57.74,130.12L57.58,130.29L56.95,129.30"/><path d="M57.69,130.71L58.13,131.38"/><path d="M57.73,129.44L58.15,129.74"/><path d="M57.51,123.21L58.00,123.64L58.63,124.00L58.00,123.64L57.51,123.21"/><path d="M57.86,120.00L57.59,119.76"/><path d="M57.26,119.22L57.90,119.71"/><path d="M58.19,131.85L58.45,132.06"/><path d="M58.34,131.82L58.04,131.47"/><path d="M58.70,131.80L58.97,132.04L58.70,131.80L58.36,131.39"/><path d="M58.51,131.81L58.17,131.43"/><path d="M57.93,131.59L57.90,131.56"/><path d="M57.98,130.48L58.15,130.30"/><path d="M58.67,123.65L58.31,123.54L58.67,123.65L58.94,123.66L59.14,123.56L59.22,123.60L59.22,124.22L58.63,124.00"/><path d="M58.31,123.54L57.92,123.31"/><path d="M58.97,132.04L59.19,132.15L59.23,132.23L58.97,132.16"/><path d="M58.97,124.13L59.22,124.22"/><path d="M61.16,125.45L61.21,125.36L61.16,125.45L61.07,125.49L60.89,125.45L60.89,125.52L61.71,126.08L61.60,125.36L61.70,125.94"/><path d="M61.23,123.21L61.04,122.14L61.60,125.36"/><path d="M61.21,125.36L61.22,124.95L61.15,124.47L60.75,122.24L60.58,121.80L60.44,121.56L60.13,121.21L60.14,121.15L60.95,121.69L60.14,121.15"/><path d="M61.04,122.14L60.95,121.69"/><path d="M60.44,121.56L60.58,121.80"/><path d="M62.00,126.28L61.86,125.36L62.00,126.28L62.83,126.84L62.82,126.76L62.41,126.25L62.21,125.76L61.78,123.37L61.72,122.73L61.77,122.54L61.90,122.48L62.09,122.52L62.08,122.45L61.26,121.90L61.86,125.36"/><path d="M61.71,126.08L61.12,125.68"/><path d="M62.14,125.36L62.21,125.76"/><path d="M62.08,122.45L61.26,121.90"/><path d="M63.37,131.86L64.32,132.51L63.37,131.86L62.96,131.66L62.90,131.67L62.79,131.82L62.75,132.11L62.66,132.05L62.54,131.05L62.68,131.13"/><path d="M62.54,131.05L63.03,131.42L62.83,131.25"/><path d="M63.03,131.42L64.33,132.32L63.35,131.65"/><path d="M64.32,132.51L64.84,135.67L64.78,136.08L64.68,136.12L64.49,136.07L64.47,136.14L65.31,136.72L64.47,136.14L64.46,136.07L64.68,136.12"/><path d="M64.33,132.32L64.61,132.50L65.31,136.72"/><path d="M66.42,129.26L66.32,128.57L66.42,129.26L65.56,128.68L65.56,128.60L65.78,128.65L65.87,128.61L65.92,128.54L65.94,128.17L65.41,124.89L64.44,124.24L64.02,124.04L63.96,124.05L63.84,124.21L63.80,124.51L63.71,124.45L63.58,123.41L65.40,124.67L64.42,124.01"/><path d="M64.78,136.08L64.84,136.01"/><path d="M65.29,135.00L65.59,136.91L64.90,132.70L65.40,133.05L64.90,132.70"/><path d="M65.59,136.91L66.44,137.50L66.43,137.43L66.14,137.10L65.98,136.84L65.81,136.41L65.26,133.15L66.45,134.00L66.76,134.37L66.92,134.71L67.00,135.02L67.09,135.08L66.98,134.11L66.60,133.86L66.96,134.07"/><path d="M65.39,133.93L65.57,135.00"/><path d="M66.43,137.43L66.31,137.31"/><path d="M65.40,133.05L66.60,133.86"/><path d="M66.32,128.57L65.69,124.86L65.40,124.67"/><path d="M66.40,127.50L66.71,129.46L66.00,125.07L66.48,125.39L66.00,125.07"/><path d="M66.48,125.39L67.75,126.23L67.55,126.10"/><path d="M66.52,126.43L66.37,125.53L66.93,128.92L67.10,129.37L67.44,129.85L67.29,129.64"/><path d="M66.37,125.53L67.24,126.11L67.66,126.43L67.79,126.60L67.66,126.43"/><path d="M67.57,129.97L67.44,129.85L67.57,129.97L67.58,130.05L66.71,129.46"/><path d="M68.27,135.01L68.27,135.07L68.67,135.58L68.86,136.07L69.23,138.27L69.31,138.92L69.28,139.07L69.21,139.16L69.09,139.19L68.96,139.16L68.94,139.23L69.76,139.79L69.07,135.56L68.27,135.01"/><path d="M68.62,135.25L69.07,135.56"/><path d="M67.79,126.60L68.08,127.12L68.16,127.44L68.25,127.50L68.12,126.44L67.75,126.23"/><path d="M69.78,138.21L69.61,137.14L70.05,139.99L70.89,140.57L70.88,140.50L70.47,139.99L70.29,139.54L70.32,139.60"/><path d="M69.61,137.14L69.39,135.77L69.43,136.07"/><path d="M69.39,135.77L70.22,136.34L70.23,136.42L70.01,136.37L69.87,136.46L69.84,136.81L70.00,137.88L70.77,138.41L70.00,137.88"/><path d="M69.69,135.98L70.22,136.34"/><path d="M69.63,127.50L69.71,127.55L69.59,127.47L69.63,127.50L69.60,127.55L69.92,127.90L70.06,128.14L70.22,128.59L70.59,130.83L70.65,131.31L70.63,131.72L70.57,131.80L70.47,131.84L70.29,131.80L70.28,131.87L71.13,132.45L71.05,131.79L71.13,132.45"/><path d="M69.60,127.55L69.59,127.47"/><path d="M69.95,139.29L70.05,139.99"/><path d="M69.76,139.71L69.69,139.29"/><path d="M70.29,139.54L70.04,138.18L70.77,138.67L70.10,138.21L70.20,139.14"/><path d="M70.05,138.21L70.10,138.21L70.04,138.18"/><path d="M71.05,131.79L70.45,128.04L69.71,127.55"/><path d="M70.71,129.64L70.88,130.71"/><path d="M70.77,128.37L71.43,132.65L72.29,133.23L72.28,133.15L71.87,132.63L71.67,132.13L71.27,129.74L71.23,129.10L71.29,128.91L71.43,128.85L71.63,128.91L71.61,128.83L70.77,128.26L70.77,128.37"/><path d="M71.84,139.41L70.77,138.67L71.98,139.51L72.16,140.91L72.10,141.10L71.96,141.16L71.79,141.11L71.78,141.18L72.62,141.76L71.96,137.53L71.13,136.96L71.84,137.45"/><path d="M70.77,138.41L71.94,139.21L71.73,138.06L71.57,137.62L71.40,137.34L71.12,137.02L71.13,136.96"/><path d="M71.43,132.65L71.32,131.79"/><path d="M71.78,132.47L71.87,132.63"/><path d="M71.61,128.83L70.77,128.26L70.81,128.57"/><path d="M72.85,141.43L72.91,141.96L72.27,137.74L72.30,138.05"/><path d="M72.27,137.74L73.10,138.31L73.11,138.38L72.91,138.35L72.81,138.41L72.74,138.57L72.75,139.00L73.07,141.13L73.21,141.69L73.29,141.81"/><path d="M72.80,139.36L72.97,140.36"/><path d="M72.10,132.93L72.06,132.91"/><path d="M72.91,141.96L73.75,142.54L73.74,142.47L73.58,142.27"/><path d="M73.74,142.47L73.49,142.20L73.21,141.69"/><path d="M72.91,138.18L73.08,138.28"/><path d="M73.98,133.99L73.74,134.21L73.98,134.37L73.74,134.21L76.01,132.03L75.15,132.86"/><path d="M76.01,132.03L74.14,130.83L73.71,130.65L73.53,130.71L73.39,131.00L73.30,130.94L73.25,129.88L73.22,129.85L73.23,129.93"/><path d="M73.30,130.94L73.39,131.00"/><path d="M73.25,129.88L75.05,131.13L74.31,130.63"/><path d="M76.08,143.57L75.53,139.97L74.70,139.40L74.69,139.46L75.00,139.81L75.14,140.05L75.30,140.49L75.64,142.64L75.69,143.10L75.66,143.49L75.51,143.60L75.31,143.55L75.32,143.62L76.16,144.21L76.08,143.57L76.16,144.21"/><path d="M74.94,135.00L74.48,134.71L75.05,135.10L74.94,135.00"/><path d="M73.98,134.37L74.13,134.47L74.69,133.93L74.13,134.47"/><path d="M74.48,134.71L75.05,134.17L74.48,134.71"/><path d="M74.69,133.93L76.13,132.53L75.79,132.86"/><path d="M75.05,131.13L76.13,131.85L75.05,131.13"/><path d="M75.51,143.60L75.33,143.57"/><path d="M75.62,143.56L75.59,143.57"/><path d="M76.19,142.50L76.03,141.43L76.46,144.41L77.32,145.00L77.31,144.93L76.90,144.41L76.70,143.93L76.34,141.62L76.30,141.01L76.36,140.83L76.48,140.79L76.70,140.84L76.69,140.77L75.85,140.19L76.03,141.43"/><path d="M76.13,140.38L75.85,140.19"/><path d="M75.05,135.10L76.71,136.22L76.13,135.82"/><path d="M75.36,135.00L76.13,135.54L75.05,134.82L75.36,135.00"/><path d="M76.13,135.54L76.85,135.99L76.30,135.66"/><path d="M75.05,134.17L76.91,132.37L76.41,132.86"/><path d="M76.13,133.76L77.07,132.86L75.05,134.82"/><path d="M76.13,131.85L76.54,132.12L76.13,132.53"/><path d="M75.97,132.06L75.05,131.41"/><path d="M76.35,143.57L76.46,144.41"/><path d="M76.71,136.22L77.69,136.92L77.71,136.66L77.69,136.92L77.20,136.56"/><path d="M77.08,136.07L76.85,135.99L77.22,136.12L77.08,136.07"/><path d="M76.91,132.37L77.30,132.63L77.07,132.86"/><path d="M77.31,144.93L77.20,144.81"/><path d="M77.22,136.12L77.33,136.12L77.57,136.02L77.71,135.80L77.80,135.87L77.81,136.07L77.71,136.66"/><path d="M78.38,141.88L78.38,141.93L78.78,142.45L78.96,142.93L79.29,145.05L79.37,145.90L79.34,146.04L79.27,146.14L79.14,146.17L79.00,146.13L78.99,146.20L79.82,146.73L79.24,142.50L78.38,141.88L78.83,142.19"/><path d="M79.39,143.57L79.32,143.20"/><path d="M79.24,142.50L79.12,142.40"/><path d="M79.07,133.79L79.34,133.99L78.72,133.54L78.71,133.59L79.12,134.12L79.31,134.62L79.64,136.82L79.72,137.71L79.69,137.86L79.62,137.97L79.49,138.01L79.34,137.97L79.34,138.04L80.19,138.57L80.16,138.21L80.19,138.57"/><path d="M79.34,133.99L79.58,134.16L80.16,138.21"/><path d="M80.11,146.79L80.12,146.93L79.53,142.71L79.56,143.01"/><path d="M80.12,146.93L81.49,147.88L80.42,147.14"/><path d="M81.48,145.98L80.17,145.07L80.28,145.94L80.46,146.79L80.36,146.40"/><path d="M81.49,145.72L81.59,145.76L81.31,145.62L80.12,144.83L79.96,143.53L79.99,143.25L81.27,144.12L80.92,143.86"/><path d="M79.53,142.71L81.04,143.73L80.67,143.48"/><path d="M80.42,138.24L80.28,137.14L80.49,138.77L80.42,138.24"/><path d="M80.28,137.14L79.90,134.37L81.68,135.55L81.49,135.42"/><path d="M79.49,138.01L79.62,137.97"/><path d="M81.49,135.66L81.67,135.79L80.37,134.92L80.33,135.22L80.50,136.57L81.69,137.36L82.00,137.50L81.69,137.36"/><path d="M80.40,135.86L80.45,136.07"/><path d="M80.42,134.72L81.06,135.15"/><path d="M80.46,146.79L80.46,146.88L80.64,147.02L81.78,147.79L82.12,147.94L82.38,147.92L82.56,147.79L82.65,147.83L82.49,148.61L82.57,148.17"/><path d="M81.59,145.76L81.70,145.73L81.80,145.54L81.87,145.59L81.92,146.17L82.07,146.92L81.98,146.87L81.89,146.56L81.71,146.24L81.18,145.76"/><path d="M81.27,144.12L81.64,144.48L81.95,145.06L82.02,145.11L81.93,144.52L81.95,144.64"/><path d="M81.17,143.79L81.28,143.88L81.04,143.73"/><path d="M81.28,143.88L81.89,144.27L81.49,144.02"/><path d="M82.10,139.86L82.51,140.15L80.49,138.77"/><path d="M82.51,140.15L82.92,140.46L83.08,139.64L83.00,139.59L82.81,139.74L82.56,139.77L82.19,139.62L80.84,138.70L80.66,137.73L80.55,136.82L81.88,137.75L81.58,137.51"/><path d="M81.49,147.88L81.69,148.02L81.49,147.88"/><path d="M82.49,148.61L81.69,148.02"/><path d="M82.12,147.94L81.49,147.60"/><path d="M82.56,147.79L82.65,147.86"/><path d="M81.93,144.52L81.89,144.27"/><path d="M81.49,139.16L82.19,139.62"/><path d="M81.88,137.75L82.22,138.15L82.40,138.65L82.49,138.71L82.34,137.92L82.29,137.32L82.21,137.27L82.11,137.47L82.00,137.50"/><path d="M81.68,135.55L82.30,135.93L82.44,136.81L82.38,136.76L82.05,136.17L81.67,135.79"/><path d="M83.63,145.51L84.20,145.90L83.46,145.39L83.46,145.46L84.02,146.16L84.38,146.79L86.68,151.53L86.48,151.07"/><path d="M82.95,140.36L82.95,140.22"/><path d="M84.38,146.79L84.24,146.57"/><path d="M84.44,146.92L84.91,147.86"/><path d="M84.41,146.32L84.20,145.90L86.72,151.07L86.85,151.40L86.74,151.57L86.68,151.53"/><path d="M84.65,146.79L85.17,147.86"/><path d="M84.66,146.39L84.53,146.12L85.41,146.72L85.42,146.80L85.26,146.79L85.22,146.88L85.39,147.42L86.87,150.49L87.65,148.99L87.68,148.72L87.64,148.56L87.32,148.10L87.33,148.03L88.62,148.90L88.62,148.98L88.41,148.95L88.23,148.99L88.03,149.20L86.95,151.17L84.66,146.39"/><path d="M84.20,145.90L84.19,145.84"/><path d="M89.88,145.12L87.25,141.43L89.88,145.12L89.96,145.17L89.94,144.86L89.80,144.64L85.21,138.21L84.77,137.63L84.06,137.16L84.05,137.22L84.63,137.87L85.49,139.03L85.81,141.64L85.76,141.96L85.70,142.02L85.59,142.04L85.34,141.97L85.34,142.05L86.90,143.10L86.89,143.03L86.55,142.67L86.79,142.93"/><path d="M85.43,148.93L85.96,150.00"/><path d="M85.68,148.93L86.20,150.00"/><path d="M85.63,147.94L86.13,148.93"/><path d="M86.98,140.36L85.23,137.94L89.86,144.38"/><path d="M85.68,138.21L87.23,140.36L85.78,138.33L85.23,137.94L85.68,138.21"/><path d="M85.21,138.21L85.98,139.29"/><path d="M86.74,151.57L86.85,151.35L86.72,151.07"/><path d="M86.65,150.00L86.87,150.49"/><path d="M86.55,142.67L86.29,142.26L86.17,141.87L85.84,139.51L87.25,141.43L86.48,140.36"/><path d="M89.04,143.57L86.74,140.36"/><path d="M85.97,140.36L85.84,139.51"/><path d="M87.75,141.43L89.87,144.42L89.54,141.65L89.56,141.39L89.62,141.25L89.73,141.19L89.62,141.25"/><path d="M87.23,140.36L89.47,143.53L87.23,140.36"/><path d="M88.03,149.20L88.23,148.99"/><path d="M88.62,148.93L87.92,148.44"/><path d="M88.99,140.46L88.38,140.05L90.08,141.18L88.99,140.46"/><path d="M89.47,143.53L89.27,141.83L89.13,141.13L88.86,140.61L88.37,140.11L88.38,140.05"/><path d="M90.07,149.86L90.44,150.14L90.07,149.86L90.07,149.93L90.30,150.17L90.54,150.58L90.73,151.37L91.00,153.91L90.88,154.15L90.75,154.18L90.59,154.13L90.59,154.20L91.46,154.76L91.42,154.29L91.46,154.76L91.19,154.57"/><path d="M89.94,144.86L89.92,144.83L89.95,144.99"/><path d="M89.92,144.83L89.80,144.64"/><path d="M89.73,141.19L89.89,141.18L90.09,141.26L90.08,141.18"/><path d="M91.42,154.29L91.01,150.87L90.95,150.51L90.88,150.44"/><path d="M90.95,150.51L90.44,150.14"/><path d="M91.03,151.07L91.16,152.14"/><path d="M91.69,154.29L91.76,154.97L91.31,151.07L91.34,151.43"/><path d="M92.21,151.37L91.27,150.73L93.72,152.36L93.84,153.20L93.77,153.15L93.45,152.57L93.07,152.19L91.74,151.28L91.70,151.57L91.83,152.86L93.04,153.69L93.33,153.83L93.47,153.81L93.59,153.62L93.67,153.68L93.70,154.26L93.83,155.01L93.74,154.95L93.56,154.46L93.22,154.06L91.87,153.10L91.96,153.98L92.13,154.92L93.11,155.62L92.49,155.20"/><path d="M91.76,154.97L94.23,156.71L94.41,155.94L94.34,155.87L94.13,156.02L93.85,156.03L93.49,155.86L93.11,155.62"/><path d="M92.21,153.12L92.71,153.47"/><path d="M91.27,150.73L91.31,151.07"/><path d="M93.93,147.91L94.35,148.07L93.93,147.91L93.68,147.76L92.37,146.70L92.16,145.33L92.26,145.40L92.39,145.86L92.61,146.29L93.22,147.08L93.70,147.48L94.02,147.66L94.29,147.68L94.45,147.57L94.48,147.41L94.41,147.06L94.19,146.67L93.74,146.16L94.19,146.67"/><path d="M93.74,146.16L92.47,144.88L92.02,144.24L91.86,143.90L91.79,143.59L91.81,143.29L91.92,143.12L91.95,143.10L91.92,143.34L91.99,143.66L92.34,144.35L92.58,144.67L93.63,145.71L94.35,146.54L93.92,146.02"/><path d="M92.14,144.02L92.34,144.35"/><path d="M92.33,146.56L92.34,146.65"/><path d="M93.92,145.71L94.04,145.86L93.07,144.89L92.53,144.28L92.27,143.78L92.21,143.51L92.22,143.24L92.32,143.09L92.51,143.03L93.00,143.18L93.67,143.57L94.14,143.94L93.55,143.51"/><path d="M93.70,145.21L94.15,145.66L92.79,144.24L92.58,143.89L92.53,143.68L92.59,143.47L92.55,143.57"/><path d="M94.35,144.54L94.38,144.60L93.88,144.07L93.41,143.71L93.06,143.51L92.75,143.43L92.59,143.47"/><path d="M94.13,156.02L94.35,155.90"/><path d="M94.32,156.27L94.37,156.11"/><path d="M93.28,153.81L93.36,153.84"/><path d="M93.28,152.08L93.72,152.36"/><path d="M94.58,148.05L94.35,148.07L94.65,148.01L94.79,147.82L94.81,147.51L94.64,146.97L94.35,146.54"/><path d="M93.32,147.49L93.68,147.76"/><path d="M94.02,147.66L94.29,147.68"/><path d="M94.04,145.86L94.44,146.30L94.79,146.79L95.03,147.34L95.10,147.67L95.10,147.93L95.02,148.11L95.19,148.05L95.31,147.86L95.31,147.56L95.23,147.22L95.06,146.79L94.59,146.13L94.15,145.66"/><path d="M93.88,144.07L93.41,143.71"/><path d="M94.14,143.94L94.74,144.42L94.73,144.46L94.35,144.12"/><path d="M94.79,146.79L94.68,146.63"/><path d="M94.59,146.13L94.85,146.47"/><path d="M94.73,144.46L94.87,145.56L94.78,145.50L94.70,145.17L94.43,144.64L94.57,144.89"/><path d="M94.43,144.64L94.38,144.60"/><path d="M96.17,157.87L96.19,157.93L96.50,158.17L96.19,157.93L96.15,157.81L96.17,157.90"/><path d="M96.50,158.17L97.13,158.71L97.73,159.14L98.12,159.31L98.45,159.26L98.59,159.08L98.62,158.81L98.58,158.57L98.45,158.26L97.90,157.50L97.20,156.80L97.57,157.17"/><path d="M96.43,157.54L96.60,157.80L96.21,157.12L96.09,156.68L95.99,156.61L96.15,157.81"/><path d="M95.80,154.47L95.66,154.64L95.64,154.93L95.71,155.23L95.86,155.56L96.31,156.19L97.57,157.47L97.09,156.99"/><path d="M95.77,154.49L95.84,155.01L96.18,155.68L96.41,155.99L97.20,156.80"/><path d="M97.33,154.85L97.40,154.92L96.85,154.59L96.36,154.42L96.17,154.47L96.08,154.61L96.06,154.87L96.22,155.38L96.37,155.62L96.90,156.22L97.45,156.77L97.14,156.43"/><path d="M96.39,154.92L96.44,154.85L96.38,155.04L96.43,155.24L96.63,155.59L98.46,157.50L98.66,157.80L98.46,157.50"/><path d="M95.77,154.70L95.84,155.01"/><path d="M96.44,154.85L96.60,154.81L96.91,154.90L97.25,155.10L97.71,155.46L98.16,155.92L98.40,156.27L98.53,156.55L98.60,156.87L98.69,156.93L98.55,155.84L98.01,155.36L97.40,154.92"/><path d="M96.60,157.80L97.03,158.32L97.51,158.72L97.83,158.90L98.10,158.94L98.25,158.83L98.28,158.68L98.22,158.34L98.00,157.96L97.57,157.47"/><path d="M97.36,158.57L97.03,158.32"/><path d="M97.48,158.98L97.73,159.14"/><path d="M97.45,156.77L98.25,157.62L98.49,157.95L98.83,158.63L98.90,158.95L98.83,158.63"/><path d="M96.63,155.59L97.43,156.43"/><path d="M97.83,158.90L98.10,158.94"/><path d="M98.38,159.30L98.12,159.31"/><path d="M98.01,155.36L97.57,155.05"/><path d="M98.62,156.31L98.64,156.45"/><path d="M98.88,158.15L98.66,157.80L99.06,158.57L99.11,158.86L99.09,159.17L98.98,159.32L98.81,159.37L98.90,159.20L98.90,158.95"/><path d="M98.81,159.37L98.98,159.32"/><path d="M100.79,60.42L100.21,60.78L100.64,61.01L101.99,60.19L102.60,60.52L101.26,61.34L101.69,61.57L104.70,59.73L104.26,59.51L103.04,60.25L102.42,59.93L103.65,59.18L103.22,58.96L100.79,60.42"/><path d="M105.62,63.54L105.66,63.64L105.73,63.70L106.76,64.24L107.05,64.29L107.22,64.23L109.76,62.65L109.84,62.58L109.86,62.48L109.76,62.38L108.73,61.84L108.53,61.79L108.35,61.81L106.04,63.21L105.62,63.54"/><path d="M106.86,64.28L106.95,64.29"/><path d="M106.99,63.86L106.37,63.53L108.50,62.21L109.12,62.54L106.99,63.86"/><path d="M109.36,62.16L108.73,61.84"/><path d="M110.20,56.75L110.89,56.61L111.50,56.59L110.96,56.79L110.48,57.04L110.00,57.41L109.71,57.86L109.64,58.26L109.79,58.66L109.31,58.28L109.12,57.81L109.21,57.44L109.46,57.14L109.67,56.99L110.20,56.75L109.67,56.99"/><path d="M109.64,58.26L109.79,58.66L109.36,58.32"/><path d="M110.23,58.23L110.25,58.53L110.23,58.23L110.41,57.68L110.74,57.32L111.54,56.92L112.09,56.79L111.51,56.93L112.16,56.79L111.54,56.92"/><path d="M110.25,58.53L110.47,58.91L111.00,59.29L110.52,58.93"/><path d="M111.14,66.56L112.19,67.11L112.39,67.16L112.57,67.14L115.42,65.33L114.98,65.11L112.42,66.73L111.78,66.39L114.34,64.77L113.89,64.54L111.13,66.28L111.06,66.34L111.03,66.45L111.14,66.56"/><path d="M111.22,59.37L111.51,59.47L111.18,59.37L111.22,59.37"/><path d="M111.51,59.47L111.98,59.61L113.13,59.70L113.20,60.01L113.33,60.31L113.59,60.59L113.95,60.82L114.40,60.93L114.08,60.60L113.88,60.24L113.73,59.69L113.70,59.14L113.78,57.43L113.87,56.79L114.07,56.09L113.87,56.79"/><path d="M111.00,59.29L111.18,59.37"/><path d="M111.49,59.07L111.22,58.90L110.98,58.61L110.92,58.26L110.94,58.06L111.11,57.72L111.45,57.43L111.80,57.26L112.36,57.12L113.19,57.09L113.10,57.93L113.07,59.35L112.03,59.27L111.49,59.07"/><path d="M110.89,56.61L111.50,56.59"/><path d="M112.09,56.79L112.21,56.78L112.16,56.79"/><path d="M113.11,56.74L112.58,56.77L113.14,56.75L112.21,56.78"/><path d="M113.26,56.76L113.43,56.25L113.26,56.76L113.14,56.75"/><path d="M113.43,56.25L113.67,55.89L113.83,55.78L113.65,55.92"/><path d="M114.08,60.60L113.88,60.24"/><path d="M115.09,60.98L115.37,61.08L115.80,61.14L115.37,61.08L114.94,60.93L114.58,60.64L114.32,60.18L114.23,59.27L114.27,58.35L114.33,57.41L114.49,56.47L114.66,56.08L115.00,55.72L115.33,55.57L115.96,55.49L116.55,55.56L116.87,55.69L116.50,55.56"/><path d="M113.65,60.63L113.95,60.82L114.16,60.89"/><path d="M114.07,56.09L114.27,55.77L114.57,55.49L114.18,55.60L113.83,55.78L114.18,55.60"/><path d="M115.80,61.14L115.87,61.15L115.88,61.07L115.45,60.93L115.15,60.67L114.94,60.26L114.90,60.00L114.94,60.26"/><path d="M115.41,60.91L115.26,60.77"/><path d="M117.04,55.75L116.87,55.69L117.12,55.78L117.54,56.07L117.77,56.43L117.77,56.69L117.64,56.90L117.43,57.07L117.01,57.25L116.48,57.35L115.58,57.37L114.95,57.31L114.79,59.19L115.58,59.09L116.06,58.98L116.31,58.88L116.06,58.98"/><path d="M115.80,59.41L116.38,59.34L114.81,59.52L114.90,60.00"/><path d="M114.99,56.79L114.99,56.96L115.67,57.00L116.12,56.94L116.60,56.75L116.83,56.56L116.92,56.34L116.85,56.16L116.69,56.02L116.29,55.85L115.92,55.82L115.64,55.85L115.40,55.94L115.21,56.13L115.02,56.59L114.99,56.79"/><path d="M119.12,67.54L119.20,67.50L118.30,68.08L118.36,69.23L117.82,69.58L117.25,69.28L117.79,68.93L117.34,68.69L116.58,69.17L116.51,69.23L116.49,69.34L116.61,69.44L117.62,69.98L117.91,70.02L118.08,69.95L118.96,69.34L118.92,68.57L118.96,69.02"/><path d="M116.38,59.34L116.87,59.30L116.52,59.33"/><path d="M116.31,58.88L116.42,58.78L116.45,58.59L116.35,58.43L116.12,58.24L116.21,58.18L117.44,58.89L118.40,59.36L118.31,59.41L117.97,59.31L117.42,59.27L117.90,59.29L117.97,59.31L117.42,59.27L116.87,59.30L117.42,59.27"/><path d="M116.45,56.83L116.60,56.75"/><path d="M117.54,69.93L117.01,69.64"/><path d="M117.63,58.99L116.87,58.58"/><path d="M118.92,68.57L118.89,68.22L119.38,67.91L119.95,68.21L119.44,68.53L119.90,68.77L120.69,68.25L120.70,68.15L120.58,68.04L119.60,67.52L119.38,67.47L119.20,67.50"/><path d="M118.12,59.22L117.94,59.14"/><path d="M119.69,68.66L119.52,68.57"/><path d="M119.60,67.52L119.46,67.47"/><path d="M120.09,67.78L120.58,68.04"/><path d="M120.70,68.15L120.69,68.21"/><path d="M124.82,70.25L125.45,70.58L124.82,70.25L121.84,72.21L123.16,72.91L123.59,72.62L122.74,72.17L123.60,71.60L124.34,71.99L124.77,71.71L124.03,71.32L124.77,71.71"/><path d="M122.23,72.41L123.07,72.86"/><path d="M122.74,72.17L123.30,72.47"/><path d="M124.34,71.99L123.60,71.60"/><path d="M124.03,71.32L124.86,70.78L125.45,71.09L124.86,70.78"/><path d="M123.50,65.63L124.38,66.08L123.50,65.63L123.60,65.56L124.15,65.66L124.48,65.63L124.72,65.59L125.42,65.30L129.68,62.60L128.77,62.14L129.68,62.60"/><path d="M123.82,65.60L124.15,65.66"/><path d="M124.81,66.31L124.38,66.08L124.81,66.31L130.46,62.65L128.53,61.68L127.34,61.00L125.96,61.79L126.03,61.74"/><path d="M125.45,71.09L125.71,71.22L126.14,70.94L125.70,70.71L126.14,70.94"/><path d="M132.88,64.29L132.95,64.34L132.43,64.00L131.11,63.33L127.96,65.36L126.81,66.16L126.49,66.57L126.46,66.82L126.70,67.16L126.60,67.23L125.26,66.54L130.90,62.88L134.03,64.40L133.61,64.23"/><path d="M125.45,70.58L125.70,70.71"/><path d="M125.96,61.79L125.89,61.84L126.02,61.90L126.65,61.69L127.20,61.59L127.41,61.60L127.75,61.67L128.77,62.14"/><path d="M128.66,50.29L129.81,50.07L129.31,50.02L128.25,50.11L127.12,50.45L126.60,50.72L126.00,51.19L125.64,51.72L125.56,52.25L125.80,52.73L125.89,52.21L126.33,51.61L127.17,50.97L127.63,50.71L128.66,50.29L127.63,50.71"/><path d="M126.35,52.91L126.33,52.84L126.44,53.25L126.35,52.91"/><path d="M126.33,52.84L126.48,52.20L126.99,51.61L127.59,51.17L128.57,50.68L129.59,50.39L130.53,50.31L130.81,50.34L130.48,50.32"/><path d="M126.44,53.25L126.90,53.81L127.59,54.25L126.90,53.81"/><path d="M127.20,61.59L126.65,61.69"/><path d="M127.34,61.00L127.20,61.07"/><path d="M129.74,50.79L130.49,50.67L129.49,50.83L128.61,51.17L128.11,51.43L127.31,52.08L127.08,52.50L126.97,52.80L127.08,53.26L127.47,53.70L128.09,54.08L128.66,54.31L128.09,54.08"/><path d="M127.35,53.57L127.08,53.26"/><path d="M127.59,54.25L128.66,54.71L127.74,54.34"/><path d="M127.31,52.08L127.08,52.50"/><path d="M127.69,61.22L129.49,62.11"/><path d="M128.66,54.71L130.04,55.08L131.09,54.63L130.92,54.56L130.24,54.58L129.52,54.51L128.66,54.31"/><path d="M129.74,62.29L130.46,62.65"/><path d="M130.65,69.20L130.55,69.27L131.83,69.94L137.46,66.20L136.17,65.55L136.07,65.61L136.27,65.86L136.30,66.13L135.99,66.54L133.10,68.50L132.12,69.07L131.79,69.19L131.41,69.26L130.65,69.20"/><path d="M130.81,69.41L131.83,69.94"/><path d="M130.81,54.75L131.09,54.63"/><path d="M130.49,50.67L131.09,50.66L131.88,50.78L131.09,50.66"/><path d="M131.62,50.39L130.81,50.34L131.62,50.39L132.71,50.67L131.88,50.46"/><path d="M131.88,50.78L132.83,51.11L133.28,51.38L133.62,51.72L133.75,52.09L133.65,52.50L133.27,53.01L133.37,53.06L134.99,52.10L134.26,51.48L133.34,50.93L132.71,50.67"/><path d="M133.55,78.21L133.46,78.24L133.65,78.16L136.15,76.45L136.25,76.33L136.20,76.22L135.01,75.58L134.80,75.52L134.61,75.55L132.22,77.14L131.94,77.37L131.92,77.48L132.04,77.60L132.95,78.08L132.04,77.60"/><path d="M132.95,78.08L133.27,78.23L133.46,78.24"/><path d="M132.69,77.42L134.80,75.98L135.48,76.34L133.37,77.78L132.69,77.42"/><path d="M136.17,68.95L137.24,69.49L135.53,68.62L134.01,69.64L133.53,70.12L133.48,70.27L133.53,70.53L133.74,70.80L133.63,70.87L132.29,70.17L137.92,66.43L139.25,67.09L139.15,67.17L138.62,67.08L138.07,67.13L137.39,67.42L135.93,68.35L136.99,68.88L136.17,68.47"/><path d="M132.95,70.51L133.63,70.87"/><path d="M133.90,64.68L132.79,65.35L132.65,65.28L132.95,65.00L133.13,64.69L133.10,64.52L132.95,64.34"/><path d="M132.89,56.79L132.32,56.51L132.95,56.82L132.89,56.79"/><path d="M137.67,53.04L138.31,53.35L137.67,53.04L137.57,53.10L137.71,53.24L137.81,53.43L137.79,53.64L137.47,53.99L137.01,54.32L134.16,56.12L133.42,56.44L133.14,56.49L132.37,56.42L132.27,56.48L132.32,56.51"/><path d="M132.95,51.19L133.28,51.38"/><path d="M133.27,78.23L133.16,78.18"/><path d="M132.95,68.59L133.10,68.50"/><path d="M133.86,64.70L134.19,64.49L134.03,64.40L134.22,64.47L134.19,64.49"/><path d="M133.47,64.95L133.56,64.89"/><path d="M138.93,53.65L138.31,53.35L138.93,53.65L133.54,57.11L132.95,56.82"/><path d="M135.10,57.88L135.26,57.96L135.36,57.90L135.18,57.65L135.14,57.41L135.20,57.26L135.44,56.98L135.94,56.62L138.57,54.93L139.12,54.64L139.67,54.48L140.13,54.47L140.55,54.55L140.65,54.49L139.37,53.87L133.98,57.33L135.10,57.88L134.60,57.64"/><path d="M133.42,56.44L133.14,56.49"/><path d="M133.34,50.93L134.03,51.34"/><path d="M135.10,75.62L135.95,76.07"/><path d="M134.80,75.52L134.70,75.53"/><path d="M136.36,68.57L138.99,69.91L140.45,68.87L140.76,68.47L140.78,68.21L140.55,67.88L140.65,67.81L141.99,68.49L136.38,72.28L135.03,71.59L135.14,71.52L135.61,71.59L136.10,71.57L136.59,71.42L137.24,71.07L138.59,70.18L137.24,69.49L138.31,70.04"/><path d="M136.15,76.45L136.22,76.39"/><path d="M135.93,72.05L135.10,71.62"/><path d="M136.84,72.52L142.45,68.73L143.78,69.40L143.68,69.47L143.21,69.38L142.80,69.41L142.33,69.55L141.63,69.91L138.81,71.79L138.20,72.33L138.04,72.63L138.06,72.86L138.27,73.14L138.17,73.21L136.84,72.52"/><path d="M136.99,68.88L137.24,69.02"/><path d="M138.14,80.82L137.65,80.56L140.61,78.51L141.95,79.21L141.53,79.50L140.67,79.06L139.85,79.63L140.59,80.01L140.16,80.31L139.43,79.92L138.14,80.82"/><path d="M138.17,73.21L137.49,72.86L138.14,73.19"/><path d="M137.24,72.73L137.49,72.86"/><path d="M138.99,69.91L138.31,69.57"/><path d="M138.57,54.93L139.23,54.60"/><path d="M146.15,57.16L145.82,57.00L146.15,57.16L140.78,60.69L139.45,60.04L139.55,59.97L140.09,60.05L140.42,60.04L140.65,60.00L141.32,59.72L145.38,57.11L143.46,56.22L142.90,56.14L142.36,56.23L141.75,56.44L141.62,56.38L141.88,56.19L143.01,55.57L144.21,56.22L145.82,57.00L144.75,56.48"/><path d="M140.77,74.43L140.67,74.50L142.02,75.20L147.62,71.34L146.27,70.66L146.17,70.73L146.32,70.88L146.43,71.09L146.41,71.31L146.09,71.72L143.31,73.68L142.65,74.10L141.88,74.44L141.25,74.50L140.77,74.43"/><path d="M140.78,60.69L140.66,60.64"/><path d="M146.89,57.53L147.96,58.05L146.59,57.38L141.23,60.92L142.57,61.59L142.67,61.52L142.57,61.59"/><path d="M142.02,75.20L141.53,74.95"/><path d="M143.97,76.08L143.77,75.81L143.73,75.53L143.78,75.37L144.09,75.00L145.57,73.93L147.13,72.86L147.96,72.40L148.43,72.26L148.90,72.25L149.36,72.34L149.45,72.26L148.09,71.58L142.50,75.45L143.86,76.15L143.97,76.08L143.92,76.11"/><path d="M141.83,69.81L142.41,69.53"/><path d="M142.40,61.50L141.54,61.07"/><path d="M146.90,57.86L147.96,58.37L146.93,57.86L146.81,57.81L146.73,57.86L143.48,60.00L142.73,60.56L142.43,60.94L142.42,61.07L142.41,61.19L142.67,61.52"/><path d="M142.60,60.72L142.73,60.56"/><path d="M143.58,69.45L143.68,69.47"/><path d="M143.86,76.15L143.68,76.05"/><path d="M143.89,56.39L144.75,56.81"/><path d="M152.09,73.64L152.18,73.58L152.09,73.64L152.29,73.90L152.32,74.18L152.01,74.62L151.51,75.03L149.30,76.58L148.06,77.36L147.73,77.49L147.35,77.56L146.95,77.57L146.57,77.51L146.47,77.58L147.89,78.23L147.47,78.02"/><path d="M146.85,63.59L146.75,63.66L148.08,64.31L153.42,60.70L152.11,60.06L152.01,60.12L152.16,60.27L152.27,60.47L152.25,60.68L151.93,61.07L149.29,62.89L148.66,63.28L147.93,63.60L147.32,63.66L146.85,63.59"/><path d="M147.89,78.23L153.46,74.30L152.79,73.93L153.25,74.20"/><path d="M147.96,58.05L149.93,58.94L148.57,59.77L148.43,59.70L148.72,59.42L148.87,59.13L148.83,58.97L148.66,58.78L147.96,58.37"/><path d="M148.24,85.86L148.17,85.94L148.15,86.05L148.28,86.17L149.45,86.79L149.77,86.85L149.96,86.77L150.69,86.24L150.18,85.98L149.65,86.36L148.94,85.99L151.03,84.48L151.74,84.85L151.21,85.23L151.71,85.50L152.43,84.97L152.51,84.90L152.52,84.78L152.39,84.66L151.22,84.05L150.91,84.00L150.72,84.08L150.11,84.50L148.24,85.86"/><path d="M149.04,86.57L149.45,86.79"/><path d="M149.04,78.82L150.11,79.38L148.36,78.47L153.93,74.54L156.54,75.84L155.77,75.47"/><path d="M148.08,64.31L147.96,64.26"/><path d="M148.54,64.54L149.87,65.20L149.97,65.14L149.78,64.88L149.73,64.63L149.78,64.47L150.02,64.18L151.36,63.21L152.94,62.14L153.77,61.70L154.22,61.55L154.68,61.54L155.12,61.64L155.22,61.57L153.89,60.93L148.54,64.54"/><path d="M149.04,58.56L149.31,58.69"/><path d="M154.18,77.60L153.88,77.50L154.48,77.69L154.77,77.68L155.40,77.53L155.54,77.60L154.57,78.21L153.82,78.85L153.68,78.78L153.93,78.47L154.00,78.30L153.98,78.15L153.77,77.90L153.33,77.61L151.70,76.77L149.95,78.03L149.42,78.49L150.90,79.29L151.53,79.58L152.23,79.78L152.99,79.81L153.73,79.73L153.86,79.80L152.11,80.49L150.11,79.38"/><path d="M149.36,72.34L149.41,72.31"/><path d="M149.97,65.14L149.90,65.19"/><path d="M150.18,85.98L150.69,86.24"/><path d="M151.18,84.56L151.74,84.85"/><path d="M151.18,79.42L151.53,79.58"/><path d="M151.71,85.50L151.21,85.23"/><path d="M156.54,75.84L157.77,76.41L156.75,77.19L156.67,77.14L156.76,76.80L156.74,76.55L156.70,76.46L156.34,76.15L155.75,75.82L154.29,75.11L153.75,75.37L152.00,76.56L153.88,77.50"/><path d="M152.25,77.06L153.04,77.46"/><path d="M152.18,73.58L152.79,73.93"/><path d="M152.18,66.35L152.13,66.32L152.25,66.31L152.18,66.35"/><path d="M152.13,66.32L152.73,66.62L152.25,66.38"/><path d="M152.25,80.42L152.59,80.28"/><path d="M153.29,66.90L154.40,66.75L153.29,66.90"/><path d="M152.73,66.62L154.40,66.40L153.32,66.54"/><path d="M153.32,66.91L155.47,67.98L154.40,67.45"/><path d="M152.25,66.31L153.32,66.17L152.25,66.31"/><path d="M157.11,87.66L154.61,89.52L154.09,89.25L157.02,87.09L158.58,87.92L158.64,88.03L158.54,88.17L157.33,89.05L157.05,89.07L156.66,88.90L155.93,90.22L155.42,89.94L156.10,88.56L156.36,88.38L156.96,88.70L157.84,88.04L157.11,87.66L157.61,87.93"/><path d="M153.77,77.90L153.33,77.61"/><path d="M158.69,65.46L159.76,65.32L153.32,66.17"/><path d="M153.77,61.70L153.83,61.68"/><path d="M155.47,89.97L155.60,90.04"/><path d="M155.47,67.52L154.61,67.10L156.54,68.05L155.47,67.52"/><path d="M155.47,67.98L156.54,68.51L155.47,67.98"/><path d="M157.61,66.32L158.69,66.18L154.40,66.75"/><path d="M154.61,67.10L157.61,66.69L157.10,66.76"/><path d="M158.69,65.82L159.76,65.68L154.40,66.40"/><path d="M155.12,61.64L155.06,61.63"/><path d="M156.01,205.90L156.02,205.73L156.05,205.91L156.15,206.00"/><path d="M156.02,205.73L156.04,204.64L156.01,205.62"/><path d="M155.70,206.44L156.45,178.48L156.61,177.89L157.00,177.24L274.21,68.29L274.34,68.20L274.43,68.20"/><path d="M265.91,94.22L265.45,94.01L267.95,95.15L267.84,95.43L267.60,95.79L156.73,205.43L156.60,205.54L156.39,205.60L156.32,205.44L156.61,195.09L156.29,195.40L156.04,204.64"/><path d="M156.33,205.15L156.73,205.43"/><path d="M156.29,195.40L156.31,194.88L156.61,195.09"/><path d="M156.31,194.88L156.57,185.36L156.54,186.43"/><path d="M156.19,76.07L155.81,75.86"/><path d="M156.39,63.67L156.25,63.60L156.39,63.67L157.25,63.47L157.77,63.47L158.62,63.71L160.83,64.75L159.76,64.23"/><path d="M156.25,63.60L156.92,63.21L156.69,63.35"/><path d="M156.57,185.36L156.76,178.19L156.93,177.69L157.23,177.31L274.14,68.60L274.27,68.54L274.30,68.58L274.29,68.79L267.95,95.15"/><path d="M156.85,88.99L156.66,88.90"/><path d="M156.75,77.19L156.67,77.14"/><path d="M157.66,76.49L157.74,76.42L156.76,75.95"/><path d="M156.76,68.62L156.54,68.51L158.23,69.42L158.69,69.21L158.23,69.42L157.61,69.07"/><path d="M157.35,68.93L157.32,68.91"/><path d="M156.54,68.05L157.50,68.46L158.26,68.65L159.34,68.63L160.08,68.49L160.21,68.57L158.69,69.21"/><path d="M156.54,66.46L157.04,66.39"/><path d="M156.92,63.21L157.75,62.74L159.36,63.59L160.83,64.30L159.76,63.78"/><path d="M157.77,76.41L157.74,76.42"/><path d="M158.26,68.65L157.61,68.49"/><path d="M157.61,66.69L159.76,66.41L158.69,66.55"/><path d="M158.84,84.02L158.98,83.57L158.84,84.02L158.95,84.07L159.56,83.91L160.83,80.06L160.73,80.36"/><path d="M159.56,83.91L158.95,84.07"/><path d="M158.98,83.57L160.01,80.36L159.76,81.16"/><path d="M159.73,68.80L160.21,68.57"/><path d="M158.69,66.18L161.90,65.75L160.83,65.89"/><path d="M159.76,65.68L162.81,65.27L160.83,64.30L161.90,64.83"/><path d="M159.76,65.32L161.52,65.08L160.83,64.75"/><path d="M160.58,92.67L160.83,92.80L160.44,92.55L160.45,92.42L160.52,92.35L162.98,90.49L163.17,90.41L163.37,90.42L164.05,90.76L163.49,90.47"/><path d="M160.22,83.72L160.83,83.56L160.22,83.72L160.62,82.50L160.26,83.57"/><path d="M160.83,83.56L166.45,82.07L167.30,81.91L167.84,81.91L168.37,81.98L168.47,81.90L166.38,80.85L166.28,80.92L166.42,81.09L166.46,81.25L166.41,81.39L166.25,81.55L165.73,81.79L161.11,83.07L161.28,82.50L161.11,83.07"/><path d="M161.33,80.36L161.69,79.29L160.62,82.50"/><path d="M160.01,80.36L160.35,79.30L160.01,80.36"/><path d="M160.35,79.30L160.46,78.61L160.35,79.30"/><path d="M160.83,80.06L161.40,78.33L161.18,78.21L161.40,78.33L161.21,78.91"/><path d="M160.46,78.61L160.47,78.52L160.35,78.08L160.09,77.78L160.19,77.71L161.18,78.21"/><path d="M160.81,70.69L160.90,70.63L160.81,70.69L162.22,71.32L167.52,67.55L166.23,66.86L166.14,66.92L166.21,66.97L166.14,66.92"/><path d="M160.83,66.26L161.90,66.12L159.76,66.41"/><path d="M161.61,93.21L161.79,93.31L160.83,92.80L160.99,92.88"/><path d="M161.79,93.31L162.02,93.38L162.31,93.29L164.83,91.35L164.85,91.23L164.80,91.17L164.05,90.76L164.71,91.10"/><path d="M163.31,90.91L161.24,92.48L161.98,92.87L164.05,91.30L163.31,90.91L164.05,91.30"/><path d="M161.69,79.29L161.93,78.59L163.33,79.30L163.23,79.37L162.83,79.31L162.55,79.40L162.16,79.88L161.96,80.36L161.28,82.50"/><path d="M161.31,70.90L160.86,70.71"/><path d="M160.90,70.63L161.27,70.69L161.67,70.68L162.03,70.61L162.35,70.49L162.97,70.12L165.63,68.25L166.11,67.86L166.36,67.54L166.39,67.43L166.35,67.16L166.21,66.97"/><path d="M161.90,65.39L162.81,65.27L162.07,64.91"/><path d="M161.93,78.59L163.33,79.30"/><path d="M169.82,68.67L170.48,68.98L167.98,67.78L162.69,71.55L164.05,72.23L162.97,71.70"/><path d="M161.90,65.75L163.39,65.55L163.99,65.84L161.90,66.12"/><path d="M163.23,79.37L163.19,79.36"/><path d="M165.21,72.34L165.84,72.62L165.21,72.34L163.73,71.57L164.75,70.71L165.89,69.92L167.52,70.73L167.94,70.98L168.18,71.25L168.20,71.39L168.15,71.55L167.91,71.85L168.05,71.91L168.89,71.23L169.65,70.71L169.54,70.65L168.94,70.79L168.57,70.79L168.05,70.61L166.17,69.72L167.84,68.58L168.34,68.34L169.41,68.81L168.82,68.53"/><path d="M164.05,82.70L165.09,82.42"/><path d="M165.22,72.81L165.84,73.14L164.05,72.23L164.73,72.57"/><path d="M171.79,83.57L172.02,83.70L170.88,83.05L170.79,83.12L171.01,83.39L171.06,83.68L171.03,83.80L170.78,84.15L170.29,84.57L168.10,86.22L166.87,87.05L166.53,87.19L166.15,87.27L165.74,87.27L165.34,87.21L165.25,87.28L166.74,87.97L166.30,87.74"/><path d="M165.84,73.14L166.19,73.34L165.84,73.14"/><path d="M166.19,73.34L166.44,73.49L168.12,72.82L168.00,72.76L167.26,72.84L166.53,72.81L165.84,72.62"/><path d="M168.27,95.55L169.95,93.85L169.41,93.57L167.05,96.09L167.58,96.37L169.70,95.13L168.21,96.70L168.74,96.98L171.55,95.36L170.48,95.98"/><path d="M166.74,87.97L172.25,83.82L172.02,83.70"/><path d="M168.34,88.79L169.41,89.35L167.24,88.21L172.74,84.07L174.68,85.05L176.80,86.04L175.79,86.86L175.68,86.81L175.78,86.46L175.74,86.19L175.70,86.10L175.30,85.77L174.68,85.42L173.14,84.67L172.60,84.94L170.87,86.20L172.30,86.93L173.40,87.39L173.78,87.38L174.42,87.22L174.57,87.30L173.74,87.86L172.87,88.62L172.72,88.54L172.97,88.22L173.02,88.04L172.99,87.89L172.74,87.59L172.30,87.31L170.57,86.43L168.85,87.76L168.33,88.24L169.41,88.84L169.03,88.65"/><path d="M166.44,73.49L166.91,73.29"/><path d="M167.77,72.97L168.12,72.82"/><path d="M167.52,70.73L167.94,70.98"/><path d="M168.42,95.43L170.57,94.17L171.02,94.40L169.34,96.11L169.41,96.03L171.64,94.73L172.17,95.01L171.64,94.73"/><path d="M169.57,95.26L169.54,95.24"/><path d="M169.70,95.13L169.82,95.04"/><path d="M169.90,89.09L169.41,88.84L170.56,89.39L171.30,89.61L172.07,89.64L172.83,89.56L172.96,89.63L171.21,90.36L169.41,89.35"/><path d="M175.35,72.80L175.19,72.35L175.35,72.80L172.25,75.03L171.55,75.33L171.32,75.37L170.99,75.37L170.48,75.27L170.32,75.34L171.55,75.95L170.48,75.42"/><path d="M170.48,68.98L171.82,69.58L170.85,70.32L170.75,70.27L170.85,69.95L170.78,69.64L170.40,69.33L169.41,68.81"/><path d="M170.48,69.39L170.78,69.64"/><path d="M169.88,69.04L170.40,69.33"/><path d="M171.02,94.40L170.79,94.29L170.85,94.30"/><path d="M170.57,94.17L170.79,94.29"/><path d="M172.07,87.19L170.95,86.62"/><path d="M170.88,83.05L170.79,83.12"/><path d="M171.55,95.36L172.17,95.01"/><path d="M171.69,90.13L172.20,89.93"/><path d="M172.23,86.90L172.01,86.79"/><path d="M172.60,84.94L173.14,84.67"/><path d="M172.14,76.24L171.55,75.95L172.80,76.57L172.89,76.50L172.54,76.10L172.48,75.83L172.51,75.71L172.78,75.35L173.17,75.00L175.53,73.27L177.52,78.91L177.65,78.97L178.05,78.66L177.17,76.07L177.53,77.14"/><path d="M173.70,84.55L174.68,85.05"/><path d="M174.49,100.02L173.95,99.73L176.83,97.44L177.32,97.70L176.41,99.56L176.58,99.36L178.15,98.13L178.69,98.41L175.80,100.71L175.31,100.46L176.25,98.57L176.10,98.74L174.49,100.02"/><path d="M175.95,91.53L176.01,91.83L175.95,91.53L176.03,91.08L176.39,90.62L176.24,90.54L175.83,90.81L174.65,91.82L174.65,91.89L175.98,92.82L176.52,93.15L176.91,93.32L176.52,93.15L175.98,92.82"/><path d="M174.77,91.96L175.50,92.47"/><path d="M173.87,84.64L174.45,84.92"/><path d="M174.77,85.47L175.30,85.77"/><path d="M175.73,71.87L175.84,72.20L175.60,71.48L174.49,70.93L174.36,71.00L174.87,71.66L175.19,72.35"/><path d="M175.84,85.61L176.80,86.04"/><path d="M176.27,98.54L176.25,98.57"/><path d="M177.09,93.40L176.91,93.32L177.78,93.58L178.10,93.59"/><path d="M177.01,92.89L177.61,93.12L177.01,92.89L176.35,92.40L176.01,91.83"/><path d="M176.68,86.12L176.76,86.05"/><path d="M176.90,77.14L176.52,76.07"/><path d="M177.17,76.07L175.84,72.20"/><path d="M177.78,76.07L177.99,76.67L176.31,71.83L177.05,72.19L178.87,77.43L180.88,75.91L181.56,75.29L181.66,75.06L181.62,74.80L181.43,74.53L181.12,74.29L181.20,74.21L183.35,75.25L182.27,74.73"/><path d="M177.61,93.12L178.30,93.20L178.82,93.12L179.34,92.88L179.57,92.61L179.63,92.41L179.58,92.21L179.17,91.63L177.77,90.18L177.58,89.84L177.55,89.48L177.66,89.12L177.95,88.82L178.46,88.55L179.06,88.42L178.67,88.63L178.36,88.95L178.21,89.31L178.22,89.66L178.37,90.00L179.85,91.54L179.39,91.07"/><path d="M177.77,90.18L177.99,90.43"/><path d="M177.99,76.67L178.55,78.29L181.47,76.07L182.27,75.60L182.53,75.51L183.01,75.46L183.42,75.49L183.81,75.59L183.90,75.52L183.35,75.25L183.90,75.52"/><path d="M177.99,93.59L178.49,93.60L179.06,93.51L178.77,93.58"/><path d="M179.06,93.51L179.41,93.42L179.94,93.13L180.18,92.89L180.32,92.58L180.28,92.20L179.85,91.54"/><path d="M178.22,89.66L178.37,90.00"/><path d="M179.97,90.94L180.10,91.07L179.34,90.30L178.84,89.63L178.80,89.37L178.84,89.63"/><path d="M178.80,89.37L178.91,89.09L179.17,88.84L179.62,88.58L180.10,88.48L180.66,88.47L180.10,88.48"/><path d="M179.06,88.42L179.09,88.40"/><path d="M178.39,76.07L178.02,75.00"/><path d="M178.06,75.10L178.14,75.32"/><path d="M180.10,91.07L180.43,91.41L180.81,91.90L180.94,92.27L180.95,92.64L180.79,92.99L180.47,93.32L180.08,93.57L179.57,93.75L180.11,93.73L180.66,93.59L181.19,93.28L181.52,92.93L181.67,92.53L181.64,92.14L181.46,91.75L181.02,91.23L180.00,90.20L179.59,89.63L179.54,89.45L179.58,89.27L179.76,89.07L180.13,88.91L179.95,88.96"/><path d="M180.13,90.34L180.51,90.73"/><path d="M180.13,88.91L180.71,88.88L181.20,88.98L180.71,88.88"/><path d="M180.66,88.47L181.75,88.71L182.70,89.11L182.27,88.93"/><path d="M182.12,89.31L182.03,89.27L182.27,89.42L182.12,89.31"/><path d="M182.03,89.27L181.41,89.02L181.20,88.98"/><path d="M182.27,89.42L182.71,89.70L183.23,90.30L183.30,90.60L183.22,90.88L182.93,91.21L183.07,91.29L184.38,90.20L183.58,89.62L182.70,89.11"/><path d="M183.93,81.73L184.42,81.91L183.93,81.73L183.29,81.26L182.94,80.71L182.88,80.45L182.95,80.03L183.29,79.60L183.14,79.53L182.52,79.97L181.62,80.73L181.63,80.79L183.47,81.97L184.02,82.21L184.42,82.31L184.02,82.21L183.47,81.97"/><path d="M182.27,75.60L182.62,75.50"/><path d="M182.94,81.66L182.60,81.43"/><path d="M185.02,79.62L185.49,80.06L184.62,79.19L184.43,78.86L184.39,78.53L184.49,78.21L184.76,77.91L185.26,77.65L185.87,77.52L185.46,77.73L185.16,78.03L185.03,78.36L185.05,78.68L185.20,79.00L185.59,79.44L186.56,80.37L186.05,79.88"/><path d="M183.81,75.59L183.42,75.49"/><path d="M184.42,81.91L185.10,82.02L185.69,81.94L186.19,81.71L186.41,81.46L186.46,81.28L186.41,81.09L186.00,80.55L185.49,80.06"/><path d="M186.56,80.37L187.09,81.08L187.13,81.43L187.01,81.72L186.77,81.95L186.27,82.23L185.62,82.38L184.69,82.37L184.42,82.31"/><path d="M186.56,82.53L186.95,82.51L186.43,82.53L186.91,82.37L187.30,82.13L187.60,81.82L187.74,81.49L187.72,81.13L187.59,80.80L187.22,80.32L186.13,79.30L185.64,78.67L185.60,78.43L185.70,78.16L185.95,77.92L186.38,77.69L186.84,77.57L187.41,77.56L188.45,77.80L189.45,78.21L190.85,79.09L190.24,78.67"/><path d="M186.56,79.71L187.23,80.36"/><path d="M188.12,78.09L188.72,78.33L188.12,78.09L187.44,77.97L186.93,77.98L186.52,78.14L186.35,78.33L186.32,78.50L186.37,78.67L186.77,79.21L187.28,79.70L186.86,79.29"/><path d="M186.95,82.51L187.48,82.38L186.95,82.51"/><path d="M187.48,82.38L187.99,82.09L188.30,81.77L188.44,81.39L188.40,81.03L188.22,80.68L188.40,81.03"/><path d="M187.28,79.70L187.78,80.17L188.22,80.68"/><path d="M188.71,77.91L189.37,78.18"/><path d="M190.85,79.09L191.02,79.21L189.77,80.22L189.63,80.15L189.91,79.84L189.98,79.58L189.90,79.29L189.98,79.58"/><path d="M188.72,78.33L189.39,78.73L189.90,79.29"/><path d="M267.60,95.79L265.28,94.72"/></g><g style="stroke:#000000;stroke-width:0.529"><path d="M8.58,82.76L8.05,80.75L8.03,80.49L8.09,80.22L8.22,79.96L8.41,79.73L8.65,79.56L135.98,9.88L136.12,9.90L274.43,68.20L274.50,68.42L268.12,94.99L267.94,95.46L267.54,96.06L156.72,205.71L156.30,205.99L156.15,206.00L156.00,205.90L156.00,206.15L155.70,206.44L15.15,107.94L8.58,82.76"/></g></g><g/><g id="paperID" visibility="hidden" opacity="0.00" transform="scale(0.000100)"><path style="stroke:#000000;stroke-width:0.500;fill:#e6e6e6;fill-rule:evenodd" d="M-2000.00,-2000.00L2297.00,-2000.00L2297.00,2210.00L-2000.00,2210.00zM0.00,0.00L297.00,0.00L297.00,210.00L0.00,210.00z"/><path style="fill:#000000;fill-opacity:0.118" d="M3.00,210.00L297.00,210.00L297.00,3.00L300.00,3.00L300.00,213.00L3.00,213.00z"/></g><g id="ToolTip" visibility="hidden" opacity="0" transform="translate(0,0)"><rect id="ToolTipShadow" opacity="0.20" fill="black" stroke="none" x="0" y="0" width="30" height="8"/><rect id="ToolTipBG" fill="#ffffe1" stroke="black" x="0" y="0" width="30" height="8"/><text xml:space="preserve" id="ToolTipText" fill="black" x="0" y="0" width="30" height="8">tooltip</text></g></g></svg>
