<svg width="472" height="471" viewBox="0 0 472 471" fill="none" xmlns="http://www.w3.org/2000/svg">
<path fill-rule="evenodd" clip-rule="evenodd" d="M253.039 1.663L253.644 0.0378034L254.362 0L254.854 2.38111L265.134 3.47717L289.172 7.71024L289.776 6.12285L291.213 6.08504L291.742 8.35275L305.31 12.1701L322.016 18.2551L324.435 18.1417L325.228 17.3858L326.022 17.4614L326.702 20.2205L337.436 24.8693L356.183 34.9984L357.203 34.9228L357.959 34.2047L359.546 34.2425L359.622 35.1118L358.866 35.9055L358.791 36.8882L370.205 44.3339L380.939 52.3465L385.663 56.3906L387.326 56.315L388.157 55.5591L388.989 55.6347L388.951 58.9606L393.638 63.0425L407.698 77.1024L412.46 82.5071L413.443 82.4315L414.236 81.6756L415.106 81.7512L415.068 85.7575L423.194 95.7732L434.306 112.139L437.216 111.874L437.329 112.781L435.666 113.877L440.58 123.213L451.238 144.718L453.921 144.68L454.072 145.55L452.334 146.759L455.206 155.414L463.068 179.717L465.373 180.246L465.335 180.964L463.635 182.135L465.94 194.91L468.548 214.375L469.115 215.811L470.702 216.34L471.383 217.285L469.077 218.343V252.661L470.702 253.153L471.383 254.098L469.115 255.194L468.548 256.63L466.621 272.769L463.937 286.148V289.247L465.335 290.079L465.373 290.759L463.068 291.326L459.931 301.531L452.334 324.246L454.072 325.455L453.921 326.324L451.54 326.098L446.551 336.34L435.591 356.863L437.329 358.224L437.216 359.131L434.306 358.866L425.802 371.83L415.068 385.247L415.106 389.291L413.783 388.989L412.8 388.309L400.403 401.348L388.951 412.044L388.989 415.37L387.704 415.106L386.948 414.387L386.079 414.35L375.647 422.74L358.564 434.457L359.622 435.931L359.546 436.8L357.543 436.46L356.901 435.893L344.504 442.507L326.702 450.784L326.022 453.543L324.813 453.279L324.019 452.523L322.507 452.561L311.773 456.643L291.742 462.69L291.213 464.957L289.776 464.92L289.172 463.294L274.961 466.016L254.854 468.661L254.362 471.005L253.644 470.967L253.039 469.342H218.117L217.512 470.967L216.794 471.005L216.302 468.661L196.195 466.016L181.984 463.294L181.38 464.92L179.943 464.957L179.414 462.69L159.383 456.643L148.649 452.561L147.137 452.523L146.343 453.279L145.134 453.543L144.718 451.2L126.652 442.507L114.595 435.855L113.613 436.46L111.609 436.8L111.874 435.477L112.592 434.457L95.8488 423.118L85.0772 414.35L84.2079 414.387L83.452 415.106L82.167 415.37L82.4693 412.422L72.4158 403.011L63.7228 394.318L60.3591 390.312L58.3559 388.309L57.3732 388.989L56.0504 389.291L56.3905 385.663L44.9008 370.961L36.8504 358.866L33.9402 359.131L34.2047 357.846L35.5654 356.863L24.8315 336.794L19.6158 326.098L17.2347 326.324L17.4236 325.039L18.8221 324.246L11.4142 302.06L8.08819 291.326L5.78267 290.759L5.82048 290.079L7.52128 288.869L4.76221 273.222L2.75907 257.159L2.04095 255.194L0 254.438V253.38L2.07875 252.661V218.343L0 217.625V216.567L2.04095 215.811L2.75907 213.883L5.21577 194.91L7.52128 182.135L5.82048 180.964L5.78267 180.246L8.08819 179.717L15.2693 157.417L18.8221 146.759L17.4236 145.965L17.2347 144.68L19.9181 144.718L30.841 122.835L35.4898 113.877L34.2047 113.197L33.9402 111.874L36.8504 112.139L48.3402 95.4709L56.3905 85.3417L56.0504 81.7512L56.9197 81.6756L57.7134 82.4315L58.6961 82.5071L63.4583 77.1024L77.5181 63.0425L82.4693 58.5827L82.167 55.6347L82.9984 55.5591L83.8299 56.315L85.4929 56.3906L90.2173 52.3465L100.951 44.3339L112.592 36.5858L111.874 35.5276L111.609 34.2425L113.197 34.2047L113.953 34.9228L114.973 34.9984L133.72 24.8693L144.718 19.8047L145.134 17.4614L145.928 17.3858L146.721 18.1417L149.14 18.2551L165.846 12.1701L179.414 8.35275L179.943 6.08504L181.38 6.12285L181.984 7.71024L200.655 4.15749L216.302 2.38111L216.794 0L217.512 0.0378034L218.117 1.663H253.039Z" fill="#FFE9A9"/>
<path fill-rule="evenodd" clip-rule="evenodd" d="M250.394 30.2362V36.4724L247.521 72L249.071 72.0378L252.851 30.1984L261.808 30.9165L281.235 34.2047L282.595 34.9606V36.4346L273.827 72.6047L273.676 76.0818L274.432 76.0441L275.83 71.9244L284.523 35.7543L286.526 35.5275L293.934 37.6063L313.361 44.3338L313.436 45.1275L297.865 82.696L297.714 84.0566H299.225L315.137 45.6188L315.969 45.5433L328.063 50.9858L342.199 58.9984V59.9055L321.298 94.0346L321.147 96.1133H321.94L343.975 60.3212L344.731 60.2456L354.822 67.0866L367.673 77.0267L368.315 78.6519L342.085 109.531L341.858 110.816H343.37L370.016 79.6724H370.885L384.945 93.1653L391.673 100.8L359.925 128.05V129.524L361.247 129.335L390.992 104.088L393.033 102.501L401.084 112.517L410.457 125.972L410.23 127.257L375.307 148.762V150.274L376.706 150.161L411.818 128.617L417.751 138.671L425.726 155.679L386.646 172.233V172.989L389.443 172.838L426.482 157.455L431.131 170.154L435.855 186.368L394.923 196.46L394.734 197.783L399.647 197.102L436.573 188.258L438.501 198.236L441.033 218.343L398.929 221.934L398.74 223.219L412.384 222.576L441.184 220.309L441.865 231.042L441.184 250.734L404.372 247.786H398.74L398.929 249.109L440.618 252.435L441.222 253.002L439.824 264.718L436.573 282.784L397.002 273.222H394.734L394.923 274.545L435.855 284.636L431.811 299.565L426.482 313.55L388.989 297.94L386.646 298.016V298.772L425.726 315.364L422.438 322.961L412.158 342.198L411.062 342.274L376.214 320.617L375.307 320.731V322.242L409.852 343.408L410.457 345.033L403.692 355.087L393.373 368.315H392.391L360.832 341.367L359.925 341.48V342.992L391.673 370.205L383.32 379.578L371.301 391.068H369.6L343.37 360.189H341.858L342.085 361.474L368.315 392.353V393.26L358.224 401.348L345.147 410.457L343.975 410.683L321.94 374.891H321.147L321.298 377.008L341.443 409.776L342.199 412.044L330.142 418.772L320.693 423.383L315.137 425.424L299.225 386.948H297.714L297.865 388.346L311.32 420.472L313.361 426.671L301.947 430.715L287.055 435.25H284.523L275.225 396.359L274.432 394.961H273.676L273.827 398.4L279.836 423.836L282.595 436.044L281.764 436.649L267.137 439.446L252.851 440.806L249.071 398.967L247.521 399.005L249.751 425.839L250.394 440.768L249.6 441.298H221.556L220.762 440.768L221.405 425.839L223.635 399.005L222.085 398.967L218.306 440.806L208.895 439.899L196.195 437.896L189.392 436.649L188.561 436.044L191.32 423.836L197.518 397.946L197.48 394.961H196.725L196.12 395.83L186.633 435.25H184.101L170.079 431.206L157.795 426.671L160.025 420.019L173.556 387.855L173.443 386.948H171.931L156.019 425.424L151.37 423.836L136.592 416.466L129.222 412.422L129.184 410.646L150.085 376.517L150.01 374.891H149.216L127.181 410.683L126.01 410.457L113.235 401.688L103.143 393.638V391.975L129.373 361.058L129.298 360.189H127.786L101.556 391.068H99.8553L87.8364 379.578L79.4836 370.205L111.232 342.992V341.48L110.325 341.367L78.7655 368.315H77.7829L67.7671 355.465L60.964 345.449L60.9262 343.748L95.849 322.242V320.731L94.9419 320.617L60.0947 342.274L58.9986 342.198L48.9073 323.452L45.4301 315.364L84.5104 298.772V298.016L82.1671 297.94L44.9765 313.625L43.5403 310.715L38.1734 295.37L35.301 284.636L76.2332 274.545L76.4222 273.222H74.1545L34.8474 282.822L31.5214 265.172L30.123 252.699L72.2269 249.109L72.4159 247.786H66.7844L29.9718 250.734L29.2915 231.042L29.9718 220.309L66.3309 223.03L72.4159 223.219L72.5293 222.35L71.7734 221.594L30.123 218.343L32.6553 198.236L34.8474 188.183L73.6632 197.594L76.4222 197.783L76.5734 196.913L75.7797 196.195L35.301 186.368L40.0254 170.154L44.6742 157.455L81.7136 172.838L84.5104 172.989V172.233L65.6506 164.107L46.186 156.094L45.3545 155.376L56.7687 132.661L59.3388 128.617L94.4506 150.161L95.849 150.274V148.762L60.9262 127.257L60.964 125.594L70.0726 112.517L78.123 102.501L81.0711 104.542L109.909 129.335L111.232 129.524V128.05L79.7104 101.14V100.12L91.1624 88.1007L99.175 80.6929L100.271 79.6724H101.14L127.786 110.816H129.298L129.373 109.946L103.143 79.0299V77.3669L116.334 67.0866L126.425 60.2456L127.181 60.3212L149.216 96.1133H150.01L150.085 94.5259L129.184 60.359L129.222 58.6204L143.093 50.9858L155.188 45.5433L156.019 45.6188L171.931 84.0566H173.443L173.556 83.1496L157.947 45.6188L157.795 44.3338L177.222 37.6063L186.218 35.4519L186.898 36.2078L195.515 72.4157L196.725 76.0441L197.48 76.0818L197.518 73.0582L188.788 36.9259L188.561 34.9606L189.921 34.2047L209.348 30.9165L218.306 30.1984L222.085 72.0378L223.635 72L220.951 36.9259L220.762 30.2362L222.047 29.5181H249.109L250.394 30.2362Z" fill="#545454"/>
<path fill-rule="evenodd" clip-rule="evenodd" d="M252.435 4.11969V11.0362L251.112 27.8173H220.044L218.948 11.4898L218.721 4.11969L241.02 3.47717L252.435 4.11969Z" fill="#545454"/>
<path fill-rule="evenodd" clip-rule="evenodd" d="M266.457 5.4803L288.643 9.4866L288.605 10.9984L283.162 32.4661L276.51 31.5968L260.447 28.9134L254.362 28.3087L252.851 27.7417L254.778 4.15747L266.457 5.4803Z" fill="#545454"/>
<path fill-rule="evenodd" clip-rule="evenodd" d="M218.306 27.7417L216.794 28.3087L210.709 28.9134L197.518 31.1055L187.994 32.4661L182.778 11.4897L182.514 9.4866L199.333 6.16062L216.378 4.15747L218.306 27.7417Z" fill="#545454"/>
<path fill-rule="evenodd" clip-rule="evenodd" d="M307.994 14.8158L323.301 20.8253L314.608 42.5197L312.643 42.3308L297.94 36.926L285.846 33.6379L285.883 29.7449L290.57 10.3182L291.25 10.167L307.994 14.8158Z" fill="#545454"/>
<path fill-rule="evenodd" clip-rule="evenodd" d="M180.812 10.7339L185.461 30.2362L185.31 33.6378L173.216 36.926L158.513 42.3307L156.548 42.5197L147.855 20.8252L163.162 14.8158L180.283 10.1292L180.812 10.7339Z" fill="#545454"/>
<path fill-rule="evenodd" clip-rule="evenodd" d="M337.436 26.9102L355.616 36.8882L355.578 37.7952L343.861 57.033L342.803 57.1086L328.063 48.9826L316.422 43.8047L316.611 41.8015L325.115 21.5811L337.436 26.9102Z" fill="#545454"/>
<path fill-rule="evenodd" clip-rule="evenodd" d="M154.772 42.2929L154.734 43.8047L143.093 48.9826L128.353 57.1086L127.294 57.033L115.805 38.2488L115.842 36.5102L133.72 26.9102L146.041 21.5811L154.772 42.2929Z" fill="#545454"/>
<path fill-rule="evenodd" clip-rule="evenodd" d="M366.198 43.6535L385.663 58.2803L370.242 76.611L354.822 65.0834L345.449 58.9984L345.373 57.9023L357.543 38.4378L358.223 38.2488L366.198 43.6535Z" fill="#545454"/>
<path fill-rule="evenodd" clip-rule="evenodd" d="M113.953 38.7779L125.934 58.696L114.331 66.4062L101.216 76.6866L85.4932 58.2803L104.958 43.6535L113.273 38.2488L113.953 38.7779Z" fill="#545454"/>
<path fill-rule="evenodd" clip-rule="evenodd" d="M390.992 63.0426L405.77 77.7071L411.099 84.0567L394.054 99.2126H393.033L385.021 91.0866L381.695 87.0426L376.97 83.0741L372.208 78.3874V76.6867L387.024 59.641L390.992 63.0426Z" fill="#545454"/>
<path fill-rule="evenodd" clip-rule="evenodd" d="M98.5703 76.3465L99.2128 77.9717L96.1892 81.0331L90.2175 86.4756L78.123 99.2126H77.1026L60.2837 84.3969V83.3764L72.416 70.6772L80.164 63.0425L84.3971 59.7166L98.5703 76.3465Z" fill="#545454"/>
<path fill-rule="evenodd" clip-rule="evenodd" d="M72.3779 97.1717L76.422 101.14L69.0897 110.854L58.9228 125.518L57.6756 125.367L38.8535 113.877L38.8913 112.176L49.3228 97.1339L58.1669 85.7575L58.9606 85.6819L72.3779 97.1717Z" fill="#545454"/>
<path fill-rule="evenodd" clip-rule="evenodd" d="M421.833 97.1339L431.924 111.836L432.605 113.461L414.425 124.838L412.233 125.518L402.444 111.156L394.734 101.14L399.685 96.7181L412.195 85.6819L412.989 85.7575L421.833 97.1339Z" fill="#545454"/>
<path fill-rule="evenodd" clip-rule="evenodd" d="M441.94 129.222L449.31 144.718L449.008 146.003L427.842 154.998L415.748 131.301L414.35 129.335L414.387 126.879L433.928 115.238L441.94 129.222Z" fill="#545454"/>
<path fill-rule="evenodd" clip-rule="evenodd" d="M57.0707 127.257L57.0329 128.844L52.951 136.214L43.6156 154.923L22.1478 146.003L22.0723 144.265L29.5179 128.844L37.2282 115.238L57.0707 127.257Z" fill="#545454"/>
<path fill-rule="evenodd" clip-rule="evenodd" d="M42.8599 156.699L39.5339 165.657L33.5245 185.802L12.0567 180.888L10.5449 180.359L10.7339 177.676L15.9118 160.781L20.6363 148.006L22.1481 147.969L42.8599 156.699Z" fill="#545454"/>
<path fill-rule="evenodd" clip-rule="evenodd" d="M455.244 160.781L460.611 178.167V180.359L459.099 180.888L437.631 185.802L431.811 166.11L428.296 156.699L449.008 147.969L450.519 148.006L455.244 160.781Z" fill="#545454"/>
<path fill-rule="evenodd" clip-rule="evenodd" d="M29.518 186.898L32.9196 188.069L30.8409 199.143L28.233 217.89L4.49756 216.567L5.89599 201.6L9.86448 182.249L29.518 186.898Z" fill="#545454"/>
<path fill-rule="evenodd" clip-rule="evenodd" d="M465.26 201.6L466.658 216.567L442.923 217.89L440.504 199.597L438.425 187.767L461.291 182.249L465.26 201.6Z" fill="#545454"/>
<path fill-rule="evenodd" clip-rule="evenodd" d="M27.5529 220.309V250.696L24.6049 251.112L4.53558 252.699L4.08203 250.469V220.535L4.53558 218.306H6.76549L27.5529 220.309Z" fill="#545454"/>
<path fill-rule="evenodd" clip-rule="evenodd" d="M467.263 221.027V250.016L466.62 252.699L446.551 251.112L443.603 250.696V220.309L455.698 218.986L466.62 218.306L467.263 221.027Z" fill="#545454"/>
<path fill-rule="evenodd" clip-rule="evenodd" d="M466.016 254.4L466.696 255.08L465.26 269.405L461.291 288.756L438.425 283.276L441.865 262.715L442.923 253.115L466.016 254.4Z" fill="#545454"/>
<path fill-rule="evenodd" clip-rule="evenodd" d="M29.5182 263.169L32.7308 283.276L10.0914 288.832L8.76862 283.918L6.08516 269.858L4.45996 255.08L5.14028 254.4L28.2332 253.115L29.5182 263.169Z" fill="#545454"/>
<path fill-rule="evenodd" clip-rule="evenodd" d="M460.611 290.646V292.838L456.567 306.898L450.52 322.998L448.517 322.809L429.014 314.759L428.258 314.041L434.495 296.844L437.632 285.203H439.106L460.611 290.646Z" fill="#545454"/>
<path fill-rule="evenodd" clip-rule="evenodd" d="M35.4898 292.687L42.8599 314.306L22.6394 322.809L20.6363 322.998L14.7402 307.389L10.7339 293.367L10.5449 290.646L32.0504 285.203H33.5245L35.4898 292.687Z" fill="#545454"/>
<path fill-rule="evenodd" clip-rule="evenodd" d="M442.507 322.091L449.31 325.38V326.287L442.961 339.477L434.23 355.578L433.134 355.654L414.387 344.164L414.35 341.669L423.572 324.775L427.842 316.044L442.507 322.091Z" fill="#545454"/>
<path fill-rule="evenodd" clip-rule="evenodd" d="M47.5841 324.775L57.0329 342.161L57.0707 343.748L38.0219 355.654L36.9258 355.578L28.1951 339.477L22.0723 326.778L22.1478 325.002L43.6156 316.082L47.5841 324.775Z" fill="#545454"/>
<path fill-rule="evenodd" clip-rule="evenodd" d="M432.605 357.543L432.567 358.413L424.932 369.638L412.989 385.247L411.817 385.058L394.96 370.205L394.998 369.222L406.337 354.406L412.233 345.487L413.027 345.411L432.605 357.543Z" fill="#545454"/>
<path fill-rule="evenodd" clip-rule="evenodd" d="M65.0834 354.784L76.3842 369.562L72.3779 373.833L59.3764 385.058L58.1669 385.247L46.2236 369.638L38.8913 358.828L38.8535 357.165L58.1291 345.411L58.9228 345.487L65.0834 354.784Z" fill="#545454"/>
<path fill-rule="evenodd" clip-rule="evenodd" d="M407.055 382.98L411.099 386.948L408.378 390.577L398.06 401.008L387.024 411.364L372.208 394.318V392.617L384.265 381.203L389.707 375.232L393.714 371.603L407.055 382.98Z" fill="#545454"/>
<path fill-rule="evenodd" clip-rule="evenodd" d="M83.7921 377.575L87.1559 381.619L98.57 392.277L99.2126 393.902L84.3968 411.288L77.1023 405.014L63.0425 390.954L60.0566 386.948L65.0078 382.526L77.7826 371.603L83.7921 377.575Z" fill="#545454"/>
<path fill-rule="evenodd" clip-rule="evenodd" d="M111.232 402.369L125.934 412.346L113.613 432.567L112.592 432.529L97.2095 421.758L85.7197 413.065V412.044L89.5371 407.773L101.216 394.318L111.232 402.369Z" fill="#545454"/>
<path fill-rule="evenodd" clip-rule="evenodd" d="M385.663 412.762L373.947 421.758L358.564 432.529L357.543 432.567L345.222 412.347L360.227 401.991L370.243 394.394L385.663 412.762Z" fill="#545454"/>
<path fill-rule="evenodd" clip-rule="evenodd" d="M354.142 430.526L355.616 434.117L344.504 440.504L325.417 449.499L323.376 445.266L316.611 429.203L316.422 427.2L331.464 420.095L343.559 413.745L354.142 430.526Z" fill="#545454"/>
<path fill-rule="evenodd" clip-rule="evenodd" d="M140.031 420.397L154.734 427.2L154.772 428.712L146.041 449.424L139.313 446.589L123.213 438.576L115.842 434.494L115.805 432.756L127.597 413.745L140.031 420.397Z" fill="#545454"/>
<path fill-rule="evenodd" clip-rule="evenodd" d="M166.715 431.887L184.894 437.14L185.575 437.783L185.461 440.768L180.586 460.687L172.044 458.683L159.345 454.639L148.573 450.595L147.779 449.915L156.548 428.485L158.022 428.409L166.715 431.887Z" fill="#545454"/>
<path fill-rule="evenodd" clip-rule="evenodd" d="M323.301 450.217L309.317 455.471L300.586 458.117L290.57 460.687L285.883 441.26L285.846 437.405L304.441 431.887L313.134 428.409L314.608 428.485L323.301 450.217Z" fill="#545454"/>
<path fill-rule="evenodd" clip-rule="evenodd" d="M200.882 440.579L216.265 442.545L218.306 443.301L216.378 466.847L198.879 464.655L182.514 461.518L187.427 440.05L187.994 438.539H190.148L200.882 440.579Z" fill="#545454"/>
<path fill-rule="evenodd" clip-rule="evenodd" d="M283.427 438.992L288.643 461.518L275.641 463.975L255.08 466.923L254.438 462.652L252.851 443.301L254.892 442.545L270.274 440.579L281.008 438.539H283.162L283.427 438.992Z" fill="#545454"/>
<path fill-rule="evenodd" clip-rule="evenodd" d="M251.112 443.225L251.754 451.276L252.435 466.923L241.512 467.339H229.644L218.721 466.923L219.402 451.276L220.044 443.225H251.112Z" fill="#545454"/>
<path fill-rule="evenodd" clip-rule="evenodd" d="M261.317 120.265L260.145 120.416L259.767 119.735L260.145 118.375L261.317 120.265Z" fill="#6C5847"/>
<path fill-rule="evenodd" clip-rule="evenodd" d="M239.093 8.76848L242.419 12.8126L242.23 18.2551L236.069 24.9071H235.086L228.926 18.2551V12.3212L235.427 5.4425L239.093 8.76848Z" fill="#FFE9A9"/>
<path fill-rule="evenodd" clip-rule="evenodd" d="M200.882 8.80629L207.005 14.0598L208.29 16.8567V19.0866L207.572 21.0898L203.301 27.5905H201.6L195.553 22.8283L194.117 19.5402L194.154 17.0835L195.213 14.0598L199.597 8.12598L200.882 8.80629Z" fill="#FFE9A9"/>
<path fill-rule="evenodd" clip-rule="evenodd" d="M276.51 14.8535L277.228 19.0488L275.868 22.4504L269.556 27.5905H267.855L263.773 21.5811L263.093 19.5779V16.3653L264.491 13.7574L270.274 8.80626L271.861 8.20154L276.51 14.8535Z" fill="#FFE9A9"/>
<path fill-rule="evenodd" clip-rule="evenodd" d="M310.677 24.8693V27.8173L308.75 31.2189L300.662 35.8299L296.542 27.5905V24.3779L297.978 21.8079L301.72 18.8598L305.764 16.7811L306.671 16.7433L310.677 24.8693Z" fill="#FFE9A9"/>
<path fill-rule="evenodd" clip-rule="evenodd" d="M170.759 19.5023L173.518 22.1102L174.803 24.9071V27.0992L170.797 35.7543L162.784 31.5212L160.705 28.2708L160.667 24.3779L164.485 16.7433L165.392 16.7811L170.759 19.5023Z" fill="#FFE9A9"/>
<path fill-rule="evenodd" clip-rule="evenodd" d="M135.269 31.5969L140.749 34.167L142.677 37.5686L142.639 41.1969L140.409 47.6599L137.915 47.6977L131.981 45.619L129.222 42.3308L128.353 38.967L131.263 30.1985L135.269 31.5969Z" fill="#FFE9A9"/>
<path fill-rule="evenodd" clip-rule="evenodd" d="M342.803 38.967L342.123 41.8394L339.553 45.2788L333.241 47.6977L330.746 47.6599L328.706 41.6505V37.115L330.784 33.8268L339.893 30.1985L342.803 38.967Z" fill="#FFE9A9"/>
<path fill-rule="evenodd" clip-rule="evenodd" d="M107.867 50.2677L111.307 52.233L113.234 55.6346L112.592 63.9874L111.836 65.2724L104.466 64.4031L101.858 63.0047L99.8171 61.0015L99.7793 51.8551L100.233 49.663L107.867 50.2677Z" fill="#FFE9A9"/>
<path fill-rule="evenodd" clip-rule="evenodd" d="M371.565 52.3464L371.603 60.6236L369.298 63.0047L366.69 64.4031L359.32 65.2724L358.753 64.4787L358.186 60.359L358.148 55.1811L360.227 51.9307L363.288 50.2677L370.923 49.663L371.565 52.3464Z" fill="#FFE9A9"/>
<path fill-rule="evenodd" clip-rule="evenodd" d="M85.153 74.9858L87.1184 79.1055V86.7023L76.9892 86.5133L74.4191 84.3968L72.9829 81.8267L72.7939 73.0582H82.4318L85.153 74.9858Z" fill="#FFE9A9"/>
<path fill-rule="evenodd" clip-rule="evenodd" d="M398.362 81.3732L397.001 84.0189L394.167 86.5133L384.038 86.7023L384.227 78.6141L386.305 74.6834L388.724 73.0582H398.362V81.3732Z" fill="#FFE9A9"/>
<path fill-rule="evenodd" clip-rule="evenodd" d="M421.19 99.7795L421.871 100.46L421.115 106.091L419.754 110.135L416.919 112.63L409.058 112.554L405.43 112.101L406.979 103.37L410.154 99.8551L411.477 99.137L421.19 99.7795Z" fill="#FFE9A9"/>
<path fill-rule="evenodd" clip-rule="evenodd" d="M61.7196 100.46L64.3653 103.824L65.7259 112.101L62.0976 112.554L54.2361 112.63L51.666 110.513L50.2676 106.583L49.5117 100.082L54.7275 99.1747L59.6787 99.137L61.7196 100.46Z" fill="#FFE9A9"/>
<path fill-rule="evenodd" clip-rule="evenodd" d="M435.818 129.335L440.618 131.263L437.859 139.578L434.986 142.072H428.41L422.892 140.183L425.84 131.565L429.544 128.617H433.852L435.818 129.335Z" fill="#FFE9A9"/>
<path fill-rule="evenodd" clip-rule="evenodd" d="M42.9354 129.298L45.6189 131.981L48.2646 140.183L42.7465 142.072H36.1701L33.6 139.956L30.5386 131.263L35.3386 129.335L37.3039 128.617H41.6126L42.9354 129.298Z" fill="#FFE9A9"/>
<path fill-rule="evenodd" clip-rule="evenodd" d="M453.997 164.069L453.959 165.657L451.238 171.024L447.723 174.198H442.469L435.779 170.759L435.742 169.701L439.861 162.368L442.28 160.743H447.231L453.997 164.069Z" fill="#FFE9A9"/>
<path fill-rule="evenodd" clip-rule="evenodd" d="M31.6349 162.671L35.5656 170.117L35.3766 170.759L28.6868 174.198H23.4333L20.2207 171.439L17.4238 166.148L17.4616 163.691L23.9246 160.743H28.8758L31.6349 162.671Z" fill="#FFE9A9"/>
<path fill-rule="evenodd" clip-rule="evenodd" d="M456.567 194.91L462.614 199.521L460.573 203.15L455.735 207.685H449.839L443.868 203.565V201.184L448.327 195.553L450.973 194.192H455.282L456.567 194.91Z" fill="#FFE9A9"/>
<path fill-rule="evenodd" clip-rule="evenodd" d="M22.8281 195.553L27.5903 201.6L27.6281 203.187L21.3163 207.685H15.4202L10.847 203.565L8.5415 199.521L14.5887 194.91L15.8738 194.192H20.1825L22.8281 195.553Z" fill="#FFE9A9"/>
<path fill-rule="evenodd" clip-rule="evenodd" d="M459.931 229.682L464.731 234.293L465.373 235.956L461.329 240.038L457.738 242.457H453.845L451.275 241.058L446.513 236.334V234.671L452.334 229.039L454.337 228.359L457.285 228.321L459.931 229.682Z" fill="#FFE9A9"/>
<path fill-rule="evenodd" clip-rule="evenodd" d="M18.822 229.039L24.2645 234.293L24.9448 235.956L19.8802 241.058L17.3102 242.457H13.4173L10.1669 240.378L6.08496 236.334V234.671L12.0944 229.266L13.8708 228.321L16.8188 228.359L18.822 229.039Z" fill="#FFE9A9"/>
<path fill-rule="evenodd" clip-rule="evenodd" d="M459.326 266.457L462.614 271.143L462.085 272.164L455.735 276.586H450.52L447.231 274.507L443.868 269.82V267.439L450.293 263.131H455.282L459.326 266.457Z" fill="#FFE9A9"/>
<path fill-rule="evenodd" clip-rule="evenodd" d="M27.6281 267.817L27.5903 269.405L23.9242 274.507L20.636 276.586H15.4202L9.44858 272.504L8.5415 271.143L12.1698 266.117L15.8738 263.131H20.8628L27.6281 267.817Z" fill="#FFE9A9"/>
<path fill-rule="evenodd" clip-rule="evenodd" d="M450.633 299.225L453.959 305.348L453.997 306.936L447.685 310.073H441.789L439.219 307.956L435.591 300.548L440.958 297.336L442.961 296.617H447.232L450.633 299.225Z" fill="#FFE9A9"/>
<path fill-rule="evenodd" clip-rule="evenodd" d="M30.1987 297.336L35.5656 300.548L32.2018 307.578L29.3671 310.073H23.4711L17.4616 307.351L17.4238 304.857L20.8632 298.923L23.9246 296.617H28.1955L30.1987 297.336Z" fill="#FFE9A9"/>
<path fill-rule="evenodd" clip-rule="evenodd" d="M437.859 331.427L440.58 338.835L440.353 340.12L434.306 342.199H429.09L425.84 339.439L422.892 330.822L428.901 328.743H434.533L437.859 331.427Z" fill="#FFE9A9"/>
<path fill-rule="evenodd" clip-rule="evenodd" d="M48.2647 330.822L45.619 339.062L42.0662 342.199H36.8505L30.8032 340.12V338.343L33.6001 331.049L36.6237 328.743H42.2552L48.2647 330.822Z" fill="#FFE9A9"/>
<path fill-rule="evenodd" clip-rule="evenodd" d="M419.754 360.907L421.115 364.913L421.644 370.923L416.882 371.603L411.023 371.679L407.773 368.882L406.979 367.635L405.43 358.904L409.512 358.224L416.466 358.186L419.754 360.907Z" fill="#FFE9A9"/>
<path fill-rule="evenodd" clip-rule="evenodd" d="M65.7259 358.904L64.3653 367.181L63.6849 368.504L60.1322 371.679L54.2739 371.603L49.5117 370.923L50.2676 364.46L51.666 360.491L54.6897 358.186L61.644 358.224L65.7259 358.904Z" fill="#FFE9A9"/>
<path fill-rule="evenodd" clip-rule="evenodd" d="M395.754 385.588L398.362 389.669V397.947L388.233 397.758L385.663 395.641L384.227 392.391L384.038 384.302H393.675L395.754 385.588Z" fill="#FFE9A9"/>
<path fill-rule="evenodd" clip-rule="evenodd" d="M87.1184 391.937L85.7577 395.263L82.9231 397.758L72.7939 397.947L72.9829 389.216L75.7798 385.285L77.4806 384.302H87.1184V391.937Z" fill="#FFE9A9"/>
<path fill-rule="evenodd" clip-rule="evenodd" d="M368.239 407.093L371.603 410.381L371.565 418.696L370.923 421.38L366.879 421.153L362.835 420.51L359.546 418.432L358.148 415.824L358.186 410.646L358.753 406.564L359.32 405.77H362.192L368.239 407.093Z" fill="#FFE9A9"/>
<path fill-rule="evenodd" clip-rule="evenodd" d="M112.592 407.017L113.234 415.37L111.609 418.432L107.867 420.737L100.233 421.38L99.7793 419.15L99.8171 410.003L102.916 407.093L108.964 405.77H111.836L112.592 407.017Z" fill="#FFE9A9"/>
<path fill-rule="evenodd" clip-rule="evenodd" d="M338.759 425.159L340.838 427.087L342.841 431.206L340.158 440.693L332.069 437.896L330.104 436.498L328.706 433.89V429.354L330.746 423.345L332.712 423.118L338.759 425.159Z" fill="#FFE9A9"/>
<path fill-rule="evenodd" clip-rule="evenodd" d="M140.674 423.798L142.639 429.846L142.677 433.436L140.372 437.178L131.263 440.806L128.542 432.491L128.504 430.753L130.318 427.087L132.397 425.159L138.444 423.118L139.994 423.042L140.674 423.798Z" fill="#FFE9A9"/>
<path fill-rule="evenodd" clip-rule="evenodd" d="M308.75 439.786L310.677 443.187V446.135L307.049 453.997L305.31 454.035L299.339 450.557L297.298 448.554L296.542 446.627V443.414L300.662 435.175L308.75 439.786Z" fill="#FFE9A9"/>
<path fill-rule="evenodd" clip-rule="evenodd" d="M174.803 443.906V446.136L174.123 448.139L171.817 450.558L165.845 454.035L164.107 453.997L160.667 446.627L160.705 442.734L162.784 439.484L170.797 435.25L174.803 443.906Z" fill="#FFE9A9"/>
<path fill-rule="evenodd" clip-rule="evenodd" d="M275.301 447.798L277.228 451.956L276.51 456.189L271.861 462.803L269.216 461.254L263.849 456.605L263.093 454.639V451.465L265.587 446.589L268.233 443.112L269.14 443.15L275.301 447.798Z" fill="#FFE9A9"/>
<path fill-rule="evenodd" clip-rule="evenodd" d="M206.325 447.836L208.29 451.956V454.148L207.572 456.189L205.607 458.23L199.597 462.879L194.91 456.567L193.928 451.956L195.855 447.798L202.016 443.15L202.923 443.112L206.325 447.836Z" fill="#FFE9A9"/>
<path fill-rule="evenodd" clip-rule="evenodd" d="M239.093 449.197L242.419 453.241L242.23 458.684L236.069 465.373H235.086L228.926 458.684V452.787L235.427 445.871L239.093 449.197Z" fill="#FFE9A9"/>
<path fill-rule="evenodd" clip-rule="evenodd" d="M239.093 14.1355V16.4032L238.148 18.1796H233.008L232.29 16.8945L232.366 13.7575L234.104 12.1323H237.052L239.093 14.1355Z" fill="#545454"/>
<path fill-rule="evenodd" clip-rule="evenodd" d="M273.222 16.1386V19.8048L272.655 20.5607L269.14 21.6189L267.137 20.1827V15.7229L268.233 14.8158H271.862L273.222 16.1386Z" fill="#545454"/>
<path fill-rule="evenodd" clip-rule="evenodd" d="M204.246 16.1386L204.283 19.8048L203.716 20.5607L200.201 21.6189L198.198 20.1827V15.7229L199.294 14.8158H202.923L204.246 16.1386Z" fill="#545454"/>
<path fill-rule="evenodd" clip-rule="evenodd" d="M306.671 24.1512V27.8173L304.441 29.6693H302.627L300.624 28.2331V23.7733L302.362 22.8284H305.348L306.671 24.1512Z" fill="#545454"/>
<path fill-rule="evenodd" clip-rule="evenodd" d="M170.041 23.5843L170.797 24.8315V27.8173L170.23 28.5733L166.715 29.6315L164.75 28.2331V23.7733L165.808 22.8284H168.794L170.041 23.5843Z" fill="#545454"/>
<path fill-rule="evenodd" clip-rule="evenodd" d="M338.797 37.5685V40.5165L337.89 42.2929H333.392L331.994 40.2898V38.4756L333.808 36.2079L337.474 36.2457L338.797 37.5685Z" fill="#545454"/>
<path fill-rule="evenodd" clip-rule="evenodd" d="M138.066 36.8126L139.275 39.1937L137.764 42.2929H133.266L132.624 41.6126V37.1528L133.682 36.2079H137.348L138.066 36.8126Z" fill="#545454"/>
<path fill-rule="evenodd" clip-rule="evenodd" d="M368.277 55.6346L368.239 58.6204L367.332 60.359H362.872L361.436 58.3559V56.5417L363.25 54.3118H366.916L368.277 55.6346Z" fill="#545454"/>
<path fill-rule="evenodd" clip-rule="evenodd" d="M108.624 54.8787L109.833 57.2976L108.284 60.359H103.824L103.144 59.6787V55.2188L104.24 54.3118H107.906L108.624 54.8787Z" fill="#545454"/>
<path fill-rule="evenodd" clip-rule="evenodd" d="M394.394 77.7071L394.356 81.3732L392.844 83.1874L389.669 83.1118L388.309 81.7511L388.233 77.896L390.047 76.3464L392.315 76.3842L394.394 77.7071Z" fill="#545454"/>
<path fill-rule="evenodd" clip-rule="evenodd" d="M82.3557 77.1401L83.1116 78.3874V81.3732L81.4864 83.1118L78.3116 83.1874L76.9888 81.8646L77.0643 77.3291L78.8407 76.3842L81.1084 76.3464L82.3557 77.1401Z" fill="#545454"/>
<path fill-rule="evenodd" clip-rule="evenodd" d="M415.786 103.181L417.147 105.184V107.452L415.521 109.191L411.704 109.228L410.343 107.263L410.306 104.731L412.347 102.69L414.388 102.463L415.786 103.181Z" fill="#545454"/>
<path fill-rule="evenodd" clip-rule="evenodd" d="M59.6789 103.181L61.0395 105.222V106.772L59.4143 109.228L55.6348 109.191L54.3119 107.868L54.2363 104.693L56.2773 102.69L58.3182 102.463L59.6789 103.181Z" fill="#545454"/>
<path fill-rule="evenodd" clip-rule="evenodd" d="M433.852 132.624L435.213 134.627V136.894L433.588 138.671H429.808L428.41 136.706V134.173L430.451 132.132L432.492 131.906L433.852 132.624Z" fill="#545454"/>
<path fill-rule="evenodd" clip-rule="evenodd" d="M41.6125 132.624L42.9731 134.627V136.894L41.3479 138.671H37.5684L36.2455 137.31L36.1699 134.173L38.1731 132.132L40.214 131.906L41.6125 132.624Z" fill="#545454"/>
<path fill-rule="evenodd" clip-rule="evenodd" d="M447.232 164.75L448.592 166.791L447.912 169.701L446.362 170.872H443.83L441.865 169.474V165.695L443.603 164.069H445.871L447.232 164.75Z" fill="#545454"/>
<path fill-rule="evenodd" clip-rule="evenodd" d="M29.556 166.072V169.058L27.3261 170.872H24.7938L23.5465 170.154L22.8662 168.605V166.526L24.1512 164.334L27.5528 164.069L29.556 166.072Z" fill="#545454"/>
<path fill-rule="evenodd" clip-rule="evenodd" d="M455.282 198.236L456.642 200.277L456.416 202.318L454.412 204.321L451.238 204.246L449.915 202.923L449.877 199.143L452.334 197.518H453.883L455.282 198.236Z" fill="#545454"/>
<path fill-rule="evenodd" clip-rule="evenodd" d="M21.5433 199.521V202.545L19.9181 204.246L16.7433 204.321L15.496 203.603L14.8535 202.091V199.975L15.874 198.198L17.2724 197.518H18.822L21.5433 199.521Z" fill="#545454"/>
<path fill-rule="evenodd" clip-rule="evenodd" d="M458.948 234.142V236.863L457.701 238.413L453.808 238.488L452.485 237.128V233.877L454.299 232.328L457.285 232.365L458.948 234.142Z" fill="#545454"/>
<path fill-rule="evenodd" clip-rule="evenodd" d="M18.86 234.368V236.636L17.9151 238.413H13.4553L12.019 236.409V234.595L13.871 232.328H17.5371L18.86 234.368Z" fill="#545454"/>
<path fill-rule="evenodd" clip-rule="evenodd" d="M455.282 267.175L456.642 269.216L456.416 271.257L454.375 273.298H451.842L449.877 271.899L449.915 268.082L451.653 266.457H453.921L455.282 267.175Z" fill="#545454"/>
<path fill-rule="evenodd" clip-rule="evenodd" d="M21.5433 268.498V271.484L19.3134 273.298H16.7811L15.496 272.542L14.8535 271.03V268.951L15.874 267.137L17.2346 266.495L19.5023 266.457L21.5433 268.498Z" fill="#545454"/>
<path fill-rule="evenodd" clip-rule="evenodd" d="M447.269 300.624L448.592 303.345L448.403 304.706L446.362 306.746L443.188 306.671L441.865 305.348V301.531L444.321 299.906H445.871L447.269 300.624Z" fill="#545454"/>
<path fill-rule="evenodd" clip-rule="evenodd" d="M29.556 301.946V304.932L27.9686 306.671H24.1512L22.8662 304.479V302.4L23.8867 300.624L25.2851 299.906H26.8347L29.556 301.946Z" fill="#545454"/>
<path fill-rule="evenodd" clip-rule="evenodd" d="M435.213 334.11L434.986 336.869L432.983 338.872H430.451L428.41 336.832V334.299L430.224 332.069H433.21L435.213 334.11Z" fill="#545454"/>
<path fill-rule="evenodd" clip-rule="evenodd" d="M42.9731 334.11L42.7463 336.869L40.7054 338.872H38.1731L36.1699 336.869L36.2455 333.695L37.9463 332.069H40.9321L42.9731 334.11Z" fill="#545454"/>
<path fill-rule="evenodd" clip-rule="evenodd" d="M417.147 363.553L416.92 366.312L414.879 368.353H412.347L410.306 366.312L410.343 363.78L412.12 361.512L415.106 361.55L417.147 363.553Z" fill="#545454"/>
<path fill-rule="evenodd" clip-rule="evenodd" d="M61.0395 364.233L60.8505 366.312L58.8096 368.353H56.2773L54.2363 366.312L54.3119 363.137L56.0505 361.55L59.0363 361.512L61.0395 364.233Z" fill="#545454"/>
<path fill-rule="evenodd" clip-rule="evenodd" d="M393.638 388.384L394.356 389.632L394.394 393.335L392.806 394.432H389.556L388.233 393.109L388.309 389.254L390.085 387.628H392.353L393.638 388.384Z" fill="#545454"/>
<path fill-rule="evenodd" clip-rule="evenodd" d="M83.1116 389.632V392.617L81.5998 394.432H78.3494L77.0643 393.713L76.9888 389.178L78.8029 387.628H81.0707L83.1116 389.632Z" fill="#545454"/>
<path fill-rule="evenodd" clip-rule="evenodd" d="M368.239 412.422L368.277 415.37L367.332 416.466H362.872L361.436 414.463V412.649L363.25 410.381H366.954L368.239 412.422Z" fill="#545454"/>
<path fill-rule="evenodd" clip-rule="evenodd" d="M108.662 410.948L109.833 413.745L108.284 416.466H103.824L103.144 415.786V411.326L104.24 410.381H107.906L108.662 410.948Z" fill="#545454"/>
<path fill-rule="evenodd" clip-rule="evenodd" d="M338.797 430.488V433.436L337.89 434.532H333.392L331.994 432.529V430.715L333.808 428.485L337.512 428.447L338.797 430.488Z" fill="#545454"/>
<path fill-rule="evenodd" clip-rule="evenodd" d="M138.104 429.052L139.275 431.811L137.726 434.532H133.266L132.624 433.852V429.392L133.682 428.485H137.348L138.104 429.052Z" fill="#545454"/>
<path fill-rule="evenodd" clip-rule="evenodd" d="M306.671 443.187V446.854L305.764 447.912L301.909 447.95L300.624 447.232V442.772L303.08 441.146H303.987L306.671 443.187Z" fill="#545454"/>
<path fill-rule="evenodd" clip-rule="evenodd" d="M169.436 441.902L170.797 443.187V446.173L169.285 447.987L165.392 447.912L164.75 447.269V442.772L167.471 441.26L169.436 441.902Z" fill="#545454"/>
<path fill-rule="evenodd" clip-rule="evenodd" d="M271.824 449.915L273.222 451.238V454.866L272.277 455.962H267.817L267.137 455.282V450.822L269.858 449.272L271.824 449.915Z" fill="#545454"/>
<path fill-rule="evenodd" clip-rule="evenodd" d="M202.885 449.915L204.283 451.238L204.246 454.866L203.338 455.962H198.879L198.198 455.282V450.822L200.92 449.272L202.885 449.915Z" fill="#545454"/>
<path fill-rule="evenodd" clip-rule="evenodd" d="M239.093 454.602V456.869L237.468 458.608H233.688L232.366 457.285L232.29 454.11L233.386 452.561H237.77L239.093 454.602Z" fill="#545454"/>
<path fill-rule="evenodd" clip-rule="evenodd" d="M458.948 236.863V234.142L459.288 234.368L458.948 236.863Z" fill="black"/>
<path fill-rule="evenodd" clip-rule="evenodd" d="M236.41 33.4866L236.334 81.411H234.822L235.011 33.0709L235.767 32.8441L236.41 33.4866Z" fill="white"/>
<path fill-rule="evenodd" clip-rule="evenodd" d="M267.855 51.6283V54.6142L266.23 56.315L263.093 56.3905L261.052 54.3874V51.8551L263.093 49.8142L265.852 49.5874L267.855 51.6283Z" fill="white"/>
<path fill-rule="evenodd" clip-rule="evenodd" d="M208.932 50.3055L210.331 52.3465L210.104 54.3874L208.063 56.3905L204.926 56.315L203.565 54.9921V51.2126L205.304 49.5874H207.61L208.932 50.3055Z" fill="white"/>
<path fill-rule="evenodd" clip-rule="evenodd" d="M295.975 58.318V61.3039L294.35 63.0047L291.175 63.0803L289.928 62.3621L289.172 59.2251L290.306 56.9574L291.704 56.2771H293.254L295.975 58.318Z" fill="white"/>
<path fill-rule="evenodd" clip-rule="evenodd" d="M180.851 56.9574L182.173 59.7165L182.022 61.0393L179.981 63.0803L176.806 63.0047L175.484 61.6818L175.446 57.9023L177.903 56.2771H179.452L180.851 56.9574Z" fill="white"/>
<path fill-rule="evenodd" clip-rule="evenodd" d="M322.016 68.4472L322.772 69.6944L322.734 72.6803L321.827 73.7385H317.329L315.931 71.7354V69.9212L317.745 67.6913H320.731L322.016 68.4472Z" fill="white"/>
<path fill-rule="evenodd" clip-rule="evenodd" d="M155.414 70.4125L154.696 72.6425L152.504 74.4944L149.367 73.7385L148.686 73.096L148.611 69.2031L150.425 67.6913H153.411L155.414 70.4125Z" fill="white"/>
<path fill-rule="evenodd" clip-rule="evenodd" d="M346.129 83.1118L347.528 84.3968V87.4204L345.978 89.1968L342.123 89.1591L340.725 87.1559V84.6614L341.858 83.1118L344.202 82.5071L346.129 83.1118Z" fill="white"/>
<path fill-rule="evenodd" clip-rule="evenodd" d="M129.902 83.8299L130.696 85.1149L130.658 86.7023L129.033 89.159L125.253 89.1212L123.931 87.7984L123.855 84.6236L124.989 83.1118L127.332 82.4692L129.902 83.8299Z" fill="white"/>
<path fill-rule="evenodd" clip-rule="evenodd" d="M369.6 103.861L369.638 106.129L368.088 107.943L364.233 107.868L362.872 106.545L362.797 103.332L364.611 101.821L368.277 101.783L369.6 103.861Z" fill="white"/>
<path fill-rule="evenodd" clip-rule="evenodd" d="M108.586 103.861V105.411L106.961 107.868L103.068 107.943L101.745 106.621L101.783 103.37L102.879 101.783L106.545 101.821L108.586 103.861Z" fill="white"/>
<path fill-rule="evenodd" clip-rule="evenodd" d="M89.1214 125.291L89.8395 127.521L88.2143 129.978L84.3214 130.054L82.9985 128.693L83.0363 125.443L84.1702 123.931L86.5135 123.288L89.1214 125.291Z" fill="white"/>
<path fill-rule="evenodd" clip-rule="evenodd" d="M388.346 125.253V128.239L386.835 130.054L382.942 129.978L381.505 127.975V126.161L382.866 124.082L387.024 123.931L388.346 125.253Z" fill="white"/>
<path fill-rule="evenodd" clip-rule="evenodd" d="M402.368 148.687L403.767 150.728V152.277L402.142 154.734H398.362L397.039 153.373L397.001 149.594L399.458 147.969L402.368 148.687Z" fill="white"/>
<path fill-rule="evenodd" clip-rule="evenodd" d="M74.4189 150.009V152.995L72.7937 154.734H69.0142L67.6157 152.768V150.236L68.7874 148.687L71.6976 147.969L74.4189 150.009Z" fill="white"/>
<path fill-rule="evenodd" clip-rule="evenodd" d="M89.1591 186.935V188.447L87.0425 188.258L42.8221 173.405L42.6709 172.8H45.6189L89.1591 186.935Z" fill="white"/>
<path fill-rule="evenodd" clip-rule="evenodd" d="M428.334 173.405L384.114 188.258L381.997 188.447V186.935L425.537 172.8H428.485L428.334 173.405Z" fill="white"/>
<path fill-rule="evenodd" clip-rule="evenodd" d="M421.153 204.888V208.554L420.208 209.613H415.748L415.068 208.97V204.472L418.167 202.961H418.507L421.153 204.888Z" fill="white"/>
<path fill-rule="evenodd" clip-rule="evenodd" d="M56.3526 204.888V208.554L55.4077 209.613H50.9479L50.2676 208.97V204.472L53.3668 202.961H53.7069L56.3526 204.888Z" fill="white"/>
<path fill-rule="evenodd" clip-rule="evenodd" d="M423.836 234.368V236.636L422.211 238.375L417.751 238.413L417.033 237.128V233.915L418.129 232.328L421.833 232.365L423.836 234.368Z" fill="white"/>
<path fill-rule="evenodd" clip-rule="evenodd" d="M53.5937 233.083L54.3497 234.368V236.674L52.8 238.488L48.9449 238.375L47.6221 237.052V233.953L49.3607 232.328H52.3465L53.5937 233.083Z" fill="white"/>
<path fill-rule="evenodd" clip-rule="evenodd" d="M421.153 262.451V266.117L418.885 267.931L415.748 267.175L415.068 266.532V262.035L416.164 261.128H419.792L421.153 262.451Z" fill="white"/>
<path fill-rule="evenodd" clip-rule="evenodd" d="M56.3526 262.451V266.117L54.0849 267.931L50.9479 267.175L50.2676 266.532V262.035L51.3636 261.128H54.992L56.3526 262.451Z" fill="white"/>
<path fill-rule="evenodd" clip-rule="evenodd" d="M413.707 290.003L414.463 291.25V294.236L412.195 296.05H410.381L408.378 294.652V290.154L409.474 289.247H412.46L413.707 290.003Z" fill="white"/>
<path fill-rule="evenodd" clip-rule="evenodd" d="M63.0427 290.57V294.236L60.775 296.05H58.9608L56.9577 294.652L56.9199 290.759L58.6963 289.247H61.6821L63.0427 290.57Z" fill="white"/>
<path fill-rule="evenodd" clip-rule="evenodd" d="M403.767 318.728V320.277L403.087 321.676L400.819 322.809L399.005 322.847L397.001 321.411L397.039 317.632L398.74 316.006H401.726L403.767 318.728Z" fill="white"/>
<path fill-rule="evenodd" clip-rule="evenodd" d="M74.4189 318.009V320.995L72.1512 322.847L70.337 322.809L68.3716 322.054L67.6157 320.769V318.236L69.4299 316.006H72.4157L74.4189 318.009Z" fill="white"/>
<path fill-rule="evenodd" clip-rule="evenodd" d="M387.59 341.518L388.346 342.765V345.751L387.401 346.847L382.866 346.923L381.505 344.844V343.03L383.357 340.762H386.343L387.59 341.518Z" fill="white"/>
<path fill-rule="evenodd" clip-rule="evenodd" d="M89.8395 343.483L89.1214 345.751L86.8915 347.603L83.7545 346.809L83.0363 345.562L82.9985 342.312L84.8127 340.762H87.7986L89.8395 343.483Z" fill="white"/>
<path fill-rule="evenodd" clip-rule="evenodd" d="M354.973 398.438L354.822 399.345L353.348 399.307L326.06 361.512L326.022 359.736L326.778 359.509L354.973 398.438Z" fill="white"/>
<path fill-rule="evenodd" clip-rule="evenodd" d="M145.436 360.151L145.399 361.096L117.808 399.307L116.334 399.345L116.447 397.947L144.378 359.509L145.436 360.151Z" fill="white"/>
<path fill-rule="evenodd" clip-rule="evenodd" d="M368.844 363.628L369.638 364.876L369.6 367.143L368.655 368.92L364.12 368.995L362.797 367.673L362.872 364.498L364.611 362.873H367.597L368.844 363.628Z" fill="white"/>
<path fill-rule="evenodd" clip-rule="evenodd" d="M108.586 365.594V367.143L106.923 368.92H102.501L101.783 367.635L101.745 364.384L103.559 362.873H106.545L108.586 365.594Z" fill="white"/>
<path fill-rule="evenodd" clip-rule="evenodd" d="M154.696 398.362L155.414 400.63L153.827 403.087L149.934 403.124L148.611 401.802L148.686 397.909L151.748 396.397H152.126L154.696 398.362Z" fill="white"/>
<path fill-rule="evenodd" clip-rule="evenodd" d="M322.734 398.362L322.772 401.348L321.222 403.124L317.329 403.087L315.931 401.083V399.269L317.745 397.002H321.411L322.734 398.362Z" fill="white"/>
<path fill-rule="evenodd" clip-rule="evenodd" d="M295.975 409.739V412.725L293.745 414.501H291.213L289.928 413.745L289.172 410.646L290.306 408.378L291.666 407.698H293.934L295.975 409.739Z" fill="white"/>
<path fill-rule="evenodd" clip-rule="evenodd" d="M180.813 408.378L182.211 410.419L181.493 413.367L179.943 414.501H177.411L175.446 413.102L175.484 409.323L177.222 407.698H179.49L180.813 408.378Z" fill="white"/>
<path fill-rule="evenodd" clip-rule="evenodd" d="M267.855 416.428V419.414L266.23 421.115L263.093 421.191L261.052 419.187V416.655L263.093 414.614L265.852 414.387L267.855 416.428Z" fill="white"/>
<path fill-rule="evenodd" clip-rule="evenodd" d="M208.932 415.106L210.331 417.146L210.104 419.187L208.063 421.228H205.531L203.565 419.83V416.013L206.022 414.387H207.572L208.932 415.106Z" fill="white"/>
<path fill-rule="evenodd" clip-rule="evenodd" d="M238.337 417.827L239.093 419.112V421.38L237.468 423.118H233.688L232.366 421.795L232.29 418.621L233.386 417.071H237.09L238.337 417.827Z" fill="white"/>
</svg>
