<?xml version="1.0" encoding="UTF-8" standalone="no"?>
<svg xmlns="http://www.w3.org/2000/svg" xmlns:xlink="http://www.w3.org/1999/xlink" width="297.000mm" height="210.000mm" viewBox="0.000000 0.000000 297.000000 210.000000" stroke-linejoin="round" stroke-linecap="round" fill="none" fill-rule="evenodd"><desc>Composer Export</desc><script type="text/ecmascript"><![CDATA[
if(typeof(top) != "undefined")
{
	top.ShowPaper = ShowPaper;
}
function ShowHotSpot(evt,hotspotid)
{
	var svgDocument = evt.target.ownerDocument;
	var strId = "hotspot."+hotspotid;
	var hotspot = svgDocument.getElementById(strId);
	if(hotspot)
		hotspot.setAttribute("opacity",".5");
}
function HideHotSpot(evt,hotspotid)
{
	var svgDocument = evt.target.ownerDocument;
	var strId = "hotspot."+hotspotid;
	var hotspot = svgDocument.getElementById(strId);
	if(hotspot)
		hotspot.setAttribute("opacity","0");

	var toolTip = svgDocument.getElementById('ToolTip');
	if(toolTip)
		toolTip.setAttribute("visibility","hidden");
}
function ShowToolTip(evt,hotspotid,strTooltip)
{
	if(strTooltip=="")
	return;

	// change text
	var svgDocument = evt.target.ownerDocument;
	var tiptext = svgDocument.getElementById('ToolTipText');
	if( !tiptext )
	return;
	tiptext.firstChild.nodeValue = " " + strTooltip + "  " ;

	// show tooltip before, else some refresh issue

	var toolTip = svgDocument.getElementById('ToolTip');
	if(!toolTip)
	return;

	toolTip.setAttribute("visibility","visible");
	toolTip.setAttribute("opacity",".95");

	// move tooltip
	// get viewbox

	var root = svgDocument.documentElement;
	var vbox = (root.getAttribute("viewBox")).split(' ');
	var x0 = parseFloat(vbox[0]);
	var y0 = parseFloat(vbox[1]);
	var vboxW = parseFloat(vbox[2]);
	var vboxH = parseFloat(vbox[3]);

	// get default width of svg

	var strW = root.getAttribute("width");
	var svgW = parseFloat(strW);
	if(strW.indexOf('mm') != -1)
	svgW *= 3.779;

	var strH = root.getAttribute("height");
	var svgH = parseFloat(strH);
	if(strH.indexOf('mm') != -1)
	svgH *= 3.779;  	// 96 dpi  -> 96/25.4 = 3.779

	// update the viewbox / width / height if svg is embedded in html with zoom fit all
	var realx0 = x0;
	var realy0 = y0;
	var realvboxW = vboxW;
	var realvboxH = vboxH;
	var realsvgW = svgW;
	var realsvgH = svgH;

	if ((typeof(top) == "undefined") || (typeof(top.svgctl1) != "undefined")) // embedded in html
	{
		// get window size in pxl

		svgW = window.innerWidth;
		svgH = window.innerHeight;

		// calculate real viewbox

		realsvgW = svgW;
		realsvgH = svgH;
		if((svgW / svgH) > (vboxW / vboxH))
		{
			realvboxW = (vboxH * svgW) / svgH;
			realvboxH = vboxH;
			realx0 = x0 - (realvboxW - vboxW)/2 ;
		}
		else
		{
			realvboxH = (vboxW * svgH) / svgW;
			realvboxW = vboxW;
			realy0 = y0 - (realvboxH - vboxH)/2 ;
		}
	}

	// get user zoom/pan

	var newScale = root.currentScale;
	var translation = root.currentTranslate;

	// transform pxl to user unit

	var xPos = (((evt.clientX+10- translation.x)/newScale) * realvboxW)/realsvgW  + realx0 ;
	var yPos = (((evt.clientY+5- translation.y)/newScale) * realvboxH)/ realsvgH  + realy0 ;
	var scaleForWidth = ( (1 / newScale) * realvboxH) / realsvgH;

	// move tooltip

	toolTip.setAttribute("transform", "translate(" + xPos + "," + yPos + ")" );

	// resize tooltip

	var fontsize = 12;
	tiptext.setAttribute("font-size",fontsize*scaleForWidth);
	tiptext.setAttribute("y", fontsize*scaleForWidth);
	var tipBG = svgDocument.getElementById('ToolTipBG');
	var outline = tiptext.getBBox();
	if(tipBG)
	{
		tipBG.setAttribute("stroke-width", 1*scaleForWidth);
		tipBG.setAttribute("width", Number(outline.width) );
		tipBG.setAttribute("height", Number(outline.height) + fontsize*.5*scaleForWidth );
	}
	var ToolTipShadow = svgDocument.getElementById('ToolTipShadow');
	if(ToolTipShadow)
	{
		ToolTipShadow.setAttribute("width", Number(outline.width) );
		ToolTipShadow.setAttribute("height", Number(outline.height) + fontsize*.5*scaleForWidth );
		ToolTipShadow.setAttribute("x", 3*scaleForWidth);
		ToolTipShadow.setAttribute("y", 3*scaleForWidth);
	}
}
function ShowPaper()
{
  var svgDocument = getDocument();
  var paper = svgDocument.getElementById("paperID");
  if(paper)
  {
    paper.setAttribute("transform","scale(1)");
    paper.setAttribute("opacity","1");
    paper.setAttribute("visibility","visible");
  }
  var svg = svgDocument.getRootElement();
  if(svg)
  {
    svg.setAttribute("width","307.000mm");
    svg.setAttribute("height","220.000mm");
    svg.setAttribute("viewBox","-5.000000 -5.000000 307.000000 220.000000");
  }
}
]]></script><defs/><g><path style="fill:#000000;fill-opacity:0.098;fill-rule:evenodd" d="M155.97,47.17L161.10,48.06L165.18,49.12L169.79,50.71L170.20,51.01L168.54,50.54L165.00,49.29L160.93,48.23L155.61,47.35L152.25,46.99L145.46,46.99L142.63,47.17L137.67,47.88L134.66,48.59L131.34,49.52L127.69,50.65L128.10,50.35L133.07,48.77L137.49,47.70L142.27,46.99L144.75,46.82L152.60,46.82zM171.20,51.24L173.38,52.42L172.78,52.31L170.47,51.26L170.20,51.01zM126.16,51.43L125.57,51.54L126.33,51.07L127.21,50.70L127.69,50.65zM125.16,51.84L124.33,52.07L125.08,51.59L125.57,51.54zM175.99,53.53L176.22,53.84L173.67,52.67L173.38,52.42L173.86,52.47zM121.90,53.39L121.54,53.37L123.84,52.12L124.33,52.07zM177.23,54.24L177.46,54.55L176.34,54.07L176.22,53.84zM178.47,54.95L178.70,55.26L177.58,54.77L177.46,54.55zM120.74,53.96L119.05,54.94L118.30,55.25L119.07,54.61L120.51,53.88zM179.35,55.48L179.58,55.78L178.83,55.48L178.70,55.26zM118.19,55.49L117.78,55.61L117.99,55.30L118.30,55.25zM180.11,56.14L179.70,56.02L179.58,55.78L179.89,55.83zM180.65,56.49L180.23,56.38L180.11,56.14L180.42,56.19zM117.10,56.18L116.35,56.49L117.12,55.85L117.78,55.61zM182.00,57.26L182.41,57.74L181.49,57.24L180.77,56.72L180.65,56.49L180.94,56.55zM116.24,56.73L115.83,56.85L116.05,56.54L116.35,56.49zM115.70,57.07L114.76,57.56L115.17,57.08L115.83,56.85zM182.95,58.09L182.53,57.97L182.41,57.74L182.72,57.78zM184.31,59.04L183.97,59.04L183.07,58.32L182.95,58.09L183.24,58.15zM114.70,57.67L113.66,58.58L113.17,58.80L113.76,58.15L114.46,57.61L114.76,57.56zM112.97,59.13L112.46,59.33L112.87,58.85L113.17,58.80zM185.37,59.93L185.04,59.93L184.61,59.37L184.81,59.37zM112.26,59.66L111.75,59.86L112.16,59.38L112.46,59.33zM186.49,60.92L186.08,60.80L185.67,60.25L185.88,60.25zM111.08,60.64L110.74,60.64L111.45,59.91L111.75,59.86zM187.50,61.70L187.16,61.70L186.49,60.92L186.79,60.98zM109.31,62.23L108.97,62.23L110.06,61.14L110.27,61.14zM191.06,65.03L191.23,65.46L190.34,64.69L189.07,63.43L189.04,63.26L189.24,63.26zM108.51,62.80L106.73,64.59L106.73,64.25L108.29,62.73zM192.13,66.27L192.30,66.70L191.56,66.10L191.56,65.76zM193.36,67.69L193.57,68.18L192.62,67.34L192.62,67.00zM106.05,65.45L104.14,67.30L104.35,66.80L105.97,65.22zM104.08,67.60L103.60,68.01L103.81,67.50L104.14,67.30zM194.40,68.95L194.81,69.78L194.41,69.47L193.69,68.60L193.57,68.18zM103.55,68.31L102.90,68.89L103.11,68.39L103.60,68.01zM102.84,69.19L102.19,69.78L102.40,69.28L102.90,68.89zM195.14,69.98L195.34,70.49L194.93,70.19L194.81,69.78zM195.81,70.90L196.23,71.73L195.83,71.42L195.34,70.49zM102.14,70.08L101.48,70.66L101.69,70.16L102.19,69.78zM101.44,70.97L101.13,71.19L101.24,70.78L101.48,70.66zM101.08,71.50L100.77,71.73L100.89,71.31L101.13,71.19zM196.56,71.93L196.76,72.43L196.34,72.14L196.23,71.73zM100.73,72.04L100.42,72.26L100.53,71.84L100.77,71.73zM197.07,72.66L197.12,72.96L196.88,72.85L196.76,72.43zM100.37,72.57L100.06,72.79L100.18,72.37L100.42,72.26zM197.42,73.19L197.65,73.85L197.22,73.39L197.12,72.96zM100.02,73.10L99.71,73.32L99.83,72.91L100.06,72.79zM99.66,73.63L99.35,73.85L99.47,73.44L99.71,73.32zM197.95,74.08L198.18,74.74L197.75,74.28L197.65,73.85zM99.31,74.16L99.00,74.38L99.12,73.97L99.35,73.85zM199.36,76.39L199.90,77.69L199.74,77.65L198.28,75.16L198.18,74.74L198.30,74.79zM98.96,74.69L98.64,74.91L98.76,74.50L99.00,74.38zM98.63,75.07L97.88,76.46L97.86,76.10L98.52,74.97L98.64,74.91zM97.12,77.99L96.70,78.46L97.37,76.96L97.54,76.92zM94.64,83.30L93.10,87.61L92.80,88.01L93.98,84.24L96.47,78.58L96.70,78.46zM90.26,102.13L90.74,96.93L91.49,92.55L92.71,88.10L92.80,88.01L92.74,88.67L91.85,92.20L90.97,96.99L90.62,100.53L90.62,109.51L90.79,111.63L91.32,115.18L92.03,118.55L92.80,122.03L92.38,120.85L91.49,117.49L90.62,112.16L90.26,107.92zM93.98,125.10L96.70,131.59L96.28,131.12L93.80,125.28L92.80,122.03L92.90,122.11zM97.00,131.81L97.54,133.12L97.37,133.08L96.70,131.59zM98.05,133.74L98.64,135.13L98.23,134.66L97.80,133.60zM98.96,135.35L99.00,135.66L98.76,135.54L98.64,135.13zM99.31,135.88L99.35,136.19L99.12,136.07L99.00,135.66zM99.66,136.41L99.71,136.72L99.47,136.61L99.35,136.19zM100.02,136.94L100.06,137.25L99.83,137.14L99.71,136.72zM100.37,137.48L100.42,137.79L100.18,137.67L100.06,137.25zM100.73,138.01L100.77,138.32L100.53,138.20L100.42,137.79zM101.08,138.54L101.13,138.85L100.89,138.73L100.77,138.32zM101.44,139.07L101.48,139.38L101.24,139.26L101.13,138.85zM101.98,139.77L102.19,140.26L101.60,139.79L101.48,139.38zM102.69,140.65L102.90,141.15L102.31,140.68L102.19,140.26zM103.40,141.54L103.60,142.04L103.02,141.56L102.90,141.15zM103.93,142.24L104.14,142.74L103.72,142.45L103.60,142.04zM105.88,144.37L106.05,144.80L105.15,144.03L104.26,143.16L104.14,142.74zM108.51,147.24L108.17,147.24L106.73,145.79L106.73,145.45zM110.28,148.83L109.94,148.83L108.99,147.74L109.19,147.74zM111.75,150.18L111.34,150.06L110.76,149.33L110.96,149.33zM112.46,150.71L112.04,150.60L111.75,150.18L112.05,150.23zM113.17,151.25L112.75,151.13L112.46,150.71L112.76,150.77zM114.17,151.84L114.76,152.48L114.35,152.36L113.30,151.47L113.17,151.25L113.47,151.30zM115.83,153.19L115.07,152.89L114.76,152.48L115.06,152.54zM116.35,153.55L115.94,153.43L115.83,153.19L116.13,153.24zM117.00,153.79L117.78,154.43L117.03,154.12L116.35,153.55zM118.30,154.79L117.89,154.67L117.78,154.43L118.08,154.48zM120.74,156.09L120.38,156.11L118.43,155.01L118.30,154.79L118.60,154.84z"/><g id="Actor_.0"><g style="stroke:#000000;stroke-width:0.176"><path d="M91.13,115.38L91.42,117.13L92.64,121.86L94.25,126.48L96.23,130.94L98.59,135.23L101.29,139.30L104.33,143.13L107.67,146.69L111.31,149.96L115.20,152.92L119.32,155.53L123.66,157.80L128.16,159.69L132.81,161.20L137.52,162.31L142.40,163.03L147.28,163.34L152.16,163.24L157.02,162.72L161.82,161.81L166.53,160.49L171.11,158.79L175.53,156.71L179.77,154.27L183.78,151.48L187.54,148.36L191.04,144.94L194.23,141.24L197.10,137.29L199.63,133.11L201.81,128.73L203.61,124.19L205.02,119.51L206.03,114.73L206.65,109.88L206.85,105.00L206.65,100.12L206.03,95.27L205.02,90.49L203.61,85.81L201.81,81.27L199.63,76.89L197.10,72.71L194.23,68.76L191.04,65.06L187.54,61.64L183.78,58.52L179.77,55.73L175.53,53.29L171.11,51.21L166.53,49.51L161.82,48.19L157.02,47.28L152.16,46.76L147.28,46.66L142.40,46.97L137.57,47.68L132.81,48.80L128.16,50.31L123.65,52.20L119.32,54.47L115.20,57.08L111.31,60.04L107.67,63.31L104.33,66.87L101.29,70.70L98.59,74.77L96.23,79.06L94.25,83.52L92.64,88.14L91.42,92.87L90.61,97.69L90.20,102.56L90.20,107.44L90.61,112.31L91.13,115.38"/><path d="M91.30,115.05L90.83,112.29L90.42,107.43L90.42,102.57L90.83,97.71L91.64,92.91L92.85,88.20L94.45,83.60L96.43,79.15L98.78,74.89L101.47,70.83L104.50,67.02L107.83,63.47L111.45,60.21L115.32,57.27L119.43,54.66L123.75,52.40L128.24,50.51L132.87,49.01L137.61,47.90L142.42,47.19L147.28,46.88L152.15,46.98L156.99,47.49L160.63,48.19L161.79,48.41L166.46,49.71L171.04,51.42L175.43,53.48L179.65,55.92L183.65,58.70L187.40,61.80L190.88,65.21L194.06,68.89L196.92,72.83L199.44,77.00L201.61,81.36L203.40,85.88L204.80,90.54L205.82,95.30L206.43,100.14L206.63,105.00L206.43,109.86L205.82,114.70L204.80,119.46L203.39,124.13L201.61,128.64L199.44,133.00L196.92,137.17L194.06,141.11L190.88,144.79L187.40,148.20L183.65,151.30L179.65,154.08L175.43,156.52L171.03,158.59L166.46,160.29L161.79,161.59L156.99,162.51L152.15,163.02L147.28,163.12L142.42,162.81L137.61,162.10L132.87,160.99L128.24,159.49L123.75,157.60L119.43,155.34L115.32,152.73L111.45,149.79L107.83,146.54L107.47,146.16L104.50,142.98L101.47,139.17L98.78,135.11L96.43,130.85L94.45,126.40L92.85,121.80L91.64,117.09L91.30,115.05"/><path d="M146.13,119.81L146.29,118.85L146.12,119.87L145.17,123.14L143.87,126.29L142.22,129.27L140.25,132.05L137.98,134.59L135.44,136.87L132.66,138.84L129.67,140.49L126.53,141.79L123.25,142.73L119.89,143.30L116.49,143.50L110.00,143.50L110.00,122.83L110.20,120.29L110.80,117.82L111.77,115.47L113.10,113.30L114.75,111.37L114.88,111.26L116.69,109.72L118.85,108.39L121.20,107.41L123.77,106.81L123.68,106.82"/><path d="M123.68,103.18L123.77,103.19L121.20,102.59L118.85,101.61L116.69,100.28L114.75,98.63L113.10,96.70L111.83,94.62L110.80,92.18L110.20,89.71L110.01,87.17L110.00,66.50L116.49,66.51L119.89,66.70L123.25,67.27L126.07,68.08L126.53,68.21L129.68,69.52L132.66,71.16L134.81,72.69L135.44,73.14L137.98,75.41L140.25,77.95L141.43,79.62L142.22,80.73L143.87,83.71L145.17,86.86L146.08,90.00L146.70,93.54L146.89,96.93L146.89,103.39L126.22,103.38L128.28,103.39"/><path d="M123.77,106.81L124.81,106.73L123.77,106.81"/><path d="M124.81,106.73L125.96,106.64L124.81,106.73"/><path d="M124.68,103.26L123.77,103.19L124.81,103.27L124.68,103.26"/><path d="M125.96,106.64L127.12,106.62L126.30,106.61L125.96,106.64"/><path d="M124.81,103.27L125.68,103.34L124.81,103.27"/><path d="M125.68,103.34L126.30,103.39L125.96,103.36"/><path d="M127.12,106.62L130.59,106.62L129.43,106.62"/><path d="M126.22,106.62L126.30,106.61L126.22,106.62"/><path d="M130.59,106.62L131.74,106.62L130.59,106.62"/><path d="M135.21,103.39L130.59,103.39"/><path d="M131.74,106.62L132.90,106.62L131.74,106.62"/><path d="M132.90,106.62L134.05,106.62L132.90,106.62"/><path d="M134.05,106.62L135.21,106.62L134.05,106.62"/><path d="M135.21,106.62L136.37,106.62L135.21,106.62"/><path d="M136.37,106.62L138.68,106.62L137.52,106.62"/><path d="M137.52,103.39L140.99,103.39"/><path d="M138.68,106.62L140.99,106.62L139.83,106.62"/><path d="M140.99,106.62L146.77,106.62L145.61,106.62"/><path d="M146.29,118.85L146.69,116.51L146.76,115.38L146.69,116.51"/><path d="M146.76,115.38L146.82,114.23L146.76,115.32"/><path d="M146.76,94.62L146.89,96.93"/><path d="M146.75,94.52L146.69,93.50"/><path d="M146.29,91.15L146.13,90.19"/><path d="M146.88,113.09L146.82,114.23L146.88,113.09L146.89,111.92L146.88,113.09"/><path d="M146.89,111.92L146.88,106.62L146.77,106.62"/><path d="M146.88,96.91L146.82,95.77"/><path d="M150.25,115.32L150.11,113.08L150.31,116.46L150.88,119.87L151.83,123.14L153.13,126.29L154.78,129.27L156.75,132.05L159.02,134.59L161.56,136.87L164.34,138.84L167.33,140.49L170.47,141.79L173.75,142.73L177.11,143.30L180.51,143.50L187.00,143.50L187.00,122.83L186.80,120.29L186.19,117.78L185.23,115.47L183.90,113.30L182.25,111.37L180.31,109.72L178.15,108.39L175.80,107.41L173.32,106.82L170.72,106.61L150.12,106.62L150.11,113.08"/><path d="M150.12,101.54L150.12,100.38L150.11,103.39L154.86,103.39L153.70,103.39"/><path d="M150.12,100.38L150.11,96.93L150.18,95.77L150.11,96.93"/><path d="M150.18,95.77L150.25,94.62L150.18,95.77"/><path d="M150.88,119.82L150.71,118.87"/><path d="M150.31,116.51L150.25,115.38"/><path d="M150.31,116.46L150.32,116.54"/><path d="M150.31,93.50L150.32,93.46L150.25,94.62"/><path d="M150.32,93.46L150.88,90.13L151.83,86.87L153.13,83.71L154.72,80.83L156.75,77.95L159.02,75.41L161.56,73.14L164.34,71.16L167.33,69.51L170.47,68.21L173.75,67.27L177.11,66.70L180.51,66.51L187.00,66.50L187.00,87.12L186.80,89.71L186.20,92.18L185.23,94.53L183.90,96.70L182.25,98.63L180.31,100.28L178.15,101.61L175.80,102.59L173.32,103.18L170.72,103.39L154.86,103.39"/><path d="M150.31,93.54L150.25,94.52"/><path d="M150.73,91.01L150.87,90.19"/><path d="M153.70,106.62L158.32,106.62"/><path d="M156.01,103.39L158.32,103.39"/><path d="M159.48,106.62L160.63,106.62"/><path d="M159.48,103.39L161.79,103.39"/><path d="M162.95,103.39L164.10,103.39"/><path d="M162.95,106.62L165.26,106.62"/><path d="M166.41,106.62L167.57,106.62"/><path d="M166.41,103.39L167.57,103.39"/><path d="M169.88,103.39L170.79,103.38L170.72,103.39L173.23,103.19"/><path d="M169.88,106.62L170.79,106.62L170.72,106.61L172.21,106.73"/><path d="M177.97,108.31L178.03,108.34"/></g><g style="stroke:#000000;stroke-width:0.529"><path d="M87.83,107.71L87.72,105.00L87.92,100.05L88.53,95.12L89.53,90.27L90.93,85.51L92.71,80.88L94.86,76.42L97.37,72.14L100.21,68.08L103.39,64.27L106.86,60.73L110.60,57.48L114.60,54.55L118.83,51.95L123.25,49.71L127.84,47.84L132.57,46.34L137.40,45.24L142.31,44.54L147.26,44.23L152.22,44.33L157.17,44.84L162.03,45.74L166.81,47.04L171.47,48.73L175.98,50.79L180.31,53.21L184.43,55.97L188.30,59.06L191.92,62.46L195.24,66.14L198.25,70.08L200.93,74.25L203.26,78.63L205.23,83.18L206.82,87.88L207.93,92.31L208.02,92.69L208.83,97.58L209.23,102.52L209.28,105.00L209.23,107.48L208.83,112.42L208.02,117.31L206.82,122.12L205.23,126.82L203.26,131.37L202.56,132.69L200.93,135.75L198.25,139.92L195.24,143.86L191.92,147.54L188.30,150.94L184.43,154.03L180.31,156.79L175.98,159.21L171.47,161.27L166.81,162.96L162.03,164.26L157.17,165.16L152.22,165.67L147.26,165.77L142.31,165.46L137.40,164.76L132.57,163.66L127.84,162.16L123.25,160.29L118.83,158.05L114.60,155.45L110.60,152.52L106.86,149.27L103.39,145.73L100.22,141.92L99.41,140.77L97.37,137.86L94.86,133.58L92.71,129.12L90.93,124.49L89.53,119.73L88.53,114.88L87.92,109.95L87.83,107.71"/></g></g><g/><g id="paperID" visibility="hidden" opacity="0.00" transform="scale(0.000100)"><path style="stroke:#000000;stroke-width:0.500;fill:#e6e6e6;fill-rule:evenodd" d="M-2000.00,-2000.00L2297.00,-2000.00L2297.00,2210.00L-2000.00,2210.00zM0.00,0.00L297.00,0.00L297.00,210.00L0.00,210.00z"/><path style="fill:#000000;fill-opacity:0.118" d="M3.00,210.00L297.00,210.00L297.00,3.00L300.00,3.00L300.00,213.00L3.00,213.00z"/></g><g id="ToolTip" visibility="hidden" opacity="0" transform="translate(0,0)"><rect id="ToolTipShadow" opacity="0.20" fill="black" stroke="none" x="0" y="0" width="30" height="8"/><rect id="ToolTipBG" fill="#ffffe1" stroke="black" x="0" y="0" width="30" height="8"/><text xml:space="preserve" id="ToolTipText" fill="black" x="0" y="0" width="30" height="8">tooltip</text></g></g></svg>
