<?xml version="1.0" encoding="UTF-8" standalone="no"?>
<svg xmlns="http://www.w3.org/2000/svg" xmlns:xlink="http://www.w3.org/1999/xlink" width="297.000mm" height="210.000mm" viewBox="0.000000 0.000000 297.000000 210.000000" stroke-linejoin="round" stroke-linecap="round" fill="none" fill-rule="evenodd"><desc>Composer Export</desc><script type="text/ecmascript"><![CDATA[
if(typeof(top) != "undefined")
{
	top.ShowPaper = ShowPaper;
}
function ShowHotSpot(evt,hotspotid)
{
	var svgDocument = evt.target.ownerDocument;
	var strId = "hotspot."+hotspotid;
	var hotspot = svgDocument.getElementById(strId);
	if(hotspot)
		hotspot.setAttribute("opacity",".5");
}
function HideHotSpot(evt,hotspotid)
{
	var svgDocument = evt.target.ownerDocument;
	var strId = "hotspot."+hotspotid;
	var hotspot = svgDocument.getElementById(strId);
	if(hotspot)
		hotspot.setAttribute("opacity","0");

	var toolTip = svgDocument.getElementById('ToolTip');
	if(toolTip)
		toolTip.setAttribute("visibility","hidden");
}
function ShowToolTip(evt,hotspotid,strTooltip)
{
	if(strTooltip=="")
	return;

	// change text
	var svgDocument = evt.target.ownerDocument;
	var tiptext = svgDocument.getElementById('ToolTipText');
	if( !tiptext )
	return;
	tiptext.firstChild.nodeValue = " " + strTooltip + "  " ;

	// show tooltip before, else some refresh issue

	var toolTip = svgDocument.getElementById('ToolTip');
	if(!toolTip)
	return;

	toolTip.setAttribute("visibility","visible");
	toolTip.setAttribute("opacity",".95");

	// move tooltip
	// get viewbox

	var root = svgDocument.documentElement;
	var vbox = (root.getAttribute("viewBox")).split(' ');
	var x0 = parseFloat(vbox[0]);
	var y0 = parseFloat(vbox[1]);
	var vboxW = parseFloat(vbox[2]);
	var vboxH = parseFloat(vbox[3]);

	// get default width of svg

	var strW = root.getAttribute("width");
	var svgW = parseFloat(strW);
	if(strW.indexOf('mm') != -1)
	svgW *= 3.779;

	var strH = root.getAttribute("height");
	var svgH = parseFloat(strH);
	if(strH.indexOf('mm') != -1)
	svgH *= 3.779;  	// 96 dpi  -> 96/25.4 = 3.779

	// update the viewbox / width / height if svg is embedded in html with zoom fit all
	var realx0 = x0;
	var realy0 = y0;
	var realvboxW = vboxW;
	var realvboxH = vboxH;
	var realsvgW = svgW;
	var realsvgH = svgH;

	if ((typeof(top) == "undefined") || (typeof(top.svgctl1) != "undefined")) // embedded in html
	{
		// get window size in pxl

		svgW = window.innerWidth;
		svgH = window.innerHeight;

		// calculate real viewbox

		realsvgW = svgW;
		realsvgH = svgH;
		if((svgW / svgH) > (vboxW / vboxH))
		{
			realvboxW = (vboxH * svgW) / svgH;
			realvboxH = vboxH;
			realx0 = x0 - (realvboxW - vboxW)/2 ;
		}
		else
		{
			realvboxH = (vboxW * svgH) / svgW;
			realvboxW = vboxW;
			realy0 = y0 - (realvboxH - vboxH)/2 ;
		}
	}

	// get user zoom/pan

	var newScale = root.currentScale;
	var translation = root.currentTranslate;

	// transform pxl to user unit

	var xPos = (((evt.clientX+10- translation.x)/newScale) * realvboxW)/realsvgW  + realx0 ;
	var yPos = (((evt.clientY+5- translation.y)/newScale) * realvboxH)/ realsvgH  + realy0 ;
	var scaleForWidth = ( (1 / newScale) * realvboxH) / realsvgH;

	// move tooltip

	toolTip.setAttribute("transform", "translate(" + xPos + "," + yPos + ")" );

	// resize tooltip

	var fontsize = 12;
	tiptext.setAttribute("font-size",fontsize*scaleForWidth);
	tiptext.setAttribute("y", fontsize*scaleForWidth);
	var tipBG = svgDocument.getElementById('ToolTipBG');
	var outline = tiptext.getBBox();
	if(tipBG)
	{
		tipBG.setAttribute("stroke-width", 1*scaleForWidth);
		tipBG.setAttribute("width", Number(outline.width) );
		tipBG.setAttribute("height", Number(outline.height) + fontsize*.5*scaleForWidth );
	}
	var ToolTipShadow = svgDocument.getElementById('ToolTipShadow');
	if(ToolTipShadow)
	{
		ToolTipShadow.setAttribute("width", Number(outline.width) );
		ToolTipShadow.setAttribute("height", Number(outline.height) + fontsize*.5*scaleForWidth );
		ToolTipShadow.setAttribute("x", 3*scaleForWidth);
		ToolTipShadow.setAttribute("y", 3*scaleForWidth);
	}
}
function ShowPaper()
{
  var svgDocument = getDocument();
  var paper = svgDocument.getElementById("paperID");
  if(paper)
  {
    paper.setAttribute("transform","scale(1)");
    paper.setAttribute("opacity","1");
    paper.setAttribute("visibility","visible");
  }
  var svg = svgDocument.getRootElement();
  if(svg)
  {
    svg.setAttribute("width","307.000mm");
    svg.setAttribute("height","220.000mm");
    svg.setAttribute("viewBox","-5.000000 -5.000000 307.000000 220.000000");
  }
}
]]></script><defs/><g><path style="fill:#000000;fill-opacity:0.098;fill-rule:evenodd" d="M158.09,32.82L164.11,33.89L170.84,35.66L176.51,37.78L181.12,39.91L187.14,43.27L192.10,46.64L196.88,50.53L201.50,55.12L202.91,56.72L205.40,59.55L208.91,64.35L212.66,70.55L212.66,70.96L212.49,70.92L208.76,64.68L205.21,59.91L202.03,56.18L199.90,53.88L197.96,52.11L196.35,50.53L191.41,46.62L186.78,43.45L181.47,40.44L175.62,37.78L170.13,35.84L164.11,34.24L158.27,33.18L153.13,32.65L144.75,32.65L140.15,33.00L135.37,33.71L129.88,34.95L124.08,36.77L118.07,39.26L113.58,41.50L107.97,44.92L102.31,49.17L97.89,53.09L94.71,56.45L93.65,57.70L90.63,61.41L86.82,66.98L84.01,71.96L81.23,78.04L79.45,82.99L77.86,88.84L76.74,94.81L76.09,101.77L76.09,108.27L76.63,114.29L77.51,119.60L78.92,125.28L80.69,130.59L83.00,136.08L86.01,141.74L89.57,147.21L92.92,151.48L94.71,153.59L97.18,156.25L101.61,160.32L106.39,164.04L111.00,167.05L114.52,169.02L114.49,169.19L114.17,169.21L111.53,167.75L106.57,164.57L101.97,161.03L97.18,156.78L96.30,155.72L94.35,153.77L93.47,152.71L89.40,147.56L85.84,142.09L83.17,137.32L80.52,131.12L78.57,125.28L77.16,119.60L76.27,114.29L75.92,110.22L75.92,99.83L76.39,94.81L77.51,88.84L79.10,82.99L81.23,77.16L83.55,72.04L86.64,66.63L90.45,61.05L93.73,57.07L95.77,54.86L97.11,53.37L101.60,49.35L103.13,48.05L107.62,44.74L113.11,41.38L118.42,38.73L124.08,36.42L129.88,34.60L135.37,33.36L142.10,32.47L144.93,32.29L153.13,32.29z"/><g id="Actor_.0"><g style="stroke:#000000;stroke-width:0.176"><path d="M76.57,116.17L76.23,114.13L75.71,108.05L75.71,101.95L76.23,95.87L77.24,89.85L78.76,83.95L80.77,78.18L83.25,72.61L86.19,67.26L89.56,62.18L93.35,57.40L97.53,52.95L102.06,48.87L106.92,45.18L112.07,41.91L117.48,39.08L123.11,36.72L128.91,34.83L134.85,33.44L140.88,32.55L146.98,32.17L153.07,32.29L159.14,32.93L165.14,34.07L171.01,35.72L176.73,37.84L182.25,40.44L187.54,43.49L192.54,46.97L197.25,50.86L201.61,55.13L205.59,59.75L209.18,64.69L212.34,69.90L215.05,75.37L217.30,81.04L219.06,86.88L220.33,92.85L221.09,98.90L221.35,105.00L221.09,111.10L220.33,117.15L219.06,123.12L217.30,128.96L215.05,134.63L212.34,140.10L209.18,145.31L205.59,150.25L201.61,154.87L197.25,159.14L192.54,163.03L187.54,166.51L182.25,169.56L176.73,172.16L171.01,174.28L165.14,175.93L159.14,177.07L153.07,177.71L146.98,177.83L140.88,177.45L134.85,176.56L128.91,175.17L123.11,173.28L117.48,170.92L112.07,168.09L106.92,164.82L102.06,161.13L97.53,157.05L93.35,152.60L89.56,147.82L86.19,142.74L83.25,137.39L80.77,131.82L78.76,126.05L77.24,120.15L76.57,116.17"/><path d="M76.56,114.09L76.05,108.04L76.05,101.96L76.56,95.91L77.58,89.92L79.09,84.04L81.08,78.31L83.55,72.76L86.48,67.44L89.84,62.38L93.61,57.62L97.77,53.20L102.28,49.13L107.12,45.46L112.25,42.21L117.63,39.39L123.23,37.04L129.00,35.16L134.91,33.78L140.92,32.89L146.98,32.51L153.05,32.63L159.09,33.27L165.06,34.41L170.91,36.04L176.60,38.16L182.09,40.74L187.35,43.78L192.34,47.25L197.02,51.12L201.36,55.36L205.32,59.96L208.89,64.87L212.04,70.07L214.74,75.51L216.95,81.09L218.73,86.97L219.99,92.91L220.75,98.93L221.01,105.00L220.75,111.07L219.99,117.09L218.73,123.03L216.98,128.85L214.74,134.49L212.04,139.93L208.89,145.13L205.32,150.04L201.36,154.64L197.02,158.88L192.34,162.75L187.35,166.22L182.09,169.26L176.60,171.84L170.91,173.96L165.06,175.59L159.09,176.73L153.05,177.37L146.98,177.49L140.92,177.11L134.91,176.22L129.00,174.84L123.23,172.96L117.63,170.61L112.25,167.79L107.12,164.54L102.28,160.87L97.77,156.80L93.61,152.38L89.84,147.62L86.48,142.56L83.55,137.24L81.08,131.69L79.09,125.96L77.58,120.08L76.56,114.09"/><path d="M146.48,153.06L146.49,151.99L146.48,153.06L138.39,153.06L134.15,152.82L130.02,152.12L125.86,150.94L121.93,149.31L118.21,147.25L114.73,144.79L111.56,141.95L108.72,138.78L106.26,135.31L104.20,131.58L102.57,127.65L101.39,123.56L100.68,119.37L100.44,115.12L100.44,107.02L100.93,107.02L100.44,107.02"/><path d="M100.93,107.02L103.25,107.02L102.09,107.02"/><path d="M120.69,102.98L146.49,102.99L146.49,95.14L146.24,90.64L145.52,86.44L144.35,82.35L142.72,78.42L140.66,74.70L138.20,71.22L135.36,68.05L132.19,65.22L128.72,62.76L125.00,60.70L121.07,59.07L117.18,57.95L116.98,57.89L112.78,57.18L108.54,56.94L100.44,56.94L100.44,82.74L100.69,85.91L101.43,88.99L102.64,91.93L104.30,94.63L106.37,97.05L108.78,99.11L111.38,100.70L114.42,101.99L117.51,102.73L120.81,102.99L120.66,102.98"/><path d="M104.41,107.02L103.25,107.02L105.57,107.02L104.41,107.02"/><path d="M105.57,107.02L109.05,107.02L107.89,107.02"/><path d="M109.05,107.02L111.38,107.02L110.21,107.02"/><path d="M111.38,107.02L112.54,107.02L111.38,107.02"/><path d="M112.54,107.02L113.70,107.02L112.54,107.02"/><path d="M113.70,107.02L116.02,107.02L114.86,107.02"/><path d="M116.02,107.02L126.46,107.04L126.34,107.01L125.30,107.02"/><path d="M120.81,102.99L121.82,102.99"/><path d="M122.98,102.99L124.14,102.99"/><path d="M146.49,151.99L146.49,127.62L146.43,126.46L146.25,124.14L145.49,121.01L144.27,118.07L142.61,115.37L140.55,112.95L138.14,110.89L135.43,109.23L132.49,108.01L129.41,107.27L126.46,107.04"/><path d="M128.78,107.22L129.50,107.26L132.57,108.00L135.49,109.21L138.18,110.86L140.59,112.91L142.64,115.32L144.29,118.01L145.50,120.93L146.24,124.00L146.25,124.14"/><path d="M133.42,102.99L134.58,102.99"/><path d="M136.90,102.99L138.06,102.99"/><path d="M139.22,102.99L141.54,102.99"/><path d="M146.49,150.83L146.49,149.67"/><path d="M146.49,141.55L146.49,140.39"/><path d="M146.49,136.91L146.49,135.75"/><path d="M146.49,133.43L146.49,132.27"/><path d="M146.34,125.30L146.49,127.16L146.49,129.94"/><path d="M146.49,102.10L146.49,100.94"/><path d="M146.49,95.14L146.43,93.98L146.49,94.93"/><path d="M146.37,92.82L146.24,90.64L146.25,90.70"/><path d="M150.52,151.99L150.52,153.06L150.52,149.67L150.52,150.83"/><path d="M150.52,153.06L158.62,153.06L162.87,152.82L167.06,152.11L171.15,150.93L175.08,149.30L178.81,147.24L182.27,144.78L185.45,141.95L188.28,138.78L190.75,135.30L192.80,131.58L194.43,127.65L195.61,123.56L196.32,119.37L196.56,115.12L196.56,107.02L170.76,107.02L167.59,107.27L164.51,108.01L161.57,109.23L158.86,110.89L156.45,112.95L154.39,115.37L152.73,118.07L151.51,121.01L150.77,124.09L150.52,127.26L150.52,149.67"/><path d="M150.52,143.87L150.52,142.71"/><path d="M150.52,136.91L150.52,135.75"/><path d="M150.52,131.10L150.52,132.27"/><path d="M150.52,128.78L150.51,127.16L150.76,124.00L151.50,120.93L152.71,118.01L154.36,115.32L156.41,112.91L158.82,110.86L161.51,109.21L164.43,108.00L167.50,107.26L168.22,107.22"/><path d="M160.10,102.99L161.26,102.99L150.51,102.99L150.52,94.88L150.57,93.98L150.52,95.14"/><path d="M150.57,93.98L150.70,91.66L150.64,92.82"/><path d="M150.70,91.66L150.79,90.50L150.70,91.66"/><path d="M150.75,90.70L150.76,90.64"/><path d="M150.79,90.50L151.48,86.44L152.65,82.35L154.28,78.42L156.34,74.70L158.80,71.22L161.64,68.05L164.81,65.22L168.28,62.76L172.00,60.70L175.93,59.07L180.02,57.89L184.22,57.18L188.47,56.94L196.56,56.94L196.56,82.66L196.31,85.91L195.57,88.99L194.35,91.93L192.70,94.63L190.63,97.05L188.22,99.11L185.51,100.77L182.58,101.99L179.49,102.73L176.19,102.99L161.26,102.99L162.42,102.99"/><path d="M163.58,102.99L164.74,102.99"/><path d="M167.06,102.99L165.90,102.99"/><path d="M170.54,107.04L170.66,107.01L171.70,107.02"/><path d="M175.18,107.02L177.50,107.02"/><path d="M176.19,102.99L176.32,102.98L175.18,102.99"/><path d="M176.32,102.98L176.34,102.98"/><path d="M187.95,107.02L183.30,107.02"/><path d="M190.27,107.02L191.43,107.02"/><path d="M193.75,107.02L192.59,107.02"/><path d="M196.56,107.02L196.07,107.02"/></g><g style="stroke:#000000;stroke-width:0.529"><path d="M73.03,112.54L72.87,111.19L72.61,105.00L72.87,98.81L73.62,92.67L74.88,86.61L76.62,80.67L78.84,74.89L81.53,69.31L84.66,63.97L88.22,58.91L92.17,54.15L96.51,49.72L101.19,45.67L106.18,42.01L111.45,38.77L116.98,35.97L122.71,33.63L128.61,31.77L134.65,30.39L140.77,29.51L146.95,29.13L153.14,29.26L159.30,29.89L165.39,31.02L171.36,32.64L177.18,34.74L182.81,37.32L188.22,40.34L193.35,43.79L198.09,47.57L202.70,51.89L206.85,56.49L210.61,61.40L213.96,66.61L216.87,72.07L219.33,77.76L221.31,83.62L222.81,89.63L223.82,95.73L224.32,101.91L224.39,105.00L224.32,108.09L223.82,114.27L222.81,120.37L221.31,126.38L219.33,132.24L216.87,137.93L216.18,139.23L213.96,143.39L210.61,148.60L206.85,153.51L202.70,158.11L198.20,162.35L193.35,166.21L188.22,169.66L182.81,172.68L177.18,175.26L171.36,177.36L165.39,178.98L159.30,180.11L153.14,180.74L146.95,180.87L140.77,180.49L134.65,179.61L128.61,178.23L122.71,176.37L116.99,174.03L116.02,173.54L111.45,171.23L106.18,167.99L101.19,164.33L96.51,160.28L92.17,155.85L88.22,151.09L84.66,146.03L81.53,140.69L78.84,135.11L76.62,129.33L74.88,123.39L73.62,117.33L73.03,112.54"/></g></g><g/><g id="paperID" visibility="hidden" opacity="0.00" transform="scale(0.000100)"><path style="stroke:#000000;stroke-width:0.500;fill:#e6e6e6;fill-rule:evenodd" d="M-2000.00,-2000.00L2297.00,-2000.00L2297.00,2210.00L-2000.00,2210.00zM0.00,0.00L297.00,0.00L297.00,210.00L0.00,210.00z"/><path style="fill:#000000;fill-opacity:0.118" d="M3.00,210.00L297.00,210.00L297.00,3.00L300.00,3.00L300.00,213.00L3.00,213.00z"/></g><g id="ToolTip" visibility="hidden" opacity="0" transform="translate(0,0)"><rect id="ToolTipShadow" opacity="0.20" fill="black" stroke="none" x="0" y="0" width="30" height="8"/><rect id="ToolTipBG" fill="#ffffe1" stroke="black" x="0" y="0" width="30" height="8"/><text xml:space="preserve" id="ToolTipText" fill="black" x="0" y="0" width="30" height="8">tooltip</text></g></g></svg>
