<svg version="1.0" xmlns="http://www.w3.org/2000/svg"
     width="500" height="750" viewBox="0 0 167.000000 248.000000"
     preserveAspectRatio="xMidYMid meet">
  <!-- Gradient Definition -->
  <defs>
    <radialGradient id="light-gradient" cx="0.5" cy="0.5" r="0.5" fx="0.3" fy="0.3">
      <stop offset="0%" stop-color="white" stop-opacity="1" />
      <stop offset="100%" stop-color="red" stop-opacity="0" />
    </radialGradient>

    <!-- Glow Filter -->
    <filter id="glow-filter" x="-50%" y="-50%" width="200%" height="200%">
      <feGaussianBlur in="SourceGraphic" stdDeviation="4" result="blur" />
      <feMerge>
        <feMergeNode in="blur" />
        <feMergeNode in="SourceGraphic" />
      </feMerge>
    </filter>
  </defs>

  <!-- Outer Border Path with Gradient Stroke -->
  <g transform="translate(0.000000,248.000000) scale(0.100000,-0.100000)"
     fill="none" stroke="url(#light-gradient)" stroke-width="10"
     filter="url(#glow-filter)">
    <path id="outer-border" d="M805 2367 c-18 -12 -55 -29 -280 -132 -44 -20 -115 -53 -157 -72
      l-78 -36 0 -67 0 -66 -45 -28 -45 -29 2 -291 3 -291 3 285 2 285 33 20 c17 11
      35 21 40 23 4 2 7 -154 7 -347 0 -219 4 -352 10 -356 6 -4 11 123 12 361 l3
      368 55 38 c30 21 62 44 70 51 9 7 42 31 75 52 33 22 62 42 65 46 3 3 37 27 75
      53 39 25 95 64 125 86 30 21 59 39 63 40 8 0 80 -47 240 -158 34 -23 89 -61
      122 -83 32 -22 62 -43 65 -47 3 -4 29 -23 58 -41 32 -20 52 -40 52 -51 0 -11
      5 -22 10 -25 6 -3 10 -1 10 4 0 18 23 12 53 -14 l27 -24 0 -308 c0 -277 -2
      -310 -18 -330 -9 -12 -26 -23 -37 -25 -19 -3 -20 4 -25 182 l-5 185 -6 -179
      c-4 -152 -8 -180 -22 -191 -21 -15 -22 -35 -2 -35 10 0 15 -10 15 -34 0 -19 5
      -38 10 -41 6 -4 10 10 10 34 0 36 3 41 23 41 12 0 31 -9 41 -21 16 -19 18 -46
      16 -327 l-1 -306 -32 -27 c-18 -15 -35 -25 -39 -22 -5 2 -8 25 -8 51 0 34 -3
      43 -10 32 -5 -8 -10 -35 -10 -60 l0 -45 -102 -74 c-274 -198 -414 -295 -429
      -294 -9 1 -56 30 -105 64 -49 34 -116 81 -149 104 -33 23 -87 61 -120 84 -33
      24 -84 59 -113 78 l-52 36 0 362 c0 354 0 363 20 368 11 3 20 10 20 16 0 7
      -27 11 -73 11 -61 0 -77 3 -92 20 -20 22 -64 27 -83 8 -15 -15 -15 -61 0 -76
      17 -17 67 -15 74 3 11 26 23 16 27 -22 l4 -38 1 38 c2 36 3 37 42 37 l40 0 0
      -350 c0 -246 -3 -350 -11 -350 -6 0 -23 9 -37 21 l-27 21 -5 281 -5 282 -3
      -286 -2 -285 45 -32 45 -32 0 -68 0 -68 73 -34 c39 -18 100 -46 134 -62 34
      -16 66 -29 70 -29 4 0 17 -6 28 -13 30 -19 244 -116 257 -116 6 0 54 21 107
      46 53 25 114 54 136 64 22 10 78 37 125 58 47 22 106 49 133 61 l47 21 0 65 0
      65 49 37 50 38 0 306 1 306 32 0 c39 0 68 33 68 79 0 28 -6 38 -32 54 -18 11
      -41 19 -50 16 -17 -4 -18 16 -18 307 l0 312 -50 33 -50 32 0 64 0 64 -50 21
      c-28 12 -87 39 -133 60 -45 22 -111 53 -147 69 -36 16 -99 46 -141 66 -85 40
      -96 42 -124 23z"/>
  </g>
</svg>
