<?xml version="1.0" encoding="UTF-8" standalone="no"?>
<svg xmlns="http://www.w3.org/2000/svg" xmlns:xlink="http://www.w3.org/1999/xlink" width="297.000mm" height="210.000mm" viewBox="0.000000 0.000000 297.000000 210.000000" stroke-linejoin="round" stroke-linecap="round" fill="none" fill-rule="evenodd"><desc>Composer Export</desc><script type="text/ecmascript"><![CDATA[
if(typeof(top) != "undefined")
{
	top.ShowPaper = ShowPaper;
}
function ShowHotSpot(evt,hotspotid)
{
	var svgDocument = evt.target.ownerDocument;
	var strId = "hotspot."+hotspotid;
	var hotspot = svgDocument.getElementById(strId);
	if(hotspot)
		hotspot.setAttribute("opacity",".5");
}
function HideHotSpot(evt,hotspotid)
{
	var svgDocument = evt.target.ownerDocument;
	var strId = "hotspot."+hotspotid;
	var hotspot = svgDocument.getElementById(strId);
	if(hotspot)
		hotspot.setAttribute("opacity","0");

	var toolTip = svgDocument.getElementById('ToolTip');
	if(toolTip)
		toolTip.setAttribute("visibility","hidden");
}
function ShowToolTip(evt,hotspotid,strTooltip)
{
	if(strTooltip=="")
	return;

	// change text
	var svgDocument = evt.target.ownerDocument;
	var tiptext = svgDocument.getElementById('ToolTipText');
	if( !tiptext )
	return;
	tiptext.firstChild.nodeValue = " " + strTooltip + "  " ;

	// show tooltip before, else some refresh issue

	var toolTip = svgDocument.getElementById('ToolTip');
	if(!toolTip)
	return;

	toolTip.setAttribute("visibility","visible");
	toolTip.setAttribute("opacity",".95");

	// move tooltip
	// get viewbox

	var root = svgDocument.documentElement;
	var vbox = (root.getAttribute("viewBox")).split(' ');
	var x0 = parseFloat(vbox[0]);
	var y0 = parseFloat(vbox[1]);
	var vboxW = parseFloat(vbox[2]);
	var vboxH = parseFloat(vbox[3]);

	// get default width of svg

	var strW = root.getAttribute("width");
	var svgW = parseFloat(strW);
	if(strW.indexOf('mm') != -1)
	svgW *= 3.779;

	var strH = root.getAttribute("height");
	var svgH = parseFloat(strH);
	if(strH.indexOf('mm') != -1)
	svgH *= 3.779;  	// 96 dpi  -> 96/25.4 = 3.779

	// update the viewbox / width / height if svg is embedded in html with zoom fit all
	var realx0 = x0;
	var realy0 = y0;
	var realvboxW = vboxW;
	var realvboxH = vboxH;
	var realsvgW = svgW;
	var realsvgH = svgH;

	if ((typeof(top) == "undefined") || (typeof(top.svgctl1) != "undefined")) // embedded in html
	{
		// get window size in pxl

		svgW = window.innerWidth;
		svgH = window.innerHeight;

		// calculate real viewbox

		realsvgW = svgW;
		realsvgH = svgH;
		if((svgW / svgH) > (vboxW / vboxH))
		{
			realvboxW = (vboxH * svgW) / svgH;
			realvboxH = vboxH;
			realx0 = x0 - (realvboxW - vboxW)/2 ;
		}
		else
		{
			realvboxH = (vboxW * svgH) / svgW;
			realvboxW = vboxW;
			realy0 = y0 - (realvboxH - vboxH)/2 ;
		}
	}

	// get user zoom/pan

	var newScale = root.currentScale;
	var translation = root.currentTranslate;

	// transform pxl to user unit

	var xPos = (((evt.clientX+10- translation.x)/newScale) * realvboxW)/realsvgW  + realx0 ;
	var yPos = (((evt.clientY+5- translation.y)/newScale) * realvboxH)/ realsvgH  + realy0 ;
	var scaleForWidth = ( (1 / newScale) * realvboxH) / realsvgH;

	// move tooltip

	toolTip.setAttribute("transform", "translate(" + xPos + "," + yPos + ")" );

	// resize tooltip

	var fontsize = 12;
	tiptext.setAttribute("font-size",fontsize*scaleForWidth);
	tiptext.setAttribute("y", fontsize*scaleForWidth);
	var tipBG = svgDocument.getElementById('ToolTipBG');
	var outline = tiptext.getBBox();
	if(tipBG)
	{
		tipBG.setAttribute("stroke-width", 1*scaleForWidth);
		tipBG.setAttribute("width", Number(outline.width) );
		tipBG.setAttribute("height", Number(outline.height) + fontsize*.5*scaleForWidth );
	}
	var ToolTipShadow = svgDocument.getElementById('ToolTipShadow');
	if(ToolTipShadow)
	{
		ToolTipShadow.setAttribute("width", Number(outline.width) );
		ToolTipShadow.setAttribute("height", Number(outline.height) + fontsize*.5*scaleForWidth );
		ToolTipShadow.setAttribute("x", 3*scaleForWidth);
		ToolTipShadow.setAttribute("y", 3*scaleForWidth);
	}
}
function ShowPaper()
{
  var svgDocument = getDocument();
  var paper = svgDocument.getElementById("paperID");
  if(paper)
  {
    paper.setAttribute("transform","scale(1)");
    paper.setAttribute("opacity","1");
    paper.setAttribute("visibility","visible");
  }
  var svg = svgDocument.getRootElement();
  if(svg)
  {
    svg.setAttribute("width","307.000mm");
    svg.setAttribute("height","220.000mm");
    svg.setAttribute("viewBox","-5.000000 -5.000000 307.000000 220.000000");
  }
}
]]></script><defs/><g><ellipse style="stroke:#ff0000;stroke-width:1.000;stroke-opacity:0.00" rx="64.22" ry="64.22" transform="translate(148.500 105.000) rotate(0.000)"/><path style="fill:#dbdbdb" d="M155.79,40.97L162.16,42.03L168.00,43.63L173.68,45.75L177.75,47.70L183.06,50.71L187.31,53.72L191.21,56.91L194.59,60.26L197.07,62.92L200.44,67.16L203.43,71.61L205.91,76.21L207.86,80.46L209.45,84.72L210.86,89.68L211.93,94.99L212.64,101.54L212.64,108.33L212.28,112.40L211.22,118.77L209.62,124.61L207.50,130.29L205.56,134.36L202.67,139.44L199.53,143.92L196.35,147.82L192.55,151.64L190.61,153.41L189.36,154.47L186.18,156.95L181.75,159.96L177.04,162.52L172.91,164.41L168.14,166.19L163.00,167.60L157.21,168.72L151.84,169.19L144.99,169.19L140.91,168.84L135.42,167.95L130.46,166.72L125.15,164.94L120.37,162.82L116.32,160.67L112.06,158.02L107.63,154.66L104.62,152.00L100.55,147.93L96.83,143.32L93.47,138.36L90.79,133.42L88.84,129.17L87.06,124.22L85.65,118.90L84.77,113.94L84.42,110.75L84.24,108.45L84.24,101.42L84.72,96.05L85.83,90.26L87.25,85.12L89.02,80.35L90.91,76.21L93.47,71.51L96.48,67.08L98.96,63.90L100.02,62.65L101.79,60.70L105.61,56.91L109.51,53.72L113.99,50.59L119.07,47.70L123.15,45.75L128.82,43.63L134.66,42.03L141.03,40.97L145.11,40.62L151.72,40.62z"/><path style="fill:#ffcf80" d="M153.12,43.15L153.28,42.72L153.47,42.71L153.60,43.34L156.32,43.63L162.68,44.75L162.84,44.33L163.22,44.32L163.36,44.92L166.95,45.93L171.37,47.54L172.01,47.51L172.22,47.31L172.43,47.33L172.61,48.06L175.45,49.29L180.41,51.97L180.68,51.95L180.88,51.76L181.30,51.77L181.32,52.00L181.12,52.21L181.10,52.47L184.12,54.44L186.96,56.56L188.21,57.63L188.65,57.61L188.87,57.41L189.09,57.43L189.08,58.31L190.32,59.39L194.04,63.11L195.30,64.54L195.56,64.52L195.77,64.32L196.00,64.34L195.99,65.40L198.14,68.05L201.08,72.38L201.85,72.31L201.88,72.55L201.44,72.84L202.74,75.31L205.56,81.00L206.27,80.99L206.31,81.22L205.85,81.54L206.61,83.83L208.69,90.26L209.30,90.40L209.29,90.59L208.84,90.90L209.45,94.28L210.14,99.43L210.29,99.81L210.71,99.95L210.89,100.20L210.28,100.48L210.28,109.56L210.71,109.69L210.89,109.94L210.29,110.23L210.14,110.61L209.63,114.88L208.92,118.42L208.92,119.24L209.29,119.46L209.30,119.64L208.69,119.79L207.86,122.49L205.85,128.50L206.31,128.82L206.27,129.05L205.64,128.99L204.32,131.70L201.42,137.13L201.88,137.49L201.85,137.73L201.08,137.66L198.83,141.09L195.99,144.64L196.00,145.71L195.65,145.63L195.39,145.45L192.11,148.90L189.08,151.73L189.09,152.61L188.75,152.54L188.55,152.35L188.32,152.34L185.56,154.56L181.04,157.66L181.32,158.05L181.30,158.28L180.77,158.19L180.60,158.04L177.32,159.79L172.61,161.98L172.43,162.71L172.11,162.64L171.90,162.44L171.50,162.45L168.66,163.53L163.36,165.13L163.22,165.73L162.84,165.72L162.68,165.29L158.92,166.01L153.60,166.71L153.47,167.33L153.28,167.32L153.12,166.89L143.88,166.89L143.72,167.32L143.53,167.33L143.40,166.71L138.08,166.01L134.32,165.29L134.16,165.72L133.78,165.73L133.64,165.13L128.34,163.53L125.50,162.45L125.10,162.44L124.89,162.64L124.57,162.71L124.46,162.09L119.68,159.79L116.49,158.03L116.23,158.19L115.70,158.28L115.77,157.93L115.96,157.66L111.53,154.66L108.68,152.34L108.45,152.35L108.25,152.54L107.91,152.61L107.99,151.83L105.33,149.34L103.03,147.04L102.14,145.98L101.61,145.45L101.35,145.63L101.00,145.71L101.09,144.75L98.05,140.86L95.92,137.66L95.15,137.73L95.22,137.39L95.58,137.13L92.74,131.82L91.36,128.99L90.73,129.05L90.78,128.71L91.15,128.50L89.19,122.63L88.31,119.79L87.70,119.64L87.71,119.46L88.16,119.14L87.43,115.00L86.90,110.75L86.71,110.23L86.17,110.03L86.17,109.75L86.72,109.56L86.72,100.48L86.17,100.29L86.17,100.01L86.71,99.81L86.90,99.30L87.55,94.28L88.16,90.90L87.71,90.59L87.70,90.40L88.31,90.26L90.21,84.36L91.15,81.54L90.78,81.33L90.73,80.99L91.44,81.00L94.33,75.21L95.56,72.84L95.22,72.66L95.15,72.31L95.92,72.38L98.96,67.97L101.09,65.29L101.00,64.34L101.23,64.32L101.44,64.52L101.70,64.54L102.96,63.11L106.68,59.39L107.99,58.21L107.91,57.43L108.13,57.41L108.35,57.61L108.79,57.63L110.04,56.56L112.88,54.44L115.96,52.39L115.77,52.11L115.70,51.77L116.12,51.76L116.32,51.95L116.59,51.97L121.55,49.29L124.46,47.95L124.57,47.33L124.78,47.31L124.99,47.51L125.63,47.54L130.05,45.93L133.64,44.92L133.78,44.32L134.16,44.33L134.32,44.75L139.26,43.81L143.40,43.34L143.53,42.71L143.72,42.72L143.88,43.15z"/><path style="fill:#dbdbdb" d="M152.42,50.71L152.42,52.36L151.66,61.76L152.07,61.77L153.07,50.70L155.44,50.89L160.58,51.76L160.94,51.96L160.94,52.35L158.62,61.92L158.58,62.84L158.78,62.83L159.15,61.74L161.45,52.17L161.98,52.11L163.94,52.66L169.08,54.44L169.10,54.65L164.98,64.59L164.94,64.95L165.34,64.95L169.55,54.78L169.77,54.76L172.97,56.20L176.71,58.32L176.71,58.56L171.18,67.59L171.14,68.14L171.35,68.14L177.18,58.67L177.38,58.65L178.98,59.75L183.45,63.09L183.62,63.52L176.68,71.69L176.62,72.03L177.02,72.03L184.07,63.79L184.30,63.79L188.02,67.36L189.80,69.38L181.40,76.59L181.40,76.98L181.75,76.93L189.62,70.25L190.16,69.83L192.29,72.48L194.77,76.04L194.71,76.38L185.47,82.07L185.47,82.47L185.84,82.44L195.13,76.74L196.70,79.40L198.81,83.90L188.47,88.28L188.47,88.48L189.21,88.44L199.01,84.37L200.24,87.73L201.49,92.02L190.66,94.69L190.61,95.04L191.91,94.86L201.68,92.52L202.19,95.16L202.86,100.48L191.72,101.43L191.67,101.77L195.28,101.60L202.90,101.00L203.08,103.84L202.90,109.05L193.16,108.27L191.67,108.27L191.72,108.62L202.75,109.50L202.91,109.65L202.54,112.75L201.68,117.53L191.21,115.00L190.61,115.00L190.66,115.35L201.49,118.02L200.42,121.97L199.01,125.67L189.09,121.54L188.47,121.56L188.47,121.76L198.81,126.15L197.94,128.16L195.22,133.25L194.93,133.27L185.71,127.54L185.47,127.57L185.47,127.97L194.61,133.57L194.77,134.00L192.98,136.66L190.25,140.16L189.99,140.16L181.64,133.03L181.40,133.06L181.40,133.46L189.80,140.66L187.59,143.14L184.41,146.18L183.96,146.18L177.02,138.01L176.62,138.01L176.68,138.35L183.62,146.52L183.62,146.76L181.75,148.28L177.49,151.31L177.18,151.37L171.35,141.90L171.14,141.90L171.18,142.46L176.51,151.13L176.71,151.73L173.52,153.51L171.02,154.73L169.55,155.27L165.34,145.09L164.94,145.09L164.98,145.46L168.54,153.96L169.08,155.60L166.06,156.67L162.12,157.87L161.45,157.87L158.99,147.58L158.78,147.21L158.58,147.21L158.62,148.12L160.21,154.85L160.94,158.08L160.72,158.24L156.85,158.98L153.07,159.34L152.07,148.27L151.66,148.28L152.25,155.38L152.42,159.33L152.03,159.47L144.79,159.47L144.58,159.33L144.75,155.38L145.34,148.28L144.93,148.27L143.93,159.34L141.44,159.10L138.08,158.57L136.28,158.24L136.06,158.08L136.79,154.85L138.43,148.00L138.42,147.21L138.22,147.21L138.06,147.44L135.55,157.87L134.88,157.87L131.17,156.80L127.92,155.60L128.51,153.84L132.09,145.33L132.06,145.09L131.66,145.09L127.45,155.27L126.22,154.85L123.58,153.59L120.36,151.83L120.35,151.36L125.88,142.33L125.86,141.90L125.65,141.90L119.82,151.37L119.51,151.31L115.25,148.28L113.46,146.86L113.46,146.42L120.40,138.24L120.38,138.01L119.98,138.01L113.04,146.18L112.59,146.18L109.41,143.14L107.20,140.66L115.60,133.46L115.60,133.06L115.36,133.03L107.01,140.16L106.75,140.16L104.10,136.76L102.30,134.11L102.29,133.66L111.53,127.97L111.53,127.57L111.29,127.54L102.07,133.27L101.78,133.25L99.11,128.29L98.19,126.15L108.53,121.76L108.53,121.56L107.91,121.54L98.07,125.69L97.69,124.92L96.27,120.86L95.51,118.02L106.34,115.35L106.39,115.00L105.79,115.00L95.39,117.54L94.51,112.87L94.14,109.57L105.28,108.62L105.33,108.27L103.84,108.27L94.10,109.05L93.92,103.84L94.10,101.00L103.72,101.72L105.33,101.77L105.36,101.54L105.16,101.34L94.14,100.48L94.81,95.16L95.39,92.50L105.66,94.99L106.39,95.04L106.43,94.81L106.22,94.62L95.51,92.02L96.76,87.73L97.99,84.37L107.79,88.44L108.53,88.48L108.53,88.28L103.54,86.13L98.39,84.01L98.17,83.82L101.19,77.81L101.87,76.74L111.16,82.44L111.53,82.47L111.53,82.07L102.29,76.38L102.30,75.94L104.71,72.48L106.84,69.83L107.62,70.37L115.25,76.93L115.60,76.98L115.60,76.59L107.26,69.47L107.26,69.20L110.29,66.02L112.41,64.06L112.70,63.79L112.93,63.79L119.98,72.03L120.38,72.03L120.40,71.80L113.46,63.62L113.46,63.18L117.71,59.97L119.62,58.65L119.82,58.67L125.65,68.14L125.86,68.14L125.88,67.72L120.35,58.68L120.36,58.22L124.03,56.20L127.23,54.76L127.45,54.78L131.66,64.95L132.06,64.95L132.09,64.71L127.96,54.78L127.92,54.44L133.06,52.66L135.44,52.09L135.62,52.29L137.90,61.87L138.22,62.83L138.42,62.84L138.43,62.04L136.12,52.48L136.06,51.96L136.42,51.76L141.56,50.89L143.93,50.70L144.93,61.77L145.34,61.76L144.63,52.48L144.58,50.71L144.92,50.52L151.90,50.53z"/><path style="fill:#ffcf80" d="M151.54,69.31L152.60,70.02L153.50,70.88L154.37,72.14L155.01,73.84L154.95,74.40L154.02,72.14L152.80,70.52L150.83,69.31L149.77,68.95L148.53,68.78L146.52,68.95L145.87,69.18L144.45,69.89L143.14,71.06L142.15,72.37L141.39,74.62L138.56,75.69L131.64,75.85L131.28,76.02L130.99,76.61L130.82,83.71L129.58,87.78L126.14,87.89L125.67,88.48L125.68,97.11L126.03,99.07L126.60,100.32L126.57,100.55L126.24,100.48L124.45,99.59L123.56,99.42L121.55,99.59L120.90,99.82L119.14,100.90L117.99,102.58L117.53,103.89L117.53,106.15L117.90,107.37L118.96,108.97L119.85,109.67L121.49,110.51L120.95,110.56L119.32,109.67L118.06,108.27L117.35,106.69L117.18,105.61L117.18,104.43L117.48,102.96L118.43,101.25L119.86,100.02L121.02,99.41L121.73,99.24L124.27,99.24L125.32,99.60L125.86,99.66L125.50,98.18L125.51,88.14L126.32,87.54L129.40,87.43L130.65,83.36L130.81,76.26L131.29,75.68L131.64,75.50L138.74,75.34L141.10,74.34L141.92,72.14L143.14,70.53L144.57,69.48L146.17,68.78L146.88,68.60L149.60,68.59z"/><path style="fill:#4c4c4c" d="M149.77,68.95L150.83,69.31L152.80,70.52L154.02,72.14L154.95,74.40L155.02,74.68L157.73,75.69L164.83,75.85L165.36,76.56L165.52,83.66L166.77,87.73L170.15,87.89L170.68,88.42L170.77,97.22L170.68,97.58L170.59,98.29L170.51,98.48L170.30,98.93L170.25,99.48L170.61,99.44L171.31,99.06L172.03,98.88L174.74,98.88L175.80,99.24L177.04,99.95L178.46,101.36L179.54,103.78L179.62,103.97L179.63,105.91L179.36,106.78L179.24,107.29L178.64,108.33L177.61,109.64L176.77,110.31L174.62,111.26L171.96,111.22L171.90,111.11L171.25,111.05L170.48,110.54L170.25,110.57L170.29,111.12L170.54,111.56L170.72,112.46L170.76,121.50L170.02,122.25L166.82,122.33L166.43,123.43L166.30,123.97L166.18,124.04L166.15,124.49L165.90,125.20L165.77,125.74L165.65,125.81L165.62,126.26L165.54,126.45L165.45,133.35L165.37,133.48L164.71,134.29L157.79,134.37L155.03,135.36L154.91,135.64L154.82,136.18L154.20,137.55L153.31,138.96L152.29,139.93L151.79,140.24L149.65,141.19L148.58,141.29L147.71,141.29L145.87,140.86L144.45,140.15L142.70,138.54L141.97,137.32L141.46,135.53L140.91,135.19L138.98,134.47L138.50,134.41L138.44,134.31L131.51,134.14L131.18,133.94L130.99,133.43L130.82,126.33L129.58,122.26L126.04,122.08L125.67,121.56L125.68,112.93L126.03,110.97L126.60,109.73L126.57,109.50L126.35,109.48L125.76,109.93L124.32,110.54L123.61,110.65L122.56,110.65L121.49,110.51L119.85,109.67L118.96,108.97L117.90,107.37L117.53,106.15L117.53,103.89L117.99,102.58L119.14,100.90L120.90,99.82L121.55,99.59L123.56,99.42L124.45,99.59L126.24,100.48L126.57,100.55L126.60,100.32L126.03,99.07L125.68,97.11L125.67,88.48L126.14,87.89L129.58,87.78L130.82,83.71L130.99,76.61L131.28,76.02L131.64,75.85L138.56,75.69L141.39,74.62L142.15,72.37L143.14,71.06L144.45,69.89L145.87,69.18L146.52,68.95L148.53,68.78z"/><path style="fill:#e5ba73" d="M171.96,111.40L171.43,111.26L171.96,111.22z"/><path style="fill:#ffcf80" d="M150.30,70.55L151.54,71.25L152.62,72.48L153.31,73.74L153.67,75.50L157.20,76.93L163.94,77.09L164.10,83.66L165.70,88.97L169.26,89.13L169.25,97.88L169.02,98.53L168.13,100.30L166.78,101.78L166.70,102.49L169.19,102.42L169.97,101.43L171.32,100.47L172.55,100.12L174.21,100.12L175.62,100.66L176.85,101.56L177.60,102.58L178.11,103.84L178.11,106.21L177.75,107.26L176.99,108.28L175.93,109.16L174.34,109.87L172.43,109.87L171.21,109.50L169.62,108.26L169.09,107.54L166.70,107.56L166.78,108.27L167.32,108.78L168.36,110.04L169.25,112.16L169.26,120.91L165.70,121.07L164.10,126.38L163.94,132.95L157.32,133.05L153.67,134.54L153.49,135.78L152.96,137.02L152.00,138.36L150.75,139.24L149.19,139.80L147.10,139.80L145.86,139.45L144.29,138.37L143.38,137.15L142.86,135.55L142.69,134.48L138.97,133.06L132.35,132.95L132.24,126.33L130.65,121.19L130.49,121.00L127.03,120.91L127.09,112.39L127.75,110.39L128.97,108.78L129.60,108.35L129.59,107.55L126.50,107.55L125.88,108.17L124.91,108.80L123.86,109.16L122.14,109.16L121.08,108.80L119.85,107.90L119.32,107.20L118.94,106.16L118.94,103.89L119.40,102.76L120.31,101.72L121.55,101.00L122.26,100.83L123.73,100.83L124.45,101.00L125.51,101.54L126.39,102.42L129.59,102.49L129.60,101.70L128.53,100.82L127.62,99.42L127.09,97.65L127.03,89.13L130.59,88.97L132.24,83.71L132.35,77.09L139.10,76.93L142.69,75.56L143.03,73.78L143.67,72.47L144.58,71.43L145.99,70.54L147.23,70.19L149.06,70.19z"/><path style="fill:#ffcf80" d="M157.55,75.34L164.65,75.50L165.54,76.20L165.70,83.31L166.94,87.37L169.97,87.54L170.66,87.91L170.95,88.72L170.95,96.88L170.86,97.23L170.77,97.22L170.68,88.42L170.15,87.89L166.77,87.73L165.52,83.66L165.36,76.56L164.83,75.85L157.73,75.69L155.02,74.68L154.95,74.40L155.12,74.36z"/><path style="fill:#ffcf80" d="M170.73,98.29L170.59,98.29L170.68,97.58z"/><path style="fill:#ffcf80" d="M176.15,99.06L177.93,100.29L178.66,101.16L179.35,102.42L179.63,103.43L179.54,103.78L178.46,101.36L177.04,99.95L175.80,99.24L174.74,98.88L172.03,98.88L171.31,99.06L170.61,99.44L170.25,99.48L170.30,98.93L170.51,98.48L170.66,98.94L170.76,98.85L172.02,98.52L174.57,98.52z"/><path style="fill:#ffcf80" d="M179.80,104.48L179.80,105.56L179.72,105.92L179.63,105.91L179.62,103.97L179.72,103.95z"/><path style="fill:#ffcf80" d="M179.41,107.33L179.24,107.29L179.36,106.78z"/><path style="fill:#ffcf80" d="M177.67,109.80L177.09,110.36L176.77,110.31L177.61,109.64z"/><path style="fill:#ffcf80" d="M171.25,111.05L170.66,110.92L170.54,111.56L170.29,111.12L170.25,110.57L170.48,110.54z"/><path style="fill:#ffcf80" d="M124.33,110.70L123.61,110.65L124.32,110.54z"/><path style="fill:#ffcf80" d="M174.63,111.40L171.96,111.40L171.96,111.22L174.62,111.26z"/><path style="fill:#ffcf80" d="M170.76,111.74L170.72,112.46L170.54,111.56L170.67,111.56z"/><path style="fill:#ffcf80" d="M170.95,113.16L170.95,121.33L170.87,121.51L170.76,121.50L170.72,112.46L170.86,112.47z"/><path style="fill:#ffcf80" d="M170.03,122.38L166.82,122.33L170.02,122.25z"/><path style="fill:#ffcf80" d="M166.48,123.97L166.30,123.97L166.43,123.43z"/><path style="fill:#ffcf80" d="M166.30,124.51L166.15,124.49L166.18,124.04L166.30,123.97z"/><path style="fill:#ffcf80" d="M165.95,125.74L165.77,125.74L165.90,125.20z"/><path style="fill:#ffcf80" d="M165.77,126.28L165.62,126.26L165.65,125.81L165.77,125.74z"/><path style="fill:#ffcf80" d="M165.63,126.80L165.56,133.37L165.45,133.35L165.54,126.45z"/><path style="fill:#ffcf80" d="M164.72,134.43L157.79,134.37L164.71,134.29z"/><path style="fill:#ffcf80" d="M154.97,136.20L154.82,136.18L154.91,135.64z"/><path style="fill:#ffcf80" d="M152.35,140.08L152.12,140.30L151.79,140.24L152.29,139.93z"/><path style="fill:#ffcf80" d="M149.66,141.33L148.58,141.29L149.65,141.19z"/><path style="fill:#dbdbdb" d="M152.96,43.80L152.96,45.63L152.61,50.07L144.39,50.07L144.10,45.75L144.04,43.80L149.94,43.63z"/><path style="fill:#dbdbdb" d="M156.67,44.16L162.54,45.22L162.53,45.62L161.09,51.30L159.33,51.07L155.08,50.36L153.47,50.20L153.07,50.05L153.58,43.81z"/><path style="fill:#dbdbdb" d="M143.93,50.05L143.53,50.20L141.92,50.36L138.43,50.94L135.91,51.30L134.53,45.75L134.46,45.22L138.91,44.34L143.42,43.81z"/><path style="fill:#dbdbdb" d="M167.66,46.63L171.71,48.22L169.41,53.96L168.89,53.91L165.00,52.48L161.80,51.61L161.81,50.58L163.05,45.44L163.23,45.40z"/><path style="fill:#dbdbdb" d="M134.01,45.55L135.24,50.71L135.20,51.61L132.00,52.48L128.11,53.91L127.59,53.96L125.29,48.22L129.34,46.63L133.87,45.39z"/><path style="fill:#dbdbdb" d="M175.45,49.83L180.26,52.47L180.25,52.71L177.15,57.80L176.87,57.82L172.97,55.67L169.89,54.30L169.94,53.77L172.19,48.42z"/><path style="fill:#dbdbdb" d="M127.12,53.90L127.11,54.30L124.03,55.67L120.13,57.82L119.85,57.80L116.81,52.83L116.82,52.37L121.55,49.83L124.81,48.42z"/><path style="fill:#dbdbdb" d="M183.06,54.26L188.21,58.13L184.13,62.98L180.05,59.93L177.57,58.32L177.55,58.03L180.77,52.88L180.95,52.83z"/><path style="fill:#dbdbdb" d="M116.32,52.97L119.49,58.24L116.42,60.28L112.95,63.00L108.79,58.13L113.94,54.26L116.14,52.83z"/><path style="fill:#dbdbdb" d="M189.62,59.39L193.53,63.27L194.94,64.95L190.43,68.96L190.16,68.96L188.04,66.81L187.16,65.74L185.91,64.69L184.65,63.45L184.65,63.00L188.57,58.49z"/><path style="fill:#dbdbdb" d="M112.25,62.91L112.42,63.34L111.62,64.15L110.04,65.59L106.84,68.96L106.57,68.96L102.12,65.04L102.12,64.77L105.33,61.41L107.38,59.39L108.50,58.51z"/><path style="fill:#dbdbdb" d="M105.32,68.42L106.39,69.47L104.45,72.04L101.76,75.92L101.43,75.88L96.45,72.84L96.46,72.39L99.22,68.41L101.56,65.40L101.77,65.38z"/><path style="fill:#dbdbdb" d="M197.78,68.41L200.45,72.30L200.63,72.73L195.82,75.74L195.24,75.92L192.65,72.12L190.61,69.47L191.92,68.30L195.23,65.38L195.44,65.40z"/><path style="fill:#dbdbdb" d="M203.10,76.90L205.05,81.00L204.97,81.34L199.37,83.72L196.17,77.45L195.80,76.93L195.81,76.28L200.98,73.20z"/><path style="fill:#dbdbdb" d="M101.27,76.38L101.26,76.80L100.18,78.75L97.71,83.70L92.03,81.34L92.01,80.88L93.98,76.80L96.02,73.20z"/><path style="fill:#dbdbdb" d="M97.51,84.17L96.63,86.54L95.04,91.87L89.36,90.57L88.96,90.43L89.01,89.72L90.38,85.25L91.63,81.87L92.03,81.86z"/><path style="fill:#dbdbdb" d="M206.62,85.25L208.04,89.85L208.04,90.43L207.64,90.57L201.96,91.87L200.42,86.66L199.49,84.17L204.97,81.86L205.37,81.87z"/><path style="fill:#dbdbdb" d="M93.98,92.16L94.88,92.47L94.33,95.40L93.64,100.36L87.36,100.01L87.73,96.05L88.78,90.93z"/><path style="fill:#dbdbdb" d="M209.27,96.05L209.64,100.01L203.36,100.36L202.72,95.52L202.17,92.39L208.22,90.93z"/><path style="fill:#dbdbdb" d="M93.46,101.00L93.46,109.04L92.68,109.15L87.37,109.57L87.25,108.98L87.25,101.06L87.37,100.47L87.96,100.47z"/><path style="fill:#dbdbdb" d="M209.80,101.19L209.80,108.86L209.63,109.57L204.32,109.15L203.54,109.04L203.54,101.00L206.74,100.65L209.63,100.47z"/><path style="fill:#dbdbdb" d="M209.47,110.02L209.65,110.20L209.27,113.99L208.22,119.11L202.17,117.66L203.08,112.22L203.36,109.68z"/><path style="fill:#dbdbdb" d="M93.98,112.34L94.83,117.66L88.84,119.13L88.49,117.83L87.78,114.11L87.35,110.20L87.53,110.02L93.64,109.68z"/><path style="fill:#dbdbdb" d="M208.04,119.61L208.04,120.19L206.97,123.91L205.37,128.17L204.84,128.12L199.68,125.99L199.48,125.80L201.13,121.25L201.96,118.17L202.35,118.17z"/><path style="fill:#dbdbdb" d="M95.56,120.15L97.51,125.87L92.16,128.12L91.63,128.17L90.07,124.04L89.01,120.33L88.96,119.61L94.65,118.17L95.04,118.17z"/><path style="fill:#dbdbdb" d="M203.25,127.93L205.05,128.80L205.05,129.04L203.37,132.53L201.06,136.79L200.77,136.81L195.81,133.77L195.80,133.11L198.24,128.64L199.37,126.33z"/><path style="fill:#dbdbdb" d="M98.76,128.64L101.26,133.24L101.27,133.66L96.23,136.81L95.94,136.79L93.63,132.53L92.01,129.17L92.03,128.70L97.71,126.34z"/><path style="fill:#dbdbdb" d="M200.63,137.31L200.62,137.54L198.60,140.51L195.44,144.64L195.13,144.59L190.67,140.66L190.68,140.40L193.68,136.48L195.24,134.12L195.45,134.10z"/><path style="fill:#dbdbdb" d="M103.39,136.58L106.38,140.49L105.32,141.62L101.88,144.59L101.56,144.64L98.40,140.51L96.46,137.65L96.45,137.21L101.55,134.10L101.76,134.12z"/><path style="fill:#dbdbdb" d="M193.87,144.04L194.94,145.09L194.22,146.05L191.49,148.81L188.57,151.55L184.65,147.04L184.65,146.59L187.84,143.57L189.28,141.99L190.34,141.03z"/><path style="fill:#dbdbdb" d="M108.34,142.61L109.23,143.68L112.25,146.50L112.42,146.93L108.50,151.53L106.57,149.87L102.85,146.15L102.06,145.09L103.37,143.92L106.75,141.03z"/><path style="fill:#dbdbdb" d="M115.60,149.17L119.49,151.81L116.23,157.16L115.96,157.15L111.89,154.30L108.85,152.00L108.85,151.73L109.86,150.60L112.95,147.04z"/><path style="fill:#dbdbdb" d="M188.21,151.92L185.11,154.30L181.04,157.15L180.77,157.16L177.51,151.81L181.48,149.07L184.13,147.06z"/><path style="fill:#dbdbdb" d="M179.87,156.62L180.26,157.57L176.97,159.43L172.27,161.64L171.73,160.52L169.94,156.27L169.89,155.74L173.87,153.86L177.07,152.18z"/><path style="fill:#dbdbdb" d="M123.22,153.94L127.11,155.74L127.12,156.14L124.81,161.62L123.03,160.87L118.77,158.75L116.82,157.67L116.81,157.21L119.93,152.18z"/><path style="fill:#dbdbdb" d="M130.28,156.98L135.09,158.37L135.27,158.54L135.24,159.33L133.95,164.60L131.69,164.07L128.33,163.00L125.48,161.93L125.27,161.75L127.59,156.08L127.98,156.06z"/><path style="fill:#dbdbdb" d="M171.71,161.83L168.01,163.22L165.70,163.92L163.05,164.60L161.81,159.46L161.80,158.44L166.72,156.98L169.02,156.06L169.41,156.08z"/><path style="fill:#dbdbdb" d="M139.32,159.28L143.39,159.80L143.93,160.00L143.42,166.23L138.79,165.65L134.46,164.82L135.76,159.14L135.91,158.74L136.48,158.74z"/><path style="fill:#dbdbdb" d="M161.16,158.86L162.54,164.82L159.10,165.47L153.66,166.25L153.49,165.12L153.07,160.00L153.61,159.80L157.68,159.28L160.52,158.74L161.09,158.74z"/><path style="fill:#dbdbdb" d="M152.61,159.98L152.78,162.11L152.96,166.25L150.07,166.36L146.93,166.36L144.04,166.25L144.22,162.11L144.39,159.98z"/><path style="fill:#1a1a1a" d="M150.30,70.90L151.18,71.43L152.25,72.50L153.14,74.26L153.30,75.52L153.50,75.85L157.20,77.28L163.59,77.45L163.75,83.66L165.48,89.37L169.08,89.49L169.07,96.46L168.90,97.88L168.67,98.53L167.83,100.18L166.42,101.60L166.35,102.84L169.37,102.78L170.30,101.59L171.31,100.82L172.55,100.47L174.03,100.48L175.10,100.83L176.72,101.86L177.57,103.31L177.94,104.91L177.57,106.73L176.72,108.18L175.21,109.15L174.16,109.51L172.43,109.52L171.20,109.15L169.95,108.10L169.27,107.19L166.35,107.20L166.42,108.44L167.14,109.14L168.19,110.40L168.90,112.16L169.07,113.58L169.08,120.55L165.48,120.67L163.75,126.38L163.59,132.60L157.32,132.70L153.60,134.12L153.30,134.52L153.14,135.79L152.78,136.66L152.09,137.75L150.75,138.89L149.19,139.44L147.11,139.44L145.89,139.07L144.47,138.01L143.76,137.13L143.21,135.91L143.04,134.30L138.97,132.71L132.70,132.60L132.59,126.33L130.82,120.67L127.39,120.55L127.44,112.21L128.08,110.55L129.15,109.14L129.93,108.50L129.94,107.20L126.32,107.19L124.92,108.45L123.86,108.81L122.14,108.81L121.42,108.64L120.03,107.55L119.48,106.68L119.30,106.15L119.30,103.89L119.94,102.58L121.20,101.54L122.26,101.19L123.73,101.19L125.15,101.71L126.22,102.78L129.94,102.84L129.93,101.54L128.71,100.46L128.00,99.40L127.44,97.83L127.39,89.49L130.82,89.37L132.59,83.71L132.70,77.45L139.10,77.29L143.04,75.74L143.21,74.14L143.84,72.83L144.93,71.61L146.39,70.77L147.23,70.55L149.06,70.55z"/><path style="fill:#e5ba73" d="M155.12,74.36L154.95,74.40L155.01,73.84z"/><path style="fill:#e5ba73" d="M170.95,96.88L170.95,88.72L171.02,88.79z"/><path style="fill:#e5ba73" d="M170.83,98.23L170.73,98.29L170.68,97.58L170.77,97.22L170.86,97.23z"/><path style="fill:#e5ba73" d="M170.76,98.85L170.66,98.94L170.51,98.48L170.59,98.29L170.73,98.29z"/><path style="fill:#e5ba73" d="M179.72,103.95L179.62,103.97L179.54,103.78L179.63,103.43L179.71,103.49z"/><path style="fill:#e5ba73" d="M179.80,105.56L179.80,104.48L179.87,104.55z"/><path style="fill:#e5ba73" d="M179.76,106.10L179.41,107.33L179.36,106.78L179.63,105.91L179.72,105.92z"/><path style="fill:#e5ba73" d="M179.11,108.09L178.04,109.69L177.67,109.80L177.61,109.64L178.64,108.33L179.24,107.29L179.41,107.33z"/><path style="fill:#e5ba73" d="M125.90,110.33L125.44,110.38L125.10,110.58L124.33,110.70L124.32,110.54L125.76,109.93L126.03,110.02z"/><path style="fill:#e5ba73" d="M121.48,110.65L120.95,110.56L121.49,110.51z"/><path style="fill:#e5ba73" d="M124.27,110.80L121.67,110.73L122.56,110.65L123.61,110.65L124.33,110.70z"/><path style="fill:#e5ba73" d="M171.25,111.05L171.24,111.17L170.79,111.28L170.67,111.56L170.54,111.56L170.66,110.92z"/><path style="fill:#e5ba73" d="M176.26,110.91L174.63,111.40L174.62,111.26L176.77,110.31L177.09,110.36z"/><path style="fill:#e5ba73" d="M174.56,111.51L172.03,111.51L171.96,111.40L174.63,111.40z"/><path style="fill:#e5ba73" d="M170.86,112.47L170.72,112.46L170.76,111.74L170.85,111.81z"/><path style="fill:#e5ba73" d="M170.95,121.33L170.95,113.16L171.01,113.23z"/><path style="fill:#e5ba73" d="M170.66,122.13L170.03,122.38L170.02,122.25L170.76,121.50L170.87,121.51z"/><path style="fill:#e5ba73" d="M129.43,122.55L126.26,122.43L129.41,122.44z"/><path style="fill:#e5ba73" d="M169.96,122.49L167.04,122.59L166.48,123.97L166.43,123.43L166.82,122.33L170.03,122.38z"/><path style="fill:#e5ba73" d="M166.30,124.51L166.30,123.97L166.48,123.97z"/><path style="fill:#e5ba73" d="M165.95,125.74L165.90,125.20L166.15,124.49L166.30,124.51z"/><path style="fill:#e5ba73" d="M165.77,126.28L165.77,125.74L165.95,125.74z"/><path style="fill:#e5ba73" d="M165.63,126.80L165.54,126.45L165.62,126.26L165.77,126.28z"/><path style="fill:#e5ba73" d="M165.55,133.84L165.20,134.21L164.72,134.43L164.71,134.29L165.37,133.48L165.45,133.35L165.56,133.37z"/><path style="fill:#e5ba73" d="M138.49,134.56L131.57,134.47L138.50,134.41z"/><path style="fill:#e5ba73" d="M164.65,134.53L157.67,134.65L155.36,135.53L154.97,136.20L154.91,135.64L155.03,135.36L157.79,134.37L164.72,134.43z"/><path style="fill:#e5ba73" d="M154.91,136.67L154.12,138.36L152.80,139.88L152.35,140.08L152.29,139.93L153.31,138.96L154.20,137.55L154.82,136.18L154.97,136.20z"/><path style="fill:#e5ba73" d="M151.67,140.69L149.66,141.33L149.65,141.19L151.79,140.24L152.12,140.30z"/><path style="fill:#e5ba73" d="M149.59,141.44L146.81,141.37L147.71,141.29L148.58,141.29L149.66,141.33z"/><path style="fill:#ffcf80" d="M149.43,45.03L150.31,46.10L150.26,47.54L148.63,49.30L148.37,49.30L146.74,47.54L146.74,45.97L148.46,44.15z"/><path style="fill:#ffcf80" d="M139.32,45.04L140.94,46.43L141.28,47.17L141.28,47.76L141.09,48.29L139.96,50.01L139.51,50.01L137.91,48.75L137.53,47.88L137.54,47.23L137.82,46.43L138.98,44.86z"/><path style="fill:#ffcf80" d="M159.33,46.64L159.52,47.75L159.16,48.65L157.49,50.01L157.04,50.01L155.96,48.42L155.78,47.89L155.78,47.04L156.15,46.35L157.68,45.04L158.10,44.88z"/><path style="fill:#ffcf80" d="M168.37,49.29L168.37,50.07L167.86,50.97L165.72,52.19L164.63,50.01L164.63,49.16L165.01,48.48L166.00,47.70L167.07,47.15L167.31,47.14z"/><path style="fill:#ffcf80" d="M131.35,47.87L132.08,48.56L132.42,49.30L132.42,49.88L131.36,52.17L129.24,51.05L128.69,50.19L128.68,49.16L129.69,47.14L129.93,47.15z"/><path style="fill:#ffcf80" d="M121.96,51.07L123.41,51.75L123.92,52.65L123.91,53.61L123.32,55.32L122.66,55.33L121.09,54.78L120.36,53.91L120.13,53.02L120.90,50.70z"/><path style="fill:#ffcf80" d="M176.87,53.02L176.69,53.78L176.01,54.69L174.34,55.33L173.68,55.32L173.14,53.73L173.14,52.53L173.69,51.66L176.10,50.70z"/><path style="fill:#ffcf80" d="M114.71,56.01L115.62,56.53L116.13,57.43L115.96,59.64L115.76,59.98L113.81,59.75L113.12,59.38L112.58,58.85L112.57,56.43L112.69,55.85z"/><path style="fill:#ffcf80" d="M184.48,56.56L184.49,58.75L183.88,59.38L183.19,59.75L181.24,59.98L181.09,59.77L180.94,58.68L180.93,57.31L181.48,56.45L182.29,56.01L184.31,55.85z"/><path style="fill:#ffcf80" d="M108.70,62.55L109.22,63.64L109.22,65.65L106.54,65.60L105.86,65.04L105.48,64.36L105.43,62.04L107.98,62.04z"/><path style="fill:#ffcf80" d="M191.57,64.24L191.21,64.94L190.46,65.60L187.78,65.65L187.83,63.51L188.38,62.47L189.02,62.04L191.57,62.04z"/><path style="fill:#ffcf80" d="M197.61,69.11L197.79,69.29L197.59,70.78L197.23,71.85L196.48,72.51L194.40,72.49L193.44,72.37L193.85,70.06L194.69,69.13L195.04,68.94z"/><path style="fill:#ffcf80" d="M102.50,69.29L103.20,70.18L103.56,72.37L102.60,72.49L100.52,72.51L99.84,71.95L99.47,70.91L99.27,69.19L100.65,68.95L101.96,68.94z"/><path style="fill:#ffcf80" d="M149.94,72.14L151.21,73.18L151.90,74.62L151.90,76.45L151.54,77.51L150.94,78.33L149.97,78.95L148.64,79.42L146.93,79.23L145.88,78.68L144.81,77.46L144.44,76.58L144.45,74.67L144.75,73.73L145.89,72.39L147.22,71.78L148.88,71.79z"/><path style="fill:#ffcf80" d="M201.48,76.93L202.75,77.44L202.02,79.64L201.26,80.30L199.52,80.30L198.06,79.80L198.84,77.52L199.82,76.74L200.96,76.74z"/><path style="fill:#ffcf80" d="M97.53,76.92L98.24,77.63L98.94,79.80L97.48,80.30L95.74,80.30L95.06,79.74L94.25,77.44L95.52,76.93L96.04,76.74L97.18,76.74z"/><path style="fill:#ffcf80" d="M140.03,78.87L141.44,79.40L142.69,80.28L143.42,81.15L144.28,82.76L144.63,84.72L144.64,89.38L139.32,89.32L138.25,89.15L136.85,88.60L135.26,87.18L134.72,86.48L134.17,85.08L134.01,84.18L133.94,78.69L138.79,78.69z"/><path style="fill:#ffcf80" d="M206.29,86.12L206.28,86.54L205.56,87.96L204.63,88.80L203.24,88.80L201.47,87.89L201.46,87.61L202.55,85.67L203.19,85.24L204.50,85.24z"/><path style="fill:#ffcf80" d="M94.54,85.75L95.58,87.72L95.53,87.89L93.76,88.80L92.37,88.80L91.52,88.07L90.78,86.67L90.79,86.02L92.50,85.24L93.81,85.24z"/><path style="fill:#ffcf80" d="M151.02,91.43L152.62,93.20L153.32,94.62L153.49,95.70L153.32,97.53L152.70,98.86L151.47,100.29L150.25,101.01L148.83,101.36L147.47,101.36L146.05,101.01L144.64,100.11L143.59,98.86L143.03,97.65L142.80,96.06L143.16,94.28L143.67,93.19L145.44,91.25L148.19,88.60z"/><path style="fill:#ffcf80" d="M162.34,84.24L162.18,85.14L161.81,86.01L161.21,87.00L159.97,88.24L158.22,89.15L156.97,89.32L151.83,89.38L151.89,83.53L152.54,81.70L153.68,80.36L155.02,79.40L156.25,78.86L157.50,78.69L162.35,78.69z"/><path style="fill:#ffcf80" d="M132.23,90.91L134.36,91.62L135.78,92.51L137.21,93.91L138.43,95.70L139.14,98.18L139.15,101.43L132.94,101.36L131.87,101.19L130.30,100.29L129.40,99.24L128.86,98.18L128.69,97.47L128.63,90.73L130.64,90.74z"/><path style="fill:#ffcf80" d="M206.97,94.28L208.57,95.50L208.03,96.46L206.75,97.66L205.19,97.66L203.61,96.57L203.61,95.94L204.79,94.45L205.49,94.09L206.63,94.09z"/><path style="fill:#ffcf80" d="M92.21,94.45L93.47,96.05L93.48,96.47L91.81,97.66L90.25,97.66L89.04,96.57L88.43,95.50L90.03,94.28L90.37,94.09L91.51,94.09z"/><path style="fill:#ffcf80" d="M167.66,97.52L167.48,98.24L167.07,99.06L165.99,100.29L164.42,101.19L163.35,101.36L157.14,101.43L157.21,98.41L157.51,96.94L158.11,95.42L159.26,93.73L160.75,92.39L162.34,91.50L164.05,90.91L165.65,90.74L167.66,90.73z"/><path style="fill:#ffcf80" d="M174.57,101.88L175.45,102.43L176.18,103.29L176.51,104.02L176.51,106.03L176.34,106.56L175.80,107.26L174.70,108.11L173.80,108.27L172.97,108.27L172.07,108.10L171.21,107.55L170.50,106.84L170.14,105.97L168.30,105.85L168.30,104.19L170.14,104.08L170.58,103.11L171.73,102.13L172.19,101.88L173.67,101.71z"/><path style="fill:#ffcf80" d="M164.64,104.38L165.01,105.14L165.11,102.24L165.89,102.24L165.89,107.80L165.12,107.79L163.93,104.54L163.76,107.81L163.17,107.81L163.17,102.24L163.78,102.22z"/><path style="fill:#ffcf80" d="M124.81,103.12L125.45,104.08L127.99,104.19L127.99,105.85L125.45,105.97L124.90,106.84L123.86,107.57L122.31,107.57L121.45,107.19L120.73,106.49L120.54,105.98L120.54,104.07L120.91,103.38L121.91,102.60L122.43,102.42L123.74,102.42z"/><path style="fill:#ffcf80" d="M151.47,102.84L151.47,102.24L153.67,102.24L153.67,103.02L152.35,106.91L153.67,107.02L153.67,107.80L151.30,107.80L151.35,106.90L152.77,102.93z"/><path style="fill:#ffcf80" d="M141.02,102.84L141.02,102.24L143.58,102.24L143.58,102.84L142.80,102.95L142.69,107.80L141.91,107.80L141.81,102.95z"/><path style="fill:#ffcf80" d="M207.86,103.48L209.13,104.70L209.30,105.14L208.23,106.22L207.28,106.86L206.25,106.86L205.57,106.49L204.31,105.24L204.31,104.80L205.85,103.31L206.38,103.13L207.16,103.12z"/><path style="fill:#ffcf80" d="M91.15,103.31L92.59,104.70L92.77,105.14L91.43,106.49L90.75,106.86L89.72,106.86L88.86,106.31L87.78,105.24L87.78,104.80L89.37,103.37L89.84,103.12L90.62,103.13z"/><path style="fill:#ffcf80" d="M133.13,103.91L132.53,103.91L132.42,102.95L131.28,102.95L131.28,106.92L132.42,106.92L132.53,105.95L133.13,105.96L133.07,107.75L130.63,107.75L130.58,102.24L133.13,102.24z"/><path style="fill:#ffcf80" d="M159.52,102.84L158.03,102.95L158.03,104.44L159.16,104.54L159.16,105.33L158.03,105.43L158.03,106.92L159.51,107.02L159.51,107.80L157.14,107.80L157.14,102.24L159.52,102.24z"/><path style="fill:#ffcf80" d="M147.83,107.80L147.05,107.80L147.05,102.24L147.83,102.24z"/><path style="fill:#ffcf80" d="M137.55,107.81L136.96,107.81L136.96,102.24L137.55,102.24z"/><path style="fill:#ffcf80" d="M164.30,108.79L165.71,109.51L166.43,110.20L167.13,111.10L167.66,112.52L167.66,119.31L165.53,119.25L163.93,119.08L161.83,118.35L160.23,117.29L158.80,115.71L157.91,114.30L157.37,112.71L157.21,111.63L157.14,108.62L163.23,108.62z"/><path style="fill:#ffcf80" d="M149.60,108.80L151.19,109.51L152.27,110.55L153.13,111.99L153.49,113.58L153.32,115.42L152.96,116.30L152.25,117.36L148.28,121.38L148.01,121.38L144.12,117.46L143.58,116.76L143.03,115.36L142.80,113.77L143.03,112.39L143.87,110.75L145.16,109.56L146.70,108.80L147.59,108.63L148.70,108.63z"/><path style="fill:#ffcf80" d="M125.76,109.93L126.35,109.48L126.57,109.50L126.60,109.73L126.03,110.97L125.68,112.93L125.67,121.56L126.04,122.08L129.58,122.26L130.82,126.33L130.99,133.43L131.18,133.94L131.51,134.14L138.44,134.31L138.50,134.41L131.57,134.47L131.01,134.12L130.81,133.78L130.65,126.68L129.57,123.33L129.43,122.55L129.41,122.44L126.26,122.43L125.51,121.90L125.50,111.86L125.90,110.33L126.03,110.02z"/><path style="fill:#ffcf80" d="M122.56,110.65L121.67,110.73L121.48,110.65L121.49,110.51z"/><path style="fill:#ffcf80" d="M171.96,111.22L171.43,111.26L171.24,111.17L171.25,111.05L171.90,111.11z"/><path style="fill:#ffcf80" d="M207.70,113.21L208.57,114.45L208.43,114.72L206.75,115.89L205.37,115.89L204.50,115.34L203.61,114.10L203.61,113.47L205.31,112.33L206.63,112.33z"/><path style="fill:#ffcf80" d="M93.48,113.57L93.47,113.99L92.50,115.34L91.63,115.89L90.25,115.89L88.67,114.81L88.43,114.45L89.39,113.12L90.37,112.33L91.69,112.33z"/><path style="fill:#ffcf80" d="M139.14,111.87L138.56,113.94L137.67,115.53L136.15,117.20L134.66,118.19L132.95,118.96L130.76,119.25L128.63,119.31L128.69,112.57L129.05,111.52L129.77,110.29L130.82,109.39L131.99,108.79L133.06,108.62L139.15,108.62z"/><path style="fill:#ffcf80" d="M158.10,120.83L159.33,121.38L160.41,122.24L161.28,123.15L162.18,124.91L162.34,125.80L162.35,131.36L157.38,131.29L156.14,131.12L154.37,130.23L152.97,128.98L152.42,128.11L151.89,126.52L151.83,120.66L156.85,120.67z"/><path style="fill:#ffcf80" d="M205.40,121.88L206.28,123.50L206.29,123.92L204.62,124.75L203.06,124.75L202.38,124.19L201.42,122.23L202.84,121.38L203.37,121.19L204.50,121.19z"/><path style="fill:#ffcf80" d="M94.16,121.38L95.58,122.23L94.69,124.09L93.94,124.75L92.38,124.75L90.79,124.03L90.78,123.37L91.69,121.80L92.50,121.19L93.63,121.19z"/><path style="fill:#ffcf80" d="M202.02,130.40L202.74,132.36L202.68,132.70L201.08,133.25L199.70,133.25L198.84,132.52L198.06,130.24L199.65,129.69L201.14,129.69z"/><path style="fill:#ffcf80" d="M98.94,130.24L98.24,132.42L97.30,133.25L95.92,133.25L94.32,132.70L94.32,132.23L95.06,130.30L95.86,129.69L97.35,129.69z"/><path style="fill:#ffcf80" d="M149.24,130.76L150.66,131.47L151.38,132.33L151.90,133.59L151.90,135.43L151.29,136.77L149.94,137.90L149.01,138.20L147.10,138.21L145.89,137.65L144.83,136.41L144.62,136.09L144.45,135.37L144.44,133.46L145.08,132.16L146.17,131.11L147.04,130.75L148.52,130.58z"/><path style="fill:#ffcf80" d="M144.63,125.33L144.28,127.28L143.75,128.34L142.87,129.58L142.08,130.21L140.56,130.99L138.91,131.29L133.94,131.36L134.01,125.86L134.36,124.44L134.81,123.48L136.25,121.91L136.96,121.37L138.37,120.84L139.44,120.67L144.64,120.66z"/><path style="fill:#ffcf80" d="M140.91,135.19L141.46,135.53L141.97,137.32L142.70,138.54L144.45,140.15L145.87,140.86L147.71,141.29L146.81,141.37L145.51,141.04L143.94,140.13L142.70,139.07L141.79,137.68L141.10,135.71L138.49,134.56L138.50,134.41L138.98,134.47z"/><path style="fill:#ffcf80" d="M197.23,138.20L197.59,139.26L197.73,140.85L196.47,141.03L194.92,141.05L194.06,140.31L193.85,139.98L193.44,137.67L194.52,137.49L196.36,137.48z"/><path style="fill:#ffcf80" d="M103.56,137.67L103.20,139.86L103.02,140.21L102.08,141.05L100.53,141.03L99.27,140.85L99.47,139.14L99.84,138.09L100.64,137.48L102.48,137.49z"/><path style="fill:#ffcf80" d="M190.88,144.73L191.57,145.81L191.57,148.00L188.89,147.95L188.21,147.39L187.83,146.53L187.78,144.39L190.33,144.39z"/><path style="fill:#ffcf80" d="M109.22,146.41L108.86,147.29L108.11,147.95L105.43,148.00L105.48,145.69L106.22,144.65L106.67,144.39L109.22,144.39z"/><path style="fill:#ffcf80" d="M183.60,150.42L184.49,151.29L184.48,153.49L184.31,154.20L183.24,154.14L182.17,153.97L181.30,153.42L180.93,152.73L180.94,151.36L181.09,150.28L181.24,150.07L182.00,150.07z"/><path style="fill:#ffcf80" d="M115.96,150.40L116.13,152.61L115.70,153.42L114.71,154.03L112.69,154.20L112.57,153.61L112.58,151.19L113.40,150.42L115.00,150.07L115.76,150.07z"/><path style="fill:#ffcf80" d="M175.80,155.20L176.35,155.71L176.88,156.80L176.17,159.31L174.03,158.57L173.51,158.20L173.14,157.51L173.14,156.31L173.68,154.72L174.20,154.66z"/><path style="fill:#ffcf80" d="M123.39,154.84L123.91,156.44L123.92,157.39L123.31,158.38L120.90,159.34L120.18,157.14L120.17,156.68L120.65,155.71L121.20,155.20L122.80,154.66L123.21,154.64z"/><path style="fill:#ffcf80" d="M167.86,159.07L168.37,159.97L168.37,160.75L167.41,162.83L166.95,162.84L165.37,161.92L164.83,161.39L164.63,160.88L164.63,160.03L165.72,157.85z"/><path style="fill:#ffcf80" d="M132.42,160.16L132.42,160.75L132.24,161.28L131.63,161.92L130.05,162.84L129.59,162.83L128.68,160.88L128.69,159.85L129.24,158.99L131.36,157.87z"/><path style="fill:#ffcf80" d="M159.01,161.19L159.52,162.29L159.33,163.41L158.10,165.16L157.40,164.75L155.98,163.52L155.78,163.00L155.78,162.16L156.44,160.87L157.14,159.95L157.38,159.96z"/><path style="fill:#ffcf80" d="M140.76,161.20L141.28,162.29L141.28,162.87L141.09,163.41L140.57,163.95L138.98,165.18L137.74,163.51L137.48,162.29L137.99,161.19L139.62,159.96L139.86,159.95z"/><path style="fill:#ffcf80" d="M149.43,161.56L150.31,162.63L150.26,164.07L148.63,165.84L148.37,165.84L146.74,164.07L146.74,162.51L148.46,160.68z"/><path style="fill:#1a1a1a" d="M174.76,103.29L175.46,104.19L175.46,105.86L174.76,106.75L173.81,107.22L172.78,107.22L171.74,106.66L171.31,105.95L173.86,105.85L173.86,104.19L171.30,104.02L171.84,103.31L172.91,102.78L173.68,102.78z"/><path style="fill:#ffffff" d="M149.43,46.45L149.43,47.05L149.18,47.52L147.82,47.52L147.63,47.18L147.65,46.35L148.11,45.92L148.89,45.92z"/><path style="fill:#ffffff" d="M158.46,46.98L158.46,47.95L158.31,48.15L157.38,48.43L156.85,48.05L156.85,46.87L157.14,46.63L158.10,46.63z"/><path style="fill:#ffffff" d="M140.21,46.98L140.22,47.95L140.07,48.15L139.14,48.43L138.61,48.05L138.61,46.87L138.90,46.63L139.86,46.63z"/><path style="fill:#ffffff" d="M167.31,49.10L167.31,50.07L166.72,50.56L166.24,50.56L165.71,50.18L165.71,49.00L166.17,48.75L166.96,48.75z"/><path style="fill:#ffffff" d="M131.16,48.95L131.36,49.28L131.36,50.07L131.21,50.27L130.28,50.55L129.76,50.18L129.76,49.00L130.04,48.75L130.83,48.75z"/><path style="fill:#ffffff" d="M148.72,51.57L148.70,64.25L148.30,64.25L148.35,51.46L148.55,51.40z"/><path style="fill:#ffffff" d="M175.81,52.65L175.81,53.43L175.57,53.90L174.38,53.90L174.01,53.37L174.01,52.89L174.49,52.29L175.46,52.30z"/><path style="fill:#ffffff" d="M122.70,52.45L123.02,53.08L122.62,53.90L121.43,53.90L121.26,53.72L121.26,52.54L121.54,52.29L122.51,52.29z"/><path style="fill:#ffffff" d="M157.04,56.37L157.04,57.16L156.61,57.61L155.78,57.63L155.24,57.10L155.24,56.43L155.78,55.89L156.51,55.83z"/><path style="fill:#ffffff" d="M141.45,56.02L141.82,56.56L141.76,57.10L141.22,57.64L140.55,57.63L140.03,57.27L140.03,56.26L140.68,55.83L141.09,55.83z"/><path style="fill:#ffffff" d="M183.61,57.43L183.60,58.22L183.36,58.68L182.18,58.68L181.80,58.15L181.80,57.67L182.28,57.08L183.25,57.08z"/><path style="fill:#ffffff" d="M114.91,57.23L115.23,57.87L114.82,58.68L113.64,58.68L113.46,58.50L113.46,57.32L113.75,57.08L114.72,57.08z"/><path style="fill:#ffffff" d="M164.48,58.14L164.48,58.93L164.05,59.38L163.21,59.40L162.88,59.21L162.68,58.38L162.98,57.78L163.35,57.60L163.76,57.60z"/><path style="fill:#ffffff" d="M134.02,57.78L134.37,58.51L134.33,58.86L133.79,59.40L132.95,59.38L132.60,59.03L132.59,58.03L133.24,57.60L133.65,57.60z"/><path style="fill:#ffffff" d="M171.37,60.82L171.57,61.15L171.56,61.94L171.32,62.22L170.13,62.22L169.76,61.69L169.76,61.21L170.24,60.62L171.03,60.62z"/><path style="fill:#ffffff" d="M127.29,61.34L127.10,61.93L126.52,62.42L125.69,62.22L125.51,62.05L125.49,61.02L125.97,60.62L126.76,60.62z"/><path style="fill:#ffffff" d="M190.52,63.27L190.51,64.24L190.11,64.72L189.27,64.70L188.91,64.34L188.89,63.32L189.37,62.91L189.97,62.92z"/><path style="fill:#ffffff" d="M107.96,63.12L108.16,63.45L108.16,64.24L107.73,64.70L106.89,64.72L106.54,64.37L106.56,63.17L107.03,62.92L107.63,62.91z"/><path style="fill:#ffffff" d="M177.75,64.70L178.12,65.04L178.12,65.84L177.71,66.31L176.69,66.30L176.32,65.77L176.32,65.11L176.62,64.70L177.24,64.54z"/><path style="fill:#ffffff" d="M120.54,64.89L120.75,65.23L120.74,65.65L120.31,66.30L119.31,66.29L118.96,65.94L118.94,65.10L119.24,64.70L119.86,64.53z"/><path style="fill:#ffffff" d="M151.20,65.40L152.60,65.94L155.28,67.69L156.85,69.48L158.09,71.78L164.29,71.96L165.53,72.14L167.13,72.85L167.85,73.54L168.90,75.14L169.07,76.04L169.24,82.95L169.42,83.48L169.76,84.03L170.85,84.18L172.44,84.89L173.16,85.58L173.86,86.48L174.38,87.90L174.55,95.00L176.69,95.51L178.46,96.40L180.41,97.81L181.67,99.39L182.89,101.89L183.25,104.08L181.40,104.08L180.94,102.07L180.07,100.46L178.48,98.68L175.98,97.28L174.56,96.94L172.73,96.82L172.61,88.79L172.26,87.55L171.57,86.64L170.67,86.13L168.13,85.83L167.29,83.13L167.13,75.85L166.43,74.78L165.36,74.08L164.64,73.91L157.90,73.74L156.63,73.25L155.45,70.88L154.37,69.48L152.78,68.24L151.01,67.35L149.39,67.03L149.18,66.88L149.18,65.04z"/><path style="fill:#ffffff" d="M183.96,70.19L183.97,70.79L183.56,71.27L182.54,71.25L182.18,70.90L182.16,70.05L182.64,69.65L183.61,69.64z"/><path style="fill:#ffffff" d="M114.90,70.19L114.90,70.60L114.47,71.25L113.44,71.27L113.09,70.92L113.10,70.06L113.39,69.64L114.36,69.65z"/><path style="fill:#ffffff" d="M196.18,70.01L196.54,70.54L196.54,71.14L196.11,71.60L195.10,71.61L194.74,71.09L194.73,70.42L195.27,69.88L195.81,69.82z"/><path style="fill:#ffffff" d="M101.96,70.01L102.32,70.55L102.32,70.96L101.89,71.61L100.89,71.60L100.54,71.25L100.52,70.41L101.06,69.88L101.60,69.82z"/><path style="fill:#ffffff" d="M109.75,75.86L109.94,76.45L109.51,77.10L108.48,77.12L108.13,76.76L108.14,75.90L108.44,75.50L109.06,75.33z"/><path style="fill:#ffffff" d="M188.92,75.85L188.92,76.64L188.52,77.12L187.49,77.10L187.11,76.57L187.11,76.09L187.47,75.54L188.57,75.50z"/><path style="fill:#ffffff" d="M200.96,77.80L201.32,78.33L201.32,78.93L200.89,79.40L199.89,79.40L199.52,78.88L199.52,78.21L200.06,77.67L200.60,77.61z"/><path style="fill:#ffffff" d="M97.18,77.80L97.54,78.33L97.54,78.93L97.11,79.40L96.11,79.40L95.76,79.04L95.74,78.21L96.27,77.67L96.81,77.61z"/><path style="fill:#ffffff" d="M192.63,82.05L193.00,82.59L193.00,83.00L192.57,83.65L191.57,83.65L191.22,83.29L191.21,82.29L191.86,81.86z"/><path style="fill:#ffffff" d="M105.86,82.40L105.86,83.19L105.43,83.65L104.43,83.65L104.06,83.13L104.06,82.46L104.37,82.05L105.14,81.86z"/><path style="fill:#ffffff" d="M204.50,86.30L204.86,86.84L204.68,87.61L204.27,87.92L203.60,87.92L203.08,87.55L203.08,86.55L203.54,86.12L204.14,86.12z"/><path style="fill:#ffffff" d="M93.99,86.65L93.99,87.44L93.40,87.92L92.73,87.92L92.40,87.73L92.22,87.32L92.22,86.77L92.56,86.19L93.46,86.12z"/><path style="fill:#ffffff" d="M109.76,92.17L109.76,92.57L109.20,92.52L97.50,88.59L97.46,88.43L98.24,88.43z"/><path style="fill:#ffffff" d="M199.50,88.59L187.80,92.52L187.24,92.57L187.24,92.17L198.76,88.43L199.54,88.43z"/><path style="fill:#ffffff" d="M206.63,95.16L206.99,95.70L206.93,96.24L206.40,96.77L205.56,96.75L205.21,96.40L205.20,95.40L205.85,94.97L206.26,94.97z"/><path style="fill:#ffffff" d="M91.87,95.50L91.87,96.30L91.44,96.75L90.60,96.77L90.27,96.58L90.10,96.18L90.10,95.62L90.37,95.15L90.74,94.97L91.15,94.97z"/><path style="fill:#ffffff" d="M197.60,96.92L197.60,97.89L197.35,98.17L196.17,98.17L195.99,98.00L195.99,96.81L196.81,96.41L196.90,96.41z"/><path style="fill:#ffffff" d="M101.08,96.92L101.08,97.89L100.83,98.17L99.65,98.17L99.47,98.00L99.47,96.81L100.29,96.41L100.38,96.41z"/><path style="fill:#ffffff" d="M147.11,66.88L146.90,67.03L145.27,67.35L143.51,68.25L141.97,69.53L140.73,71.13L139.79,73.20L138.39,73.75L131.83,73.91L130.93,74.08L130.03,74.60L129.22,75.91L129.05,83.00L128.16,85.83L126.33,85.95L125.62,86.13L124.63,86.73L123.90,87.77L123.74,97.53L121.55,97.64L120.36,98.05L118.95,98.76L117.28,100.28L116.24,101.89L115.59,104.08L113.75,104.08L114.11,101.89L115.43,99.49L116.77,98.00L118.19,96.93L120.14,96.05L121.74,95.70L121.96,87.95L122.32,86.90L123.04,85.67L124.09,84.77L125.44,84.18L126.53,84.03L126.93,83.54L127.10,82.82L127.28,76.27L127.44,75.20L128.35,73.63L129.22,72.90L130.22,72.31L132.00,71.96L138.20,71.78L139.24,69.82L140.68,68.07L142.45,66.65L144.22,65.76L145.10,65.40L147.11,65.04z"/><path style="fill:#ffffff" d="M207.70,104.72L207.70,105.32L207.27,105.78L206.24,105.81L205.89,105.45L205.89,104.59L206.37,104.18L207.16,104.18z"/><path style="fill:#ffffff" d="M198.31,104.72L198.31,105.32L197.88,105.78L196.70,105.79L196.51,105.45L196.51,104.60L196.80,104.18L197.78,104.19z"/><path style="fill:#ffffff" d="M100.35,104.38L100.55,104.72L100.55,105.33L100.14,105.81L99.12,105.78L98.77,105.43L98.77,104.61L99.23,104.18L100.02,104.18z"/><path style="fill:#ffffff" d="M91.16,104.72L91.16,105.32L90.91,105.79L89.73,105.79L89.35,105.26L89.35,104.78L89.84,104.18L90.81,104.18z"/><path style="fill:#ffffff" d="M115.93,107.39L116.82,109.16L118.43,110.91L119.50,111.61L121.42,112.35L123.74,112.51L123.90,122.27L124.28,122.96L125.15,123.68L126.21,124.04L128.16,124.21L129.05,127.04L129.22,134.14L129.77,135.17L130.81,135.91L131.70,136.07L138.26,136.25L139.69,136.77L140.57,138.72L141.46,139.95L142.88,141.37L145.15,142.64L146.05,142.80L147.11,143.16L147.11,145.00L144.98,144.58L143.04,143.69L141.63,142.79L140.22,141.55L138.96,139.80L138.10,138.18L131.88,138.02L130.10,137.68L128.71,136.77L127.98,135.90L127.44,134.84L127.28,133.77L127.10,127.22L126.74,126.17L126.41,125.96L125.32,125.81L123.75,125.08L122.67,123.86L122.13,122.80L121.96,122.09L121.81,114.45L121.63,114.27L119.48,113.76L117.55,112.69L115.96,111.27L114.70,109.33L114.16,108.28L113.82,106.68L113.75,105.96L115.59,105.96z"/><path style="fill:#ffffff" d="M197.60,112.15L197.60,113.12L197.00,113.60L196.17,113.40L195.99,113.23L195.99,112.04L196.28,111.80L197.24,111.80z"/><path style="fill:#ffffff" d="M101.08,112.15L101.08,113.12L100.48,113.60L99.65,113.40L99.47,113.23L99.47,112.04L99.76,111.80L100.72,111.80z"/><path style="fill:#ffffff" d="M206.63,113.40L206.99,113.94L206.93,114.48L206.39,115.02L205.72,115.02L205.20,114.65L205.21,113.64L205.67,113.21L206.27,113.21z"/><path style="fill:#ffffff" d="M91.87,113.75L91.87,114.54L91.28,115.02L90.61,115.02L90.27,114.82L90.10,114.42L90.10,113.87L90.37,113.39L90.73,113.22L91.33,113.21z"/><path style="fill:#ffffff" d="M195.63,119.44L195.83,119.77L195.83,120.56L195.23,121.04L194.75,121.04L194.22,120.67L194.22,119.49L194.69,119.24L195.29,119.23z"/><path style="fill:#ffffff" d="M102.85,119.59L102.85,120.56L102.25,121.04L101.77,121.04L101.24,120.67L101.23,119.64L101.70,119.24L102.49,119.24z"/><path style="fill:#ffffff" d="M204.51,122.25L204.86,122.97L204.81,123.33L204.27,123.87L203.43,123.85L203.08,123.50L203.08,122.49L203.73,122.06L204.14,122.06z"/><path style="fill:#ffffff" d="M93.99,122.60L93.99,123.39L93.57,123.85L92.56,123.85L92.22,123.27L92.22,122.72L92.49,122.25L92.86,122.06L93.27,122.06z"/><path style="fill:#ffffff" d="M193.00,127.04L193.00,127.45L192.82,127.82L192.22,128.12L191.74,128.13L191.21,127.75L191.22,126.75L191.67,126.32L192.46,126.32z"/><path style="fill:#ffffff" d="M105.86,126.85L105.86,127.64L105.26,128.13L104.78,128.12L104.26,127.92L104.06,127.58L104.06,126.91L104.54,126.32L105.33,126.32z"/><path style="fill:#ffffff" d="M201.32,131.11L201.26,131.84L200.73,132.37L200.06,132.37L199.52,131.83L199.52,131.16L200.00,130.57L200.79,130.57z"/><path style="fill:#ffffff" d="M97.54,131.11L97.48,131.84L96.94,132.37L96.27,132.37L95.74,131.84L95.76,131.00L96.21,130.57L97.00,130.57z"/><path style="fill:#ffffff" d="M188.72,133.07L188.92,133.40L188.92,134.19L188.67,134.48L187.47,134.50L187.11,133.95L187.11,133.47L187.60,132.87L188.39,132.87z"/><path style="fill:#ffffff" d="M109.94,133.59L109.75,134.19L109.16,134.68L108.33,134.47L108.14,134.14L108.13,133.28L108.61,132.87L109.40,132.87z"/><path style="fill:#ffffff" d="M180.09,148.13L180.05,148.37L179.66,148.36L172.44,138.36L172.43,137.89L172.63,137.83z"/><path style="fill:#ffffff" d="M124.65,138.00L124.64,138.25L117.34,148.36L116.95,148.37L116.98,148.00L124.37,137.83z"/><path style="fill:#ffffff" d="M196.54,138.90L196.48,139.63L195.94,140.17L195.27,140.17L194.73,139.63L194.74,138.96L195.21,138.36L196.00,138.37z"/><path style="fill:#ffffff" d="M102.32,139.08L102.27,139.63L101.73,140.17L101.06,140.17L100.52,139.63L100.54,138.79L101.00,138.37L101.79,138.36z"/><path style="fill:#ffffff" d="M183.76,138.92L183.97,139.25L183.96,139.85L183.71,140.32L182.51,140.34L182.16,139.99L182.18,139.15L182.64,138.72L183.43,138.72z"/><path style="fill:#ffffff" d="M114.90,139.44L114.90,139.85L114.46,140.32L113.29,140.32L113.10,139.98L113.09,139.12L113.57,138.72L114.36,138.72z"/><path style="fill:#ffffff" d="M182.89,108.15L182.00,110.10L180.59,112.05L179.01,113.30L177.04,114.35L174.55,115.05L174.38,122.14L174.21,122.85L173.80,123.68L172.72,124.90L171.37,125.68L169.88,125.96L169.56,126.17L169.24,127.09L169.07,134.00L168.90,134.90L168.31,135.90L167.41,136.95L166.06,137.72L164.41,138.02L158.19,138.18L156.85,140.56L155.63,141.99L153.41,143.67L151.31,144.58L149.18,145.00L149.18,143.16L149.52,142.97L151.14,142.64L153.42,141.38L154.37,140.56L155.79,138.61L156.63,136.79L158.03,136.25L164.77,136.08L165.83,135.72L166.77,134.90L167.13,134.19L167.29,126.91L168.13,124.21L170.67,123.92L171.75,123.22L172.45,122.15L172.61,121.25L172.73,113.22L174.69,113.06L176.33,112.58L178.48,111.36L179.82,109.86L180.53,108.80L181.11,107.44L181.40,105.96L183.25,105.96z"/><path style="fill:#ffffff" d="M190.32,145.47L190.51,145.80L190.52,146.78L190.10,147.07L189.24,147.07L188.89,146.72L188.91,145.70L189.38,145.27L189.98,145.27z"/><path style="fill:#ffffff" d="M108.16,145.80L108.16,146.59L107.76,147.07L106.90,147.07L106.56,146.88L106.54,145.68L107.02,145.27L107.62,145.27z"/><path style="fill:#ffffff" d="M127.10,148.11L127.29,148.71L126.87,149.36L125.84,149.37L125.49,149.02L125.51,147.99L126.32,147.59L126.42,147.59z"/><path style="fill:#ffffff" d="M171.56,148.11L171.57,148.90L171.16,149.37L170.13,149.36L169.76,148.83L169.76,148.35L170.24,147.75L171.21,147.75z"/><path style="fill:#ffffff" d="M164.48,151.12L164.48,151.91L163.89,152.38L163.22,152.38L162.88,152.18L162.68,151.36L162.98,150.76L163.34,150.58L163.94,150.58z"/><path style="fill:#ffffff" d="M134.01,150.76L134.38,151.30L134.19,152.08L133.78,152.38L133.11,152.38L132.59,152.01L132.60,151.01L133.06,150.58L133.66,150.58z"/><path style="fill:#ffffff" d="M183.60,151.83L183.61,152.61L183.36,152.90L182.18,152.90L181.80,152.37L181.80,151.89L182.28,151.29L183.26,151.29z"/><path style="fill:#ffffff" d="M114.92,151.44L115.23,152.18L114.82,152.90L113.64,152.90L113.46,152.72L113.46,151.54L113.75,151.29L114.72,151.29z"/><path style="fill:#ffffff" d="M157.04,152.89L157.04,153.68L156.61,154.13L155.78,154.15L155.24,153.62L155.24,152.95L155.78,152.41L156.51,152.35z"/><path style="fill:#ffffff" d="M141.45,152.54L141.82,153.08L141.76,153.62L141.22,154.16L140.55,154.16L140.03,153.79L140.03,152.78L140.68,152.35L141.09,152.35z"/><path style="fill:#ffffff" d="M149.23,153.26L149.43,153.60L149.43,154.20L149.00,154.66L148.00,154.66L147.65,154.31L147.63,153.47L147.92,153.06L148.90,153.06z"/><path style="fill:#ffffff" d="M175.81,156.61L175.81,157.39L175.57,157.68L174.38,157.68L174.01,157.15L174.01,156.67L174.49,156.08L175.47,156.07z"/><path style="fill:#ffffff" d="M122.71,156.23L123.02,156.96L122.61,157.68L121.43,157.68L121.26,157.50L121.26,156.32L121.54,156.08L122.51,156.08z"/><path style="fill:#ffffff" d="M167.31,159.97L167.31,160.94L167.07,161.22L166.05,161.23L165.71,161.04L165.71,159.86L166.36,159.43L166.60,159.43z"/><path style="fill:#ffffff" d="M131.00,159.63L131.36,159.97L131.36,160.76L130.96,161.24L129.93,161.22L129.76,161.05L129.76,159.86L130.48,159.46z"/><path style="fill:#ffffff" d="M158.09,161.75L158.46,162.10L158.46,163.06L158.21,163.35L157.03,163.35L156.85,163.17L156.85,161.99L157.57,161.58z"/><path style="fill:#ffffff" d="M139.85,161.75L140.22,162.10L140.21,163.06L139.97,163.35L138.79,163.35L138.61,163.17L138.61,161.99L139.33,161.58z"/><path style="fill:#ffffff" d="M149.43,162.99L149.43,163.59L149.00,164.05L148.00,164.05L147.65,163.70L147.63,162.86L147.92,162.45L149.08,162.45z"/><g id="ToolTip" visibility="hidden" opacity="0" transform="translate(0,0)"><rect id="ToolTipShadow" opacity="0.20" fill="black" stroke="none" x="0" y="0" width="30" height="8"/><rect id="ToolTipBG" fill="#ffffe1" stroke="black" x="0" y="0" width="30" height="8"/><text xml:space="preserve" id="ToolTipText" fill="black" x="0" y="0" width="30" height="8">tooltip</text></g></g></svg>
