<svg xmlns="http://www.w3.org/2000/svg" width="305" height="82" viewBox="0 0 305 82" fill="none">
<path d="M18.3097 18.2756C18.196 17.1297 17.7083 16.2396 16.8466 15.6051C15.9848 14.9706 14.8153 14.6534 13.3381 14.6534C12.3343 14.6534 11.4867 14.7955 10.7955 15.0795C10.1042 15.3542 9.57386 15.7377 9.20455 16.2301C8.8447 16.7225 8.66477 17.2812 8.66477 17.9062C8.64583 18.4271 8.75473 18.8816 8.99148 19.2699C9.23769 19.6581 9.57386 19.9943 10 20.2784C10.4261 20.553 10.9186 20.7945 11.4773 21.0028C12.036 21.2017 12.6326 21.3722 13.267 21.5142L15.8807 22.1392C17.1496 22.4233 18.3144 22.8021 19.375 23.2756C20.4356 23.7491 21.3542 24.3314 22.1307 25.0227C22.9072 25.714 23.5085 26.5284 23.9347 27.4659C24.3703 28.4034 24.5928 29.4782 24.6023 30.6903C24.5928 32.4706 24.1383 34.0142 23.2386 35.321C22.3485 36.6184 21.0606 37.6269 19.375 38.3466C17.6989 39.0568 15.6771 39.4119 13.3097 39.4119C10.9612 39.4119 8.91572 39.0521 7.1733 38.3324C5.44034 37.6127 4.08617 36.5473 3.1108 35.1364C2.14489 33.7159 1.63826 31.9593 1.59091 29.8665H7.54261C7.6089 30.8419 7.88826 31.6562 8.38068 32.3097C8.88258 32.9536 9.55019 33.4413 10.3835 33.7727C11.2263 34.0947 12.178 34.2557 13.2386 34.2557C14.2803 34.2557 15.1847 34.1042 15.9517 33.8011C16.7282 33.4981 17.3295 33.0767 17.7557 32.5369C18.1818 31.9972 18.3949 31.3769 18.3949 30.6761C18.3949 30.0227 18.2008 29.4735 17.8125 29.0284C17.4337 28.5833 16.875 28.2045 16.1364 27.892C15.4072 27.5795 14.5123 27.2955 13.4517 27.0398L10.2841 26.2443C7.83144 25.6477 5.89489 24.715 4.47443 23.446C3.05398 22.1771 2.34848 20.4678 2.35795 18.3182C2.34848 16.5568 2.81723 15.018 3.7642 13.7017C4.72064 12.3854 6.0322 11.358 7.69886 10.6193C9.36553 9.88068 11.2595 9.51136 13.3807 9.51136C15.5398 9.51136 17.4242 9.88068 19.0341 10.6193C20.6534 11.358 21.9129 12.3854 22.8125 13.7017C23.7121 15.018 24.1761 16.5426 24.2045 18.2756H18.3097Z" fill="white"/>
<path d="M38.4205 14.9801V9.90909H62.3125V14.9801H53.4062V39H47.3267V14.9801H38.4205Z" fill="white"/>
<path d="M76.5284 39V9.90909H96.1307V14.9801H82.679V21.9119H95.1222V26.983H82.679V33.929H96.1875V39H76.5284Z" fill="white"/>
<path d="M116.543 39H109.952L119.994 9.90909H127.92L137.949 39H131.358L124.071 16.5568H123.844L116.543 39ZM116.131 27.5653H131.699V32.3665H116.131V27.5653Z" fill="white"/>
<path d="M150.528 39V9.90909H156.679V33.929H169.151V39H150.528Z" fill="white"/>
<path d="M266.71 27.9901V25.4545H278.656V27.9901H274.203V40H271.163V27.9901H266.71Z" fill="white"/>
<path d="M293.771 40H290.476L295.497 25.4545H299.46L304.474 40H301.179L297.536 28.7784H297.422L293.771 40ZM293.565 34.2827H301.349V36.6832H293.565V34.2827Z" fill="white"/>
<path d="M189.264 25.4545H193.057L197.062 35.2273H197.233L201.239 25.4545H205.031V40H202.048V30.5327H201.928L198.163 39.929H196.132L192.368 30.4972H192.247V40H189.264V25.4545Z" fill="white"/>
<path d="M220.771 40H217.476L222.497 25.4545H226.46L231.474 40H228.179L224.536 28.7784H224.422L220.771 40ZM220.565 34.2827H228.349V36.6832H220.565V34.2827Z" fill="white"/>
<path d="M251.155 29.6378C251.098 29.0649 250.854 28.6198 250.423 28.3026C249.992 27.9853 249.408 27.8267 248.669 27.8267C248.167 27.8267 247.743 27.8977 247.398 28.0398C247.052 28.1771 246.787 28.3688 246.602 28.6151C246.422 28.8613 246.332 29.1406 246.332 29.4531C246.323 29.7135 246.377 29.9408 246.496 30.1349C246.619 30.3291 246.787 30.4972 247 30.6392C247.213 30.7765 247.459 30.8973 247.739 31.0014C248.018 31.1009 248.316 31.1861 248.634 31.2571L249.94 31.5696C250.575 31.7116 251.157 31.901 251.688 32.1378C252.218 32.3745 252.677 32.6657 253.065 33.0114C253.454 33.357 253.754 33.7642 253.967 34.233C254.185 34.7017 254.296 35.2391 254.301 35.8452C254.296 36.7353 254.069 37.5071 253.619 38.1605C253.174 38.8092 252.53 39.3134 251.688 39.6733C250.849 40.0284 249.839 40.206 248.655 40.206C247.481 40.206 246.458 40.026 245.587 39.6662C244.72 39.3063 244.043 38.7737 243.555 38.0682C243.072 37.358 242.819 36.4796 242.795 35.4332H245.771C245.804 35.9209 245.944 36.3281 246.19 36.6548C246.441 36.9768 246.775 37.2206 247.192 37.3864C247.613 37.5473 248.089 37.6278 248.619 37.6278C249.14 37.6278 249.592 37.5521 249.976 37.4006C250.364 37.2491 250.665 37.0384 250.878 36.7685C251.091 36.4986 251.197 36.1884 251.197 35.8381C251.197 35.5114 251.1 35.2367 250.906 35.0142C250.717 34.7917 250.438 34.6023 250.068 34.446C249.704 34.2898 249.256 34.1477 248.726 34.0199L247.142 33.6222C245.916 33.3239 244.947 32.8575 244.237 32.223C243.527 31.5885 243.174 30.7339 243.179 29.6591C243.174 28.7784 243.409 28.009 243.882 27.3509C244.36 26.6927 245.016 26.179 245.849 25.8097C246.683 25.4403 247.63 25.2557 248.69 25.2557C249.77 25.2557 250.712 25.4403 251.517 25.8097C252.327 26.179 252.956 26.6927 253.406 27.3509C253.856 28.009 254.088 28.7713 254.102 29.6378H251.155Z" fill="white"/>
<path d="M53.7159 66.0909C53.6307 65.3712 53.285 64.8125 52.679 64.4148C52.0729 64.017 51.3295 63.8182 50.4489 63.8182C49.8049 63.8182 49.2415 63.9223 48.7585 64.1307C48.2803 64.339 47.9063 64.6255 47.6364 64.9901C47.3712 65.3546 47.2386 65.7689 47.2386 66.233C47.2386 66.6212 47.331 66.955 47.5156 67.2344C47.705 67.509 47.9465 67.7386 48.2401 67.9233C48.5336 68.1032 48.8414 68.2524 49.1634 68.3707C49.4853 68.4844 49.7812 68.5767 50.0511 68.6477L51.5284 69.0455C51.9072 69.1449 52.3286 69.2822 52.7926 69.4574C53.2614 69.6326 53.7088 69.8717 54.1349 70.1747C54.5658 70.473 54.9209 70.8565 55.2003 71.3253C55.4796 71.794 55.6193 72.3693 55.6193 73.0511C55.6193 73.8371 55.4134 74.5473 55.0014 75.1818C54.5942 75.8163 53.9976 76.3205 53.2116 76.6946C52.4304 77.0687 51.4811 77.2557 50.3636 77.2557C49.322 77.2557 48.42 77.0876 47.6577 76.7514C46.9001 76.4152 46.3035 75.9465 45.8679 75.3452C45.437 74.7438 45.1932 74.0455 45.1364 73.25H46.9545C47.0019 73.7992 47.1866 74.2538 47.5085 74.6136C47.8352 74.9687 48.2472 75.2339 48.7443 75.4091C49.2462 75.5795 49.786 75.6648 50.3636 75.6648C51.036 75.6648 51.6397 75.5559 52.1747 75.3381C52.7098 75.1155 53.1335 74.8078 53.446 74.4148C53.7585 74.017 53.9148 73.553 53.9148 73.0227C53.9148 72.5398 53.7798 72.1468 53.5099 71.8438C53.2401 71.5407 52.8849 71.2945 52.4446 71.1051C52.0043 70.9157 51.5284 70.75 51.017 70.608L49.2273 70.0966C48.0909 69.7699 47.1913 69.3035 46.5284 68.6974C45.8655 68.0914 45.5341 67.2983 45.5341 66.3182C45.5341 65.5038 45.7543 64.7936 46.1946 64.1875C46.6397 63.5767 47.2363 63.1032 47.9844 62.767C48.7372 62.4261 49.5777 62.2557 50.5057 62.2557C51.4432 62.2557 52.2765 62.4238 53.0057 62.7599C53.7348 63.0914 54.3125 63.5459 54.7386 64.1236C55.1695 64.7012 55.3968 65.357 55.4205 66.0909H53.7159Z" fill="white"/>
<path d="M248.716 66.0909C248.631 65.3712 248.285 64.8125 247.679 64.4148C247.073 64.017 246.33 63.8182 245.449 63.8182C244.805 63.8182 244.241 63.9223 243.759 64.1307C243.28 64.339 242.906 64.6255 242.636 64.9901C242.371 65.3546 242.239 65.7689 242.239 66.233C242.239 66.6212 242.331 66.955 242.516 67.2344C242.705 67.509 242.946 67.7386 243.24 67.9233C243.534 68.1032 243.841 68.2524 244.163 68.3707C244.485 68.4844 244.781 68.5767 245.051 68.6477L246.528 69.0455C246.907 69.1449 247.329 69.2822 247.793 69.4574C248.261 69.6326 248.709 69.8717 249.135 70.1747C249.566 70.473 249.921 70.8565 250.2 71.3253C250.48 71.794 250.619 72.3693 250.619 73.0511C250.619 73.8371 250.413 74.5473 250.001 75.1818C249.594 75.8163 248.998 76.3205 248.212 76.6946C247.43 77.0687 246.481 77.2557 245.364 77.2557C244.322 77.2557 243.42 77.0876 242.658 76.7514C241.9 76.4152 241.304 75.9465 240.868 75.3452C240.437 74.7438 240.193 74.0455 240.136 73.25H241.955C242.002 73.7992 242.187 74.2538 242.509 74.6136C242.835 74.9687 243.247 75.2339 243.744 75.4091C244.246 75.5795 244.786 75.6648 245.364 75.6648C246.036 75.6648 246.64 75.5559 247.175 75.3381C247.71 75.1155 248.134 74.8078 248.446 74.4148C248.759 74.017 248.915 73.553 248.915 73.0227C248.915 72.5398 248.78 72.1468 248.51 71.8438C248.24 71.5407 247.885 71.2945 247.445 71.1051C247.004 70.9157 246.528 70.75 246.017 70.608L244.227 70.0966C243.091 69.7699 242.191 69.3035 241.528 68.6974C240.866 68.0914 240.534 67.2983 240.534 66.3182C240.534 65.5038 240.754 64.7936 241.195 64.1875C241.64 63.5767 242.236 63.1032 242.984 62.767C243.737 62.4261 244.578 62.2557 245.506 62.2557C246.443 62.2557 247.277 62.4238 248.006 62.7599C248.735 63.0914 249.313 63.5459 249.739 64.1236C250.17 64.7012 250.397 65.357 250.42 66.0909H248.716Z" fill="white"/>
<path d="M77.9659 64.017V62.4545H88.875V64.017H84.3011V77H82.5398V64.017H77.9659Z" fill="white"/>
<path d="M121.307 62.4545H123.068V72.0852C123.068 73.0795 122.834 73.9673 122.365 74.7486C121.901 75.5251 121.245 76.1383 120.398 76.5881C119.55 77.0331 118.556 77.2557 117.415 77.2557C116.274 77.2557 115.279 77.0331 114.432 76.5881C113.584 76.1383 112.926 75.5251 112.457 74.7486C111.993 73.9673 111.761 73.0795 111.761 72.0852V62.4545H113.523V71.9432C113.523 72.6534 113.679 73.2855 113.991 73.8395C114.304 74.3887 114.749 74.822 115.327 75.1392C115.909 75.4517 116.605 75.608 117.415 75.608C118.224 75.608 118.92 75.4517 119.503 75.1392C120.085 74.822 120.53 74.3887 120.838 73.8395C121.151 73.2855 121.307 72.6534 121.307 71.9432V62.4545Z" fill="white"/>
<path d="M153.25 77H148.761V62.4545H153.449C154.86 62.4545 156.067 62.7457 157.071 63.3281C158.075 63.9058 158.844 64.7367 159.379 65.821C159.914 66.9006 160.182 68.1932 160.182 69.6989C160.182 71.214 159.912 72.5185 159.372 73.6122C158.832 74.7012 158.046 75.5393 157.014 76.1264C155.982 76.7088 154.727 77 153.25 77ZM150.523 75.4375H153.136C154.339 75.4375 155.336 75.2055 156.126 74.7415C156.917 74.2775 157.507 73.617 157.895 72.7599C158.283 71.9029 158.477 70.8826 158.477 69.6989C158.477 68.5246 158.286 67.5137 157.902 66.6662C157.518 65.8139 156.946 65.1605 156.183 64.706C155.421 64.2467 154.472 64.017 153.335 64.017H150.523V75.4375Z" fill="white"/>
<path d="M186.523 62.4545V77H184.761V62.4545H186.523Z" fill="white"/>
<path d="M215.034 69.7273C215.034 71.2614 214.757 72.5871 214.203 73.7045C213.649 74.822 212.889 75.6837 211.923 76.2898C210.957 76.8958 209.854 77.1989 208.614 77.1989C207.373 77.1989 206.27 76.8958 205.304 76.2898C204.338 75.6837 203.578 74.822 203.024 73.7045C202.47 72.5871 202.193 71.2614 202.193 69.7273C202.193 68.1932 202.47 66.8674 203.024 65.75C203.578 64.6326 204.338 63.7708 205.304 63.1648C206.27 62.5587 207.373 62.2557 208.614 62.2557C209.854 62.2557 210.957 62.5587 211.923 63.1648C212.889 63.7708 213.649 64.6326 214.203 65.75C214.757 66.8674 215.034 68.1932 215.034 69.7273ZM213.33 69.7273C213.33 68.4678 213.119 67.4048 212.697 66.5384C212.281 65.6719 211.715 65.0161 211 64.571C210.29 64.1259 209.494 63.9034 208.614 63.9034C207.733 63.9034 206.935 64.1259 206.22 64.571C205.51 65.0161 204.944 65.6719 204.523 66.5384C204.106 67.4048 203.898 68.4678 203.898 69.7273C203.898 70.9867 204.106 72.0497 204.523 72.9162C204.944 73.7827 205.51 74.4384 206.22 74.8835C206.935 75.3286 207.733 75.5511 208.614 75.5511C209.494 75.5511 210.29 75.3286 211 74.8835C211.715 74.4384 212.281 73.7827 212.697 72.9162C213.119 72.0497 213.33 70.9867 213.33 69.7273Z" fill="white"/>
</svg>